  0
SECTION
  2
HEADER
  9
$ACADVER
  1
AC1024
  9
$ACADMAINTVER
 70
6
  9
$DWGCODEPAGE
  3
ANSI_1252
  9
$LASTSAVEDBY
  1
ezdxf
  9
$INSBASE
 10
0.0
 20
0.0
 30
0.0
  9
$EXTMIN
 10
1e+20
 20
1e+20
 30
1e+20
  9
$EXTMAX
 10
-1e+20
 20
-1e+20
 30
-1e+20
  9
$LIMMIN
 10
0.0
 20
0.0
  9
$LIMMAX
 10
420.0
 20
297.0
  9
$ORTHOMODE
 70
0
  9
$REGENMODE
 70
1
  9
$FILLMODE
 70
1
  9
$QTEXTMODE
 70
0
  9
$MIRRTEXT
 70
1
  9
$LTSCALE
 40
1.0
  9
$ATTMODE
 70
1
  9
$TEXTSIZE
 40
2.5
  9
$TRACEWID
 40
1.0
  9
$TEXTSTYLE
  7
OpenSans
  9
$CLAYER
  8
0
  9
$CELTYPE
  6
ByLayer
  9
$CECOLOR
 62
256
  9
$CELTSCALE
 40
1.0
  9
$DISPSILH
 70
0
  9
$DIMSCALE
 40
1.0
  9
$DIMASZ
 40
0.175
  9
$DIMEXO
 40
0.125
  9
$DIMDLI
 40
3.75
  9
$DIMRND
 40
0.0
  9
$DIMDLE
 40
0.0
  9
$DIMEXE
 40
0.375
  9
$DIMTP
 40
0.0
  9
$DIMTM
 40
0.0
  9
$DIMTXT
 40
0.25
  9
$DIMCEN
 40
2.5
  9
$DIMTSZ
 40
0.0
  9
$DIMTOL
 70
0
  9
$DIMLIM
 70
0
  9
$DIMTIH
 70
0
  9
$DIMTOH
 70
0
  9
$DIMSE1
 70
0
  9
$DIMSE2
 70
0
  9
$DIMTAD
 70
1
  9
$DIMZIN
 70
12
  9
$DIMBLK
  1
ARCHTICK
  9
$DIMASO
 70
1
  9
$DIMSHO
 70
1
  9
$DIMPOST
  1

  9
$DIMAPOST
  1

  9
$DIMALT
 70
0
  9
$DIMALTD
 70
3
  9
$DIMALTF
 40
0.03937007874
  9
$DIMLFAC
 40
100.0
  9
$DIMTOFL
 70
1
  9
$DIMTVP
 40
0.0
  9
$DIMTIX
 70
0
  9
$DIMSOXD
 70
0
  9
$DIMSAH
 70
0
  9
$DIMBLK1
  1

  9
$DIMBLK2
  1

  9
$DIMSTYLE
  2
EZDXF
  9
$DIMCLRD
 70
0
  9
$DIMCLRE
 70
0
  9
$DIMCLRT
 70
0
  9
$DIMTFAC
 40
0.5
  9
$DIMGAP
 40
0.1
  9
$DIMJUST
 70
0
  9
$DIMSD1
 70
0
  9
$DIMSD2
 70
0
  9
$DIMTOLJ
 70
0
  9
$DIMTZIN
 70
8
  9
$DIMALTZ
 70
0
  9
$DIMALTTZ
 70
0
  9
$DIMUPT
 70
1
  9
$DIMDEC
 70
2
  9
$DIMTDEC
 70
2
  9
$DIMALTU
 70
2
  9
$DIMALTTD
 70
3
  9
$DIMTXSTY
  7
OpenSansCondensed-Light
  9
$DIMAUNIT
 70
0
  9
$DIMADEC
 70
2
  9
$DIMALTRND
 40
0.0
  9
$DIMAZIN
 70
3
  9
$DIMDSEP
 70
46
  9
$DIMATFIT
 70
3
  9
$DIMFRAC
 70
0
  9
$DIMLDRBLK
  1

  9
$DIMLUNIT
 70
2
  9
$DIMLWD
 70
-2
  9
$DIMLWE
 70
-2
  9
$DIMTMOVE
 70
2
  9
$DIMFXL
 40
1.0
  9
$DIMFXLON
 70
0
  9
$DIMJOGANG
 40
0.785398163397
  9
$DIMTFILL
 70
0
  9
$DIMTFILLCLR
 70
0
  9
$DIMARCSYM
 70
0
  9
$DIMLTYPE
  6

  9
$DIMLTEX1
  6

  9
$DIMLTEX2
  6

  9
$DIMTXTDIRECTION
 70
0
  9
$LUNITS
 70
2
  9
$LUPREC
 70
4
  9
$SKETCHINC
 40
1.0
  9
$FILLETRAD
 40
10.0
  9
$AUNITS
 70
0
  9
$AUPREC
 70
2
  9
$MENU
  1
.
  9
$ELEVATION
 40
0.0
  9
$PELEVATION
 40
0.0
  9
$THICKNESS
 40
0.0
  9
$LIMCHECK
 70
0
  9
$CHAMFERA
 40
0.0
  9
$CHAMFERB
 40
0.0
  9
$CHAMFERC
 40
0.0
  9
$CHAMFERD
 40
0.0
  9
$SKPOLY
 70
0
  9
$TDCREATE
 40
2461322.381400463
  9
$TDUCREATE
 40
2458532.153996898
  9
$TDUPDATE
 40
2461322.381400463
  9
$TDUUPDATE
 40
2458532.1544311
  9
$TDINDWG
 40
0.0
  9
$TDUSRTIMER
 40
0.0
  9
$USRTIMER
 70
1
  9
$ANGBASE
 50
0.0
  9
$ANGDIR
 70
0
  9
$PDMODE
 70
0
  9
$PDSIZE
 40
0.0
  9
$PLINEWID
 40
0.0
  9
$SPLFRAME
 70
0
  9
$SPLINETYPE
 70
6
  9
$SPLINESEGS
 70
8
  9
$HANDSEED
  5
E5
  9
$SURFTAB1
 70
6
  9
$SURFTAB2
 70
6
  9
$SURFTYPE
 70
6
  9
$SURFU
 70
6
  9
$SURFV
 70
6
  9
$UCSBASE
  2

  9
$UCSNAME
  2

  9
$UCSORG
 10
0.0
 20
0.0
 30
0.0
  9
$UCSXDIR
 10
1.0
 20
0.0
 30
0.0
  9
$UCSYDIR
 10
0.0
 20
1.0
 30
0.0
  9
$UCSORTHOREF
  2

  9
$UCSORTHOVIEW
 70
0
  9
$UCSORGTOP
 10
0.0
 20
0.0
 30
0.0
  9
$UCSORGBOTTOM
 10
0.0
 20
0.0
 30
0.0
  9
$UCSORGLEFT
 10
0.0
 20
0.0
 30
0.0
  9
$UCSORGRIGHT
 10
0.0
 20
0.0
 30
0.0
  9
$UCSORGFRONT
 10
0.0
 20
0.0
 30
0.0
  9
$UCSORGBACK
 10
0.0
 20
0.0
 30
0.0
  9
$PUCSBASE
  2

  9
$PUCSNAME
  2

  9
$PUCSORG
 10
0.0
 20
0.0
 30
0.0
  9
$PUCSXDIR
 10
1.0
 20
0.0
 30
0.0
  9
$PUCSYDIR
 10
0.0
 20
1.0
 30
0.0
  9
$PUCSORTHOREF
  2

  9
$PUCSORTHOVIEW
 70
0
  9
$PUCSORGTOP
 10
0.0
 20
0.0
 30
0.0
  9
$PUCSORGBOTTOM
 10
0.0
 20
0.0
 30
0.0
  9
$PUCSORGLEFT
 10
0.0
 20
0.0
 30
0.0
  9
$PUCSORGRIGHT
 10
0.0
 20
0.0
 30
0.0
  9
$PUCSORGFRONT
 10
0.0
 20
0.0
 30
0.0
  9
$PUCSORGBACK
 10
0.0
 20
0.0
 30
0.0
  9
$USERI1
 70
0
  9
$USERI2
 70
0
  9
$USERI3
 70
0
  9
$USERI4
 70
0
  9
$USERI5
 70
0
  9
$USERR1
 40
0.0
  9
$USERR2
 40
0.0
  9
$USERR3
 40
0.0
  9
$USERR4
 40
0.0
  9
$USERR5
 40
0.0
  9
$WORLDVIEW
 70
1
  9
$SHADEDGE
 70
3
  9
$SHADEDIF
 70
70
  9
$TILEMODE
 70
1
  9
$MAXACTVP
 70
64
  9
$PINSBASE
 10
0.0
 20
0.0
 30
0.0
  9
$PLIMCHECK
 70
0
  9
$PEXTMIN
 10
1e+20
 20
1e+20
 30
1e+20
  9
$PEXTMAX
 10
-1e+20
 20
-1e+20
 30
-1e+20
  9
$PLIMMIN
 10
0.0
 20
0.0
  9
$PLIMMAX
 10
420.0
 20
297.0
  9
$UNITMODE
 70
0
  9
$VISRETAIN
 70
1
  9
$PLINEGEN
 70
0
  9
$PSLTSCALE
 70
1
  9
$TREEDEPTH
 70
3020
  9
$CMLSTYLE
  2
Standard
  9
$CMLJUST
 70
0
  9
$CMLSCALE
 40
20.0
  9
$PROXYGRAPHICS
 70
1
  9
$MEASUREMENT
 70
1
  9
$CELWEIGHT
370
-1
  9
$ENDCAPS
280
0
  9
$JOINSTYLE
280
0
  9
$LWDISPLAY
290
0
  9
$INSUNITS
 70
4
  9
$HYPERLINKBASE
  1

  9
$STYLESHEET
  1

  9
$XEDIT
290
1
  9
$CEPSNTYPE
380
0
  9
$PSTYLEMODE
290
1
  9
$FINGERPRINTGUID
  2
{5250B974-A779-4D02-8FEF-58F7022C8B1B}
  9
$VERSIONGUID
  2
{D0483E88-A793-4BEC-AC90-7D554119BA5F}
  9
$EXTNAMES
290
1
  9
$PSVPSCALE
 40
0.0
  9
$OLESTARTUP
290
0
  9
$SORTENTS
280
127
  9
$INDEXCTL
280
0
  9
$HIDETEXT
280
1
  9
$XCLIPFRAME
280
1
  9
$HALOGAP
280
0
  9
$OBSCOLOR
 70
257
  9
$OBSLTYPE
280
0
  9
$INTERSECTIONDISPLAY
280
0
  9
$INTERSECTIONCOLOR
 70
257
  9
$DIMASSOC
280
2
  9
$PROJECTNAME
  1

  9
$CAMERADISPLAY
290
0
  9
$LENSLENGTH
 40
50.0
  9
$CAMERAHEIGHT
 40
0.0
  9
$STEPSPERSEC
 40
24.0
  9
$STEPSIZE
 40
100.0
  9
$3DDWFPREC
 40
2.0
  9
$PSOLWIDTH
 40
0.005
  9
$PSOLHEIGHT
 40
0.08
  9
$LOFTANG1
 40
1.570796326795
  9
$LOFTANG2
 40
1.570796326795
  9
$LOFTMAG1
 40
0.0
  9
$LOFTMAG2
 40
0.0
  9
$LOFTPARAM
 70
7
  9
$LOFTNORMALS
280
1
  9
$LATITUDE
 40
37.795
  9
$LONGITUDE
 40
-122.394
  9
$NORTHDIRECTION
 40
0.0
  9
$TIMEZONE
 70
-8000
  9
$LIGHTGLYPHDISPLAY
280
1
  9
$TILEMODELIGHTSYNCH
280
1
  9
$CMATERIAL
347
20
  9
$SOLIDHIST
280
0
  9
$SHOWHIST
280
1
  9
$DWFFRAME
280
2
  9
$DGNFRAME
280
2
  9
$REALWORLDSCALE
290
1
  9
$INTERFERECOLOR
 62
256
  9
$CSHADOW
280
0
  9
$SHADOWPLANELOCATION
 40
0.0
  0
ENDSEC
  0
SECTION
  2
CLASSES
  0
CLASS
  1
ACDBDICTIONARYWDFLT
  2
AcDbDictionaryWithDefault
  3
ObjectDBX Classes
 90
0
 91
0
280
0
281
0
  0
CLASS
  1
SUN
  2
AcDbSun
  3
SCENEOE
 90
1153
 91
0
280
0
281
0
  0
CLASS
  1
VISUALSTYLE
  2
AcDbVisualStyle
  3
ObjectDBX Classes
 90
4095
 91
0
280
0
281
0
  0
CLASS
  1
MATERIAL
  2
AcDbMaterial
  3
ObjectDBX Classes
 90
1153
 91
0
280
0
281
0
  0
CLASS
  1
SCALE
  2
AcDbScale
  3
ObjectDBX Classes
 90
1153
 91
0
280
0
281
0
  0
CLASS
  1
TABLESTYLE
  2
AcDbTableStyle
  3
ObjectDBX Classes
 90
4095
 91
0
280
0
281
0
  0
CLASS
  1
MLEADERSTYLE
  2
AcDbMLeaderStyle
  3
ACDB_MLEADERSTYLE_CLASS
 90
4095
 91
0
280
0
281
0
  0
CLASS
  1
DICTIONARYVAR
  2
AcDbDictionaryVar
  3
ObjectDBX Classes
 90
0
 91
0
280
0
281
0
  0
CLASS
  1
CELLSTYLEMAP
  2
AcDbCellStyleMap
  3
ObjectDBX Classes
 90
1152
 91
0
280
0
281
0
  0
CLASS
  1
MENTALRAYRENDERSETTINGS
  2
AcDbMentalRayRenderSettings
  3
SCENEOE
 90
1024
 91
0
280
0
281
0
  0
CLASS
  1
ACDBDETAILVIEWSTYLE
  2
AcDbDetailViewStyle
  3
ObjectDBX Classes
 90
1025
 91
0
280
0
281
0
  0
CLASS
  1
ACDBSECTIONVIEWSTYLE
  2
AcDbSectionViewStyle
  3
ObjectDBX Classes
 90
1025
 91
0
280
0
281
0
  0
CLASS
  1
RASTERVARIABLES
  2
AcDbRasterVariables
  3
ISM
 90
0
 91
0
280
0
281
0
  0
CLASS
  1
LAYOUT
  2
AcDbLayout
  3
ObjectDBX Classes
 90
0
 91
0
280
0
281
0
  0
CLASS
  1
ACDBPLACEHOLDER
  2
AcDbPlaceHolder
  3
ObjectDBX Classes
 90
0
 91
0
280
0
281
0
  0
ENDSEC
  0
SECTION
  2
TABLES
  0
TABLE
  2
VPORT
  5
8
330
0
100
AcDbSymbolTable
 70
1
  0
VPORT
  5
23
330
8
100
AcDbSymbolTableRecord
100
AcDbViewportTableRecord
  2
*Active
 70
0
 10
0.0
 20
0.0
 11
1.0
 21
1.0
 12
0.0
 22
0.0
 13
0.0
 23
0.0
 14
0.5
 24
0.5
 15
0.5
 25
0.5
 16
0.0
 26
0.0
 36
1.0
 17
0.0
 27
0.0
 37
0.0
 40
1000.0
 41
1.34
 42
50.0
 43
0.0
 44
0.0
 50
0.0
 51
0.0
 71
0
 72
1000
 73
1
 74
3
 75
0
 76
0
 77
0
 78
0
281
0
 65
0
146
0.0
  0
ENDTAB
  0
TABLE
  2
LTYPE
  5
2
330
0
100
AcDbSymbolTable
 70
21
  0
LTYPE
  5
24
330
2
100
AcDbSymbolTableRecord
100
AcDbLinetypeTableRecord
  2
ByBlock
 70
0
  3

 72
65
 73
0
 40
0.0
  0
LTYPE
  5
25
330
2
100
AcDbSymbolTableRecord
100
AcDbLinetypeTableRecord
  2
ByLayer
 70
0
  3

 72
65
 73
0
 40
0.0
  0
LTYPE
  5
26
330
2
100
AcDbSymbolTableRecord
100
AcDbLinetypeTableRecord
  2
Continuous
 70
0
  3

 72
65
 73
0
 40
0.0
  0
LTYPE
  5
2F
330
2
100
AcDbSymbolTableRecord
100
AcDbLinetypeTableRecord
  2
CENTER
 70
0
  3
Center ____ _ ____ _ ____ _ ____ _ ____ _ ____
 72
65
 73
4
 40
5.08
 49
3.175
 74
0
 49
-0.635
 74
0
 49
0.635
 74
0
 49
-0.635
 74
0
  0
LTYPE
  5
30
330
2
100
AcDbSymbolTableRecord
100
AcDbLinetypeTableRecord
  2
CENTERX2
 70
0
  3
Center (2x) ________  __  ________  __  ________
 72
65
 73
4
 40
8.89
 49
6.35
 74
0
 49
-0.635
 74
0
 49
1.27
 74
0
 49
-0.635
 74
0
  0
LTYPE
  5
31
330
2
100
AcDbSymbolTableRecord
100
AcDbLinetypeTableRecord
  2
CENTER2
 70
0
  3
Center (.5x) ____ _ ____ _ ____ _ ____ _ ____
 72
65
 73
4
 40
2.54
 49
1.587
 74
0
 49
-0.318
 74
0
 49
0.318
 74
0
 49
-0.318
 74
0
  0
LTYPE
  5
32
330
2
100
AcDbSymbolTableRecord
100
AcDbLinetypeTableRecord
  2
DASHED
 70
0
  3
Dashed __ __ __ __ __ __ __ __ __ __ __ __ __ _
 72
65
 73
2
 40
1.524
 49
1.27
 74
0
 49
-0.254
 74
0
  0
LTYPE
  5
33
330
2
100
AcDbSymbolTableRecord
100
AcDbLinetypeTableRecord
  2
DASHEDX2
 70
0
  3
Dashed (2x) ____  ____  ____  ____  ____  ____
 72
65
 73
2
 40
3.048
 49
2.54
 74
0
 49
-0.508
 74
0
  0
LTYPE
  5
34
330
2
100
AcDbSymbolTableRecord
100
AcDbLinetypeTableRecord
  2
DASHED2
 70
0
  3
Dashed (.5x) _ _ _ _ _ _ _ _ _ _ _ _ _ _
 72
65
 73
2
 40
0.762
 49
0.635
 74
0
 49
-0.127
 74
0
  0
LTYPE
  5
35
330
2
100
AcDbSymbolTableRecord
100
AcDbLinetypeTableRecord
  2
PHANTOM
 70
0
  3
Phantom ______  __  __  ______  __  __  ______
 72
65
 73
6
 40
6.35
 49
3.175
 74
0
 49
-0.635
 74
0
 49
0.635
 74
0
 49
-0.635
 74
0
 49
0.635
 74
0
 49
-0.635
 74
0
  0
LTYPE
  5
36
330
2
100
AcDbSymbolTableRecord
100
AcDbLinetypeTableRecord
  2
PHANTOMX2
 70
0
  3
Phantom (2x)____________    ____    ____    ____________
 72
65
 73
6
 40
10.795
 49
6.35
 74
0
 49
-0.635
 74
0
 49
1.27
 74
0
 49
-0.635
 74
0
 49
1.27
 74
0
 49
-0.635
 74
0
  0
LTYPE
  5
37
330
2
100
AcDbSymbolTableRecord
100
AcDbLinetypeTableRecord
  2
PHANTOM2
 70
0
  3
Phantom (.5x) ___ _ _ ___ _ _ ___ _ _ ___ _ _ ___
 72
65
 73
6
 40
3.175
 49
1.587
 74
0
 49
-0.318
 74
0
 49
0.318
 74
0
 49
-0.318
 74
0
 49
0.318
 74
0
 49
-0.318
 74
0
  0
LTYPE
  5
38
330
2
100
AcDbSymbolTableRecord
100
AcDbLinetypeTableRecord
  2
DASHDOT
 70
0
  3
Dash dot __ . __ . __ . __ . __ . __ . __ . __
 72
65
 73
4
 40
3.556
 49
2.54
 74
0
 49
-0.508
 74
0
 49
0.0
 74
0
 49
-0.508
 74
0
  0
LTYPE
  5
39
330
2
100
AcDbSymbolTableRecord
100
AcDbLinetypeTableRecord
  2
DASHDOTX2
 70
0
  3
Dash dot (2x) ____  .  ____  .  ____  .  ____
 72
65
 73
4
 40
6.096
 49
5.08
 74
0
 49
-0.508
 74
0
 49
0.0
 74
0
 49
-0.508
 74
0
  0
LTYPE
  5
3A
330
2
100
AcDbSymbolTableRecord
100
AcDbLinetypeTableRecord
  2
DASHDOT2
 70
0
  3
Dash dot (.5x) _ . _ . _ . _ . _ . _ . _ . _
 72
65
 73
4
 40
1.778
 49
1.27
 74
0
 49
-0.254
 74
0
 49
0.0
 74
0
 49
-0.254
 74
0
  0
LTYPE
  5
3B
330
2
100
AcDbSymbolTableRecord
100
AcDbLinetypeTableRecord
  2
DOT
 70
0
  3
Dot .  .  .  .  .  .  .  .  .  .  .  .  .  .  .  .
 72
65
 73
2
 40
0.508
 49
0.0
 74
0
 49
-0.508
 74
0
  0
LTYPE
  5
3C
330
2
100
AcDbSymbolTableRecord
100
AcDbLinetypeTableRecord
  2
DOTX2
 70
0
  3
Dot (2x) .    .    .    .    .    .    .    . 
 72
65
 73
2
 40
1.016
 49
0.0
 74
0
 49
-1.016
 74
0
  0
LTYPE
  5
3D
330
2
100
AcDbSymbolTableRecord
100
AcDbLinetypeTableRecord
  2
DOT2
 70
0
  3
Dot (.5) . . . . . . . . . . . . . . . . . . . 
 72
65
 73
2
 40
0.254
 49
0.0
 74
0
 49
-0.254
 74
0
  0
LTYPE
  5
3E
330
2
100
AcDbSymbolTableRecord
100
AcDbLinetypeTableRecord
  2
DIVIDE
 70
0
  3
Divide __ . . __ . . __ . . __ . . __ . . __
 72
65
 73
6
 40
4.064
 49
2.54
 74
0
 49
-0.508
 74
0
 49
0.0
 74
0
 49
-0.508
 74
0
 49
0.0
 74
0
 49
-0.508
 74
0
  0
LTYPE
  5
3F
330
2
100
AcDbSymbolTableRecord
100
AcDbLinetypeTableRecord
  2
DIVIDEX2
 70
0
  3
Divide (2x) ____  . .  ____  . .  ____  . .  ____
 72
65
 73
6
 40
6.604
 49
5.08
 74
0
 49
-0.508
 74
0
 49
0.0
 74
0
 49
-0.508
 74
0
 49
0.0
 74
0
 49
-0.508
 74
0
  0
LTYPE
  5
40
330
2
100
AcDbSymbolTableRecord
100
AcDbLinetypeTableRecord
  2
DIVIDE2
 70
0
  3
Divide(.5x) _ . _ . _ . _ . _ . _ . _ . _
 72
65
 73
6
 40
2.032
 49
1.27
 74
0
 49
-0.254
 74
0
 49
0.0
 74
0
 49
-0.254
 74
0
 49
0.0
 74
0
 49
-0.254
 74
0
  0
ENDTAB
  0
TABLE
  2
LAYER
  5
1
330
0
100
AcDbSymbolTable
 70
4
  0
LAYER
  5
27
330
1
100
AcDbSymbolTableRecord
100
AcDbLayerTableRecord
  2
0
 70
0
 62
7
  6
Continuous
370
-3
390
13
347
21
  0
LAYER
  5
28
330
1
100
AcDbSymbolTableRecord
100
AcDbLayerTableRecord
  2
Defpoints
 70
0
 62
7
  6
Continuous
290
0
370
-3
390
13
347
21
  0
LAYER
  5
8A
330
1
100
AcDbSymbolTableRecord
100
AcDbLayerTableRecord
  2
KESIM
 70
0
 62
1
  6
Continuous
370
-3
390
13
347
21
  0
LAYER
  5
8B
330
1
100
AcDbSymbolTableRecord
100
AcDbLayerTableRecord
  2
ALTIN
 70
0
 62
2
  6
Continuous
370
-3
390
13
347
21
  0
ENDTAB
  0
TABLE
  2
STYLE
  5
5
330
0
100
AcDbSymbolTable
 70
26
  0
STYLE
  5
29
330
5
100
AcDbSymbolTableRecord
100
AcDbTextStyleTableRecord
  2
Standard
 70
0
 40
0.0
 41
1.0
 50
0.0
 71
0
 42
2.5
  3
txt
  4

  0
STYLE
  5
41
330
5
100
AcDbSymbolTableRecord
100
AcDbTextStyleTableRecord
  2
OpenSans-Light
 70
0
 40
0.0
 41
1.0
 50
0.0
 71
0
 42
2.5
  3
OpenSans-Light.ttf
  4

  0
STYLE
  5
42
330
5
100
AcDbSymbolTableRecord
100
AcDbTextStyleTableRecord
  2
OpenSans-Light-Italic
 70
0
 40
0.0
 41
1.0
 50
0.0
 71
0
 42
2.5
  3
OpenSans-LightItalic.ttf
  4

  0
STYLE
  5
43
330
5
100
AcDbSymbolTableRecord
100
AcDbTextStyleTableRecord
  2
OpenSans
 70
0
 40
0.0
 41
1.0
 50
0.0
 71
0
 42
2.5
  3
OpenSans-Regular.ttf
  4

  0
STYLE
  5
44
330
5
100
AcDbSymbolTableRecord
100
AcDbTextStyleTableRecord
  2
OpenSans-Italic
 70
0
 40
0.0
 41
1.0
 50
0.0
 71
0
 42
2.5
  3
OpenSans-Italic.ttf
  4

  0
STYLE
  5
45
330
5
100
AcDbSymbolTableRecord
100
AcDbTextStyleTableRecord
  2
OpenSans-SemiBold
 70
0
 40
0.0
 41
1.0
 50
0.0
 71
0
 42
2.5
  3
OpenSans-SemiBold.ttf
  4

  0
STYLE
  5
46
330
5
100
AcDbSymbolTableRecord
100
AcDbTextStyleTableRecord
  2
OpenSans-SemiBoldItalic
 70
0
 40
0.0
 41
1.0
 50
0.0
 71
0
 42
2.5
  3
OpenSans-SemiBoldItalic.ttf
  4

  0
STYLE
  5
47
330
5
100
AcDbSymbolTableRecord
100
AcDbTextStyleTableRecord
  2
OpenSans-Bold
 70
0
 40
0.0
 41
1.0
 50
0.0
 71
0
 42
2.5
  3
OpenSans-Bold.ttf
  4

  0
STYLE
  5
48
330
5
100
AcDbSymbolTableRecord
100
AcDbTextStyleTableRecord
  2
OpenSans-BoldItalic
 70
0
 40
0.0
 41
1.0
 50
0.0
 71
0
 42
2.5
  3
OpenSans-BoldItalic.ttf
  4

  0
STYLE
  5
49
330
5
100
AcDbSymbolTableRecord
100
AcDbTextStyleTableRecord
  2
OpenSans-ExtraBold
 70
0
 40
0.0
 41
1.0
 50
0.0
 71
0
 42
2.5
  3
OpenSans-ExtraBold.ttf
  4

  0
STYLE
  5
4A
330
5
100
AcDbSymbolTableRecord
100
AcDbTextStyleTableRecord
  2
OpenSans-ExtraBoldItalic
 70
0
 40
0.0
 41
1.0
 50
0.0
 71
0
 42
2.5
  3
OpenSans-ExtraBoldItalic.ttf
  4

  0
STYLE
  5
4B
330
5
100
AcDbSymbolTableRecord
100
AcDbTextStyleTableRecord
  2
OpenSansCondensed-Bold
 70
0
 40
0.0
 41
1.0
 50
0.0
 71
0
 42
2.5
  3
OpenSansCondensed-Bold.ttf
  4

  0
STYLE
  5
4C
330
5
100
AcDbSymbolTableRecord
100
AcDbTextStyleTableRecord
  2
OpenSansCondensed-Light
 70
0
 40
0.0
 41
1.0
 50
0.0
 71
0
 42
2.5
  3
OpenSansCondensed-Light.ttf
  4

  0
STYLE
  5
4D
330
5
100
AcDbSymbolTableRecord
100
AcDbTextStyleTableRecord
  2
OpenSansCondensed-Italic
 70
0
 40
0.0
 41
1.0
 50
0.0
 71
0
 42
2.5
  3
OpenSansCondensed-LightItalic.ttf
  4

  0
STYLE
  5
4E
330
5
100
AcDbSymbolTableRecord
100
AcDbTextStyleTableRecord
  2
LiberationSans
 70
0
 40
0.0
 41
1.0
 50
0.0
 71
0
 42
2.5
  3
LiberationSans-Regular.ttf
  4

  0
STYLE
  5
4F
330
5
100
AcDbSymbolTableRecord
100
AcDbTextStyleTableRecord
  2
LiberationSans-Bold
 70
0
 40
0.0
 41
1.0
 50
0.0
 71
0
 42
2.5
  3
LiberationSans-Bold.ttf
  4

  0
STYLE
  5
50
330
5
100
AcDbSymbolTableRecord
100
AcDbTextStyleTableRecord
  2
LiberationSans-BoldItalic
 70
0
 40
0.0
 41
1.0
 50
0.0
 71
0
 42
2.5
  3
LiberationSans-BoldItalic.ttf
  4

  0
STYLE
  5
51
330
5
100
AcDbSymbolTableRecord
100
AcDbTextStyleTableRecord
  2
LiberationSans-Italic
 70
0
 40
0.0
 41
1.0
 50
0.0
 71
0
 42
2.5
  3
LiberationSans-Italic.ttf
  4

  0
STYLE
  5
52
330
5
100
AcDbSymbolTableRecord
100
AcDbTextStyleTableRecord
  2
LiberationSerif
 70
0
 40
0.0
 41
1.0
 50
0.0
 71
0
 42
2.5
  3
LiberationSerif-Regular.ttf
  4

  0
STYLE
  5
53
330
5
100
AcDbSymbolTableRecord
100
AcDbTextStyleTableRecord
  2
LiberationSerif-Bold
 70
0
 40
0.0
 41
1.0
 50
0.0
 71
0
 42
2.5
  3
LiberationSerif-Bold.ttf
  4

  0
STYLE
  5
54
330
5
100
AcDbSymbolTableRecord
100
AcDbTextStyleTableRecord
  2
LiberationSerif-BoldItalic
 70
0
 40
0.0
 41
1.0
 50
0.0
 71
0
 42
2.5
  3
LiberationSerif-BoldItalic.ttf
  4

  0
STYLE
  5
55
330
5
100
AcDbSymbolTableRecord
100
AcDbTextStyleTableRecord
  2
LiberationSerif-Italic
 70
0
 40
0.0
 41
1.0
 50
0.0
 71
0
 42
2.5
  3
LiberationSerif-Italic.ttf
  4

  0
STYLE
  5
56
330
5
100
AcDbSymbolTableRecord
100
AcDbTextStyleTableRecord
  2
LiberationMono
 70
0
 40
0.0
 41
1.0
 50
0.0
 71
0
 42
2.5
  3
LiberationMono-Regular.ttf
  4

  0
STYLE
  5
57
330
5
100
AcDbSymbolTableRecord
100
AcDbTextStyleTableRecord
  2
LiberationMono-Bold
 70
0
 40
0.0
 41
1.0
 50
0.0
 71
0
 42
2.5
  3
LiberationMono-Bold.ttf
  4

  0
STYLE
  5
58
330
5
100
AcDbSymbolTableRecord
100
AcDbTextStyleTableRecord
  2
LiberationMono-BoldItalic
 70
0
 40
0.0
 41
1.0
 50
0.0
 71
0
 42
2.5
  3
LiberationMono-BoldItalic.ttf
  4

  0
STYLE
  5
59
330
5
100
AcDbSymbolTableRecord
100
AcDbTextStyleTableRecord
  2
LiberationMono-Italic
 70
0
 40
0.0
 41
1.0
 50
0.0
 71
0
 42
2.5
  3
LiberationMono-Italic.ttf
  4

  0
ENDTAB
  0
TABLE
  2
VIEW
  5
7
330
0
100
AcDbSymbolTable
 70
0
  0
ENDTAB
  0
TABLE
  2
UCS
  5
6
330
0
100
AcDbSymbolTable
 70
0
  0
ENDTAB
  0
TABLE
  2
APPID
  5
3
330
0
100
AcDbSymbolTable
 70
3
  0
APPID
  5
2A
330
3
100
AcDbSymbolTableRecord
100
AcDbRegAppTableRecord
  2
ACAD
 70
0
  0
APPID
  5
E2
330
3
100
AcDbSymbolTableRecord
100
AcDbRegAppTableRecord
  2
HATCHBACKGROUNDCOLOR
 70
0
  0
APPID
  5
E3
330
3
100
AcDbSymbolTableRecord
100
AcDbRegAppTableRecord
  2
EZDXF
 70
0
  0
ENDTAB
  0
TABLE
  2
DIMSTYLE
  5
4
330
0
100
AcDbSymbolTable
 70
12
100
AcDbDimStyleTable
  0
DIMSTYLE
105
2B
330
4
100
AcDbSymbolTableRecord
100
AcDbDimStyleTableRecord
  2
Standard
 70
0
 40
1.0
 41
2.5
 42
0.625
 43
3.75
 44
1.25
 45
0.0
 46
0.0
 47
0.0
 48
0.0
 49
2.5
140
2.5
141
2.5
142
0.0
143
0.03937007874
144
1.0
145
0.0
146
1.0
147
0.625
148
0.0
 69
0
 70
0
 71
0
 72
0
 73
0
 74
0
 75
0
 76
0
 77
1
 78
8
 79
3
170
0
171
3
172
1
173
0
174
0
175
0
176
0
177
0
178
0
179
2
271
2
272
2
273
2
274
3
275
0
276
0
277
2
278
44
279
0
280
0
281
0
282
0
283
0
284
8
285
0
286
0
288
0
289
3
290
0
371
-2
372
-2
  0
DIMSTYLE
105
73
330
4
100
AcDbSymbolTableRecord
100
AcDbDimStyleTableRecord
  2
EZDXF
 70
0
 40
1.0
 41
0.175
 42
0.125
 43
3.75
 44
0.375
 45
0.0
 46
0.0
 47
0.0
 48
0.0
 49
2.5
140
0.25
141
2.5
142
0.0
143
0.03937007874
144
100.0
145
0.0
146
0.5
147
0.1
148
0.0
 69
0
 70
0
 71
0
 72
0
 73
0
 74
0
 75
0
 76
0
 77
1
 78
12
 79
3
170
0
171
3
172
1
173
0
174
0
175
0
176
0
177
0
178
0
179
2
271
2
272
2
273
2
274
3
275
0
276
0
277
2
278
46
279
2
280
0
281
0
282
0
283
0
284
8
285
0
286
0
288
1
289
3
290
0
340
4C
342
74
371
-2
372
-2
  0
DIMSTYLE
105
7C
330
4
100
AcDbSymbolTableRecord
100
AcDbDimStyleTableRecord
  2
EZ_M_100_H25_CM
 70
0
 40
1.0
 41
0.25
 42
0.125
 43
3.75
 44
0.375
 45
0.0
 46
0.0
 47
0.0
 48
0.0
 49
2.5
140
0.25
141
2.5
142
0.125
143
0.03937007874
144
100.0
145
0.0
146
0.5
147
0.1
148
0.0
 69
0
 70
0
 71
0
 72
0
 73
0
 74
0
 75
0
 76
0
 77
1
 78
12
 79
3
170
0
171
3
172
1
173
0
174
0
175
0
176
0
177
0
178
0
179
2
271
2
272
2
273
2
274
3
275
0
276
0
277
2
278
46
279
2
280
0
281
0
282
0
283
0
284
8
285
0
286
0
288
1
289
3
290
0
340
4C
371
-2
372
-2
  0
DIMSTYLE
105
7D
330
4
100
AcDbSymbolTableRecord
100
AcDbDimStyleTableRecord
  2
EZ_M_50_H25_CM
 70
0
 40
1.0
 41
0.125
 42
0.0625
 43
3.75
 44
0.1875
 45
0.0
 46
0.0
 47
0.0
 48
0.0
 49
2.5
140
0.125
141
2.5
142
0.0625
143
0.03937007874
144
100.0
145
0.0
146
0.5
147
0.05
148
0.0
 69
0
 70
0
 71
0
 72
0
 73
0
 74
0
 75
0
 76
0
 77
1
 78
12
 79
3
170
0
171
3
172
1
173
0
174
0
175
0
176
0
177
0
178
0
179
2
271
2
272
2
273
2
274
3
275
0
276
0
277
2
278
46
279
2
280
0
281
0
282
0
283
0
284
8
285
0
286
0
288
1
289
3
290
0
340
4C
371
-2
372
-2
  0
DIMSTYLE
105
7E
330
4
100
AcDbSymbolTableRecord
100
AcDbDimStyleTableRecord
  2
EZ_M_25_H25_CM
 70
0
 40
1.0
 41
0.0625
 42
0.03125
 43
3.75
 44
0.09375
 45
0.0
 46
0.0
 47
0.0
 48
0.0
 49
2.5
140
0.0625
141
2.5
142
0.03125
143
0.03937007874
144
100.0
145
0.0
146
0.5
147
0.025
148
0.0
 69
0
 70
0
 71
0
 72
0
 73
0
 74
0
 75
0
 76
0
 77
1
 78
12
 79
3
170
0
171
3
172
1
173
0
174
0
175
0
176
0
177
0
178
0
179
2
271
2
272
2
273
2
274
3
275
0
276
0
277
2
278
46
279
2
280
0
281
0
282
0
283
0
284
8
285
0
286
0
288
1
289
3
290
0
340
4C
371
-2
372
-2
  0
DIMSTYLE
105
7F
330
4
100
AcDbSymbolTableRecord
100
AcDbDimStyleTableRecord
  2
EZ_M_20_H25_CM
 70
0
 40
1.0
 41
0.05
 42
0.025
 43
3.75
 44
0.07500000000000001
 45
0.0
 46
0.0
 47
0.0
 48
0.0
 49
2.5
140
0.05
141
2.5
142
0.025
143
0.03937007874
144
100.0
145
0.0
146
0.5
147
0.020000000000000004
148
0.0
 69
0
 70
0
 71
0
 72
0
 73
0
 74
0
 75
0
 76
0
 77
1
 78
12
 79
3
170
0
171
3
172
1
173
0
174
0
175
0
176
0
177
0
178
0
179
2
271
2
272
2
273
2
274
3
275
0
276
0
277
2
278
46
279
2
280
0
281
0
282
0
283
0
284
8
285
0
286
0
288
1
289
3
290
0
340
4C
371
-2
372
-2
  0
DIMSTYLE
105
80
330
4
100
AcDbSymbolTableRecord
100
AcDbDimStyleTableRecord
  2
EZ_M_10_H25_CM
 70
0
 40
1.0
 41
0.025
 42
0.0125
 43
3.75
 44
0.037500000000000006
 45
0.0
 46
0.0
 47
0.0
 48
0.0
 49
2.5
140
0.025
141
2.5
142
0.0125
143
0.03937007874
144
100.0
145
0.0
146
0.5
147
0.010000000000000002
148
0.0
 69
0
 70
0
 71
0
 72
0
 73
0
 74
0
 75
0
 76
0
 77
1
 78
12
 79
3
170
0
171
3
172
1
173
0
174
0
175
0
176
0
177
0
178
0
179
2
271
2
272
2
273
2
274
3
275
0
276
0
277
2
278
46
279
2
280
0
281
0
282
0
283
0
284
8
285
0
286
0
288
1
289
3
290
0
340
4C
371
-2
372
-2
  0
DIMSTYLE
105
81
330
4
100
AcDbSymbolTableRecord
100
AcDbDimStyleTableRecord
  2
EZ_M_5_H25_CM
 70
0
 40
1.0
 41
0.0125
 42
0.00625
 43
3.75
 44
0.018750000000000003
 45
0.0
 46
0.0
 47
0.0
 48
0.0
 49
2.5
140
0.0125
141
2.5
142
0.00625
143
0.03937007874
144
100.0
145
0.0
146
0.5
147
0.005000000000000001
148
0.0
 69
0
 70
0
 71
0
 72
0
 73
0
 74
0
 75
0
 76
0
 77
1
 78
12
 79
3
170
0
171
3
172
1
173
0
174
0
175
0
176
0
177
0
178
0
179
2
271
2
272
2
273
2
274
3
275
0
276
0
277
2
278
46
279
2
280
0
281
0
282
0
283
0
284
8
285
0
286
0
288
1
289
3
290
0
340
4C
371
-2
372
-2
  0
DIMSTYLE
105
82
330
4
100
AcDbSymbolTableRecord
100
AcDbDimStyleTableRecord
  2
EZ_M_1_H25_CM
 70
0
 40
1.0
 41
0.0025
 42
0.00125
 43
3.75
 44
0.00375
 45
0.0
 46
0.0
 47
0.0
 48
0.0
 49
2.5
140
0.0025
141
2.5
142
0.00125
143
0.03937007874
144
100.0
145
0.0
146
0.5
147
0.001
148
0.0
 69
0
 70
0
 71
0
 72
0
 73
0
 74
0
 75
0
 76
0
 77
1
 78
12
 79
3
170
0
171
3
172
1
173
0
174
0
175
0
176
0
177
0
178
0
179
2
271
2
272
2
273
2
274
3
275
0
276
0
277
2
278
46
279
2
280
0
281
0
282
0
283
0
284
8
285
0
286
0
288
1
289
3
290
0
340
4C
371
-2
372
-2
  0
DIMSTYLE
105
83
330
4
100
AcDbSymbolTableRecord
100
AcDbDimStyleTableRecord
  2
EZ_RADIUS
 70
0
 40
1.0
 41
0.25
 42
0.125
 43
3.75
 44
0.375
 45
0.0
 46
0.0
 47
0.0
 48
0.0
 49
2.5
140
0.25
141
0.0
142
0.0
143
0.03937007874
144
100.0
145
0.0
146
0.5
147
0.1
148
0.0
 69
0
 70
0
 71
0
 72
0
 73
0
 74
0
 75
0
 76
0
 77
1
 78
12
 79
3
170
0
171
3
172
0
173
0
174
0
175
0
176
0
177
0
178
0
179
2
271
2
272
2
273
2
274
3
275
0
276
0
277
2
278
46
279
1
280
0
281
0
282
0
283
0
284
8
285
0
286
0
288
1
289
3
290
0
340
4C
342
84
371
-2
372
-2
  0
DIMSTYLE
105
88
330
4
100
AcDbSymbolTableRecord
100
AcDbDimStyleTableRecord
  2
EZ_RADIUS_INSIDE
 70
0
 40
1.0
 41
0.25
 42
0.125
 43
3.75
 44
0.375
 45
0.0
 46
0.0
 47
0.0
 48
0.0
 49
2.5
140
0.25
141
0.0
142
0.0
143
0.03937007874
144
100.0
145
0.0
146
0.5
147
0.1
148
0.0
 69
0
 70
0
 71
0
 72
0
 73
0
 74
0
 75
0
 76
0
 77
0
 78
12
 79
3
170
0
171
3
172
0
173
0
174
1
175
0
176
0
177
0
178
0
179
2
271
2
272
2
273
2
274
3
275
0
276
0
277
2
278
46
279
0
280
0
281
0
282
0
283
0
284
8
285
0
286
0
288
1
289
0
290
0
340
4C
342
84
371
-2
372
-2
  0
DIMSTYLE
105
89
330
4
100
AcDbSymbolTableRecord
100
AcDbDimStyleTableRecord
  2
EZ_CURVED
 70
0
 40
1.0
 41
0.25
 42
0.125
 43
3.75
 44
0.375
 45
0.0
 46
0.0
 47
0.0
 48
0.0
 49
2.5
140
0.25
141
2.5
142
0.0
143
0.03937007874
144
100.0
145
0.0
146
0.5
147
0.1
148
0.0
 69
0
 70
0
 71
0
 72
0
 73
0
 74
0
 75
0
 76
0
 77
1
 78
12
 79
2
 90
2
170
0
171
3
172
1
173
0
174
0
175
0
176
0
177
0
178
0
179
2
271
2
272
2
273
2
274
3
275
0
276
0
277
2
278
46
279
2
280
0
281
0
282
0
283
0
284
8
285
0
286
0
288
1
289
3
290
0
340
4C
371
-2
372
-2
  0
ENDTAB
  0
TABLE
  2
BLOCK_RECORD
  5
9
330
0
100
AcDbSymbolTable
 70
5
  0
BLOCK_RECORD
  5
17
330
9
100
AcDbSymbolTableRecord
100
AcDbBlockTableRecord
  2
*Model_Space
340
1A
 70
0
280
1
281
0
  0
BLOCK_RECORD
  5
1B
330
9
100
AcDbSymbolTableRecord
100
AcDbBlockTableRecord
  2
*Paper_Space
340
1E
 70
0
280
1
281
0
  0
BLOCK_RECORD
  5
74
330
9
100
AcDbSymbolTableRecord
100
AcDbBlockTableRecord
  2
_ARCHTICK
340
0
 70
0
280
1
281
0
  0
BLOCK_RECORD
  5
78
330
9
100
AcDbSymbolTableRecord
100
AcDbBlockTableRecord
  2
_CLOSEDFILLED
340
0
 70
0
280
1
281
0
  0
BLOCK_RECORD
  5
84
330
9
100
AcDbSymbolTableRecord
100
AcDbBlockTableRecord
  2
_CLOSEDBLANK
340
0
 70
0
280
1
281
0
  0
ENDTAB
  0
ENDSEC
  0
SECTION
  2
BLOCKS
  0
BLOCK
  5
18
330
17
100
AcDbEntity
  8
0
100
AcDbBlockBegin
  2
*Model_Space
 70
0
 10
0.0
 20
0.0
 30
0.0
  3
*Model_Space
  1

  0
ENDBLK
  5
19
330
17
100
AcDbEntity
  8
0
100
AcDbBlockEnd
  0
BLOCK
  5
1C
330
1B
100
AcDbEntity
  8
0
100
AcDbBlockBegin
  2
*Paper_Space
 70
0
 10
0.0
 20
0.0
 30
0.0
  3
*Paper_Space
  1

  0
ENDBLK
  5
1D
330
1B
100
AcDbEntity
  8
0
100
AcDbBlockEnd
  0
BLOCK
  5
75
330
74
100
AcDbEntity
  8
0
100
AcDbBlockBegin
  2
_ARCHTICK
 70
0
 10
0.0
 20
0.0
 30
0.0
  3
_ARCHTICK
  1

  0
LWPOLYLINE
  5
77
330
74
100
AcDbEntity
  8
0
  6
BYBLOCK
 62
0
100
AcDbPolyline
 90
2
 70
0
 43
0.15
 10
-0.5
 20
-0.5
 10
0.5
 20
0.5
  0
ENDBLK
  5
76
330
74
100
AcDbEntity
  8
0
100
AcDbBlockEnd
  0
BLOCK
  5
79
330
78
100
AcDbEntity
  8
0
100
AcDbBlockBegin
  2
_CLOSEDFILLED
 70
0
 10
0.0
 20
0.0
 30
0.0
  3
_CLOSEDFILLED
  1

  0
SOLID
  5
7B
330
78
100
AcDbEntity
  8
0
  6
BYBLOCK
 62
0
100
AcDbTrace
 10
-1.0
 20
0.16439898372402537
 30
0.0
 11
0.0
 21
0.0
 31
0.0
 12
-1.0
 22
-0.16439898372402537
 32
0.0
 13
-1.0
 23
-0.16439898372402537
 33
0.0
  0
ENDBLK
  5
7A
330
78
100
AcDbEntity
  8
0
100
AcDbBlockEnd
  0
BLOCK
  5
85
330
84
100
AcDbEntity
  8
0
100
AcDbBlockBegin
  2
_CLOSEDBLANK
 70
0
 10
0.0
 20
0.0
 30
0.0
  3
_CLOSEDBLANK
  1

  0
LWPOLYLINE
  5
87
330
84
100
AcDbEntity
  8
0
  6
BYBLOCK
 62
0
100
AcDbPolyline
 90
3
 70
1
 10
-1.0
 20
0.16439898372402537
 10
0.0
 20
0.0
 10
-1.0
 20
-0.16439898372402537
  0
ENDBLK
  5
86
330
84
100
AcDbEntity
  8
0
100
AcDbBlockEnd
  0
ENDSEC
  0
SECTION
  2
ENTITIES
  0
CIRCLE
  5
8C
330
17
100
AcDbEntity
  8
KESIM
100
AcDbCircle
 10
0.0
 20
0.0
 30
0.0
 40
14.25
  0
CIRCLE
  5
8D
330
17
100
AcDbEntity
  8
KESIM
100
AcDbCircle
 10
-9.541305298704166e-18
 20
2.8009414288037575e-17
 30
0.0
 40
1.0499950585000548
  0
LWPOLYLINE
  5
8E
330
17
100
AcDbEntity
  8
KESIM
100
AcDbPolyline
 90
68
 70
1
 10
12.0
 20
-0.5
 10
11.9976
 20
-0.549
 10
11.9904
 20
-0.5975
 10
11.9785
 20
-0.6451
 10
11.9619
 20
-0.6913
 10
11.941
 20
-0.7357
 10
11.9157
 20
-0.7778
 10
11.8865
 20
-0.8172
 10
11.8536
 20
-0.8536
 10
11.8172
 20
-0.8865
 10
11.7778
 20
-0.9157
 10
11.7357
 20
-0.941
 10
11.6913
 20
-0.9619
 10
11.6451
 20
-0.9785
 10
11.5975
 20
-0.9904
 10
11.549
 20
-0.9976
 10
11.5
 20
-1.0
 10
9.6
 20
-1.0
 10
9.551
 20
-0.9976
 10
9.5025
 20
-0.9904
 10
9.4549
 20
-0.9785
 10
9.4087
 20
-0.9619
 10
9.3643
 20
-0.941
 10
9.3222
 20
-0.9157
 10
9.2828
 20
-0.8865
 10
9.2464
 20
-0.8536
 10
9.2135
 20
-0.8172
 10
9.1843
 20
-0.7778
 10
9.159
 20
-0.7357
 10
9.1381
 20
-0.6913
 10
9.1215
 20
-0.6451
 10
9.1096
 20
-0.5975
 10
9.1024
 20
-0.549
 10
9.1
 20
-0.5
 10
9.1
 20
0.5
 10
9.1024
 20
0.549
 10
9.1096
 20
0.5975
 10
9.1215
 20
0.6451
 10
9.1381
 20
0.6913
 10
9.159
 20
0.7357
 10
9.1843
 20
0.7778
 10
9.2135
 20
0.8172
 10
9.2464
 20
0.8536
 10
9.2828
 20
0.8865
 10
9.3222
 20
0.9157
 10
9.3643
 20
0.941
 10
9.4087
 20
0.9619
 10
9.4549
 20
0.9785
 10
9.5025
 20
0.9904
 10
9.551
 20
0.9976
 10
9.6
 20
1.0
 10
11.5
 20
1.0
 10
11.549
 20
0.9976
 10
11.5975
 20
0.9904
 10
11.6451
 20
0.9785
 10
11.6913
 20
0.9619
 10
11.7357
 20
0.941
 10
11.7778
 20
0.9157
 10
11.8172
 20
0.8865
 10
11.8536
 20
0.8536
 10
11.8865
 20
0.8172
 10
11.9157
 20
0.7778
 10
11.941
 20
0.7357
 10
11.9619
 20
0.6913
 10
11.9785
 20
0.6451
 10
11.9904
 20
0.5975
 10
11.9976
 20
0.549
 10
12.0
 20
0.5
  0
LWPOLYLINE
  5
8F
330
17
100
AcDbEntity
  8
ALTIN
100
AcDbPolyline
 90
4
 70
1
 10
-6.1861
 20
-10.9546
 10
-6.5461
 20
-11.5781
 10
-6.7539
 20
-11.4581
 10
-6.3939
 20
-10.8346
  0
LWPOLYLINE
  5
90
330
17
100
AcDbEntity
  8
ALTIN
100
AcDbPolyline
 90
4
 70
1
 10
-7.4042
 20
-10.3186
 10
-7.7569
 20
-10.804
 10
-7.8782
 20
-10.7158
 10
-7.5255
 20
-10.2304
  0
LWPOLYLINE
  5
91
330
17
100
AcDbEntity
  8
ALTIN
100
AcDbPolyline
 90
4
 70
1
 10
-8.4422
 20
-9.4881
 10
-8.8437
 20
-9.934
 10
-8.9552
 20
-9.8336
 10
-8.5537
 20
-9.3878
  0
LWPOLYLINE
  5
92
330
17
100
AcDbEntity
  8
ALTIN
100
AcDbPolyline
 90
4
 70
1
 10
-9.3878
 20
-8.5537
 10
-9.8336
 20
-8.9552
 10
-9.934
 20
-8.8437
 10
-9.4881
 20
-8.4422
  0
LWPOLYLINE
  5
93
330
17
100
AcDbEntity
  8
ALTIN
100
AcDbPolyline
 90
4
 70
1
 10
-10.2304
 20
-7.5255
 10
-10.7158
 20
-7.8782
 10
-10.804
 20
-7.7569
 10
-10.3186
 20
-7.4042
  0
LWPOLYLINE
  5
94
330
17
100
AcDbEntity
  8
ALTIN
100
AcDbPolyline
 90
4
 70
1
 10
-10.8346
 20
-6.3939
 10
-11.4581
 20
-6.7539
 10
-11.5781
 20
-6.5461
 10
-10.9546
 20
-6.1861
  0
LWPOLYLINE
  5
95
330
17
100
AcDbEntity
  8
ALTIN
100
AcDbPolyline
 90
4
 70
1
 10
-10.6522
 20
-5.8498
 10
-9.0068
 20
-4.8998
 10
-8.7468
 20
-5.3502
 10
-10.3922
 20
-6.3002
  0
LWPOLYLINE
  5
96
330
17
100
AcDbEntity
  8
ALTIN
100
AcDbPolyline
 90
4
 70
1
 10
-12.1196
 20
-5.4781
 10
-12.1807
 20
-5.3411
 10
-11.6325
 20
-5.097
 10
-11.5715
 20
-5.2341
  0
LWPOLYLINE
  5
97
330
17
100
AcDbEntity
  8
ALTIN
100
AcDbPolyline
 90
4
 70
1
 10
-12.6259
 20
-4.1813
 10
-12.6722
 20
-4.0386
 10
-12.1016
 20
-3.8532
 10
-12.0552
 20
-3.9958
  0
LWPOLYLINE
  5
98
330
17
100
AcDbEntity
  8
ALTIN
100
AcDbPolyline
 90
4
 70
1
 10
-12.4069
 20
-2.7138
 10
-12.9938
 20
-2.8386
 10
-13.025
 20
-2.6919
 10
-12.4381
 20
-2.5671
  0
LWPOLYLINE
  5
99
330
17
100
AcDbEntity
  8
ALTIN
100
AcDbPolyline
 90
4
 70
1
 10
-12.6226
 20
-1.4021
 10
-13.2193
 20
-1.4648
 10
-13.235
 20
-1.3156
 10
-12.6383
 20
-1.2529
  0
LWPOLYLINE
  5
9A
330
17
100
AcDbEntity
  8
ALTIN
100
AcDbPolyline
 90
4
 70
1
 10
-12.58
 20
-0.12
 10
-13.3
 20
-0.12
 10
-13.3
 20
0.12
 10
-12.58
 20
0.12
  0
LWPOLYLINE
  5
9B
330
17
100
AcDbEntity
  8
ALTIN
100
AcDbPolyline
 90
30
 70
1
 10
-11.5625
 20
0.19
 10
-11.5762
 20
0.3443
 10
-11.5484
 20
0.5768
 10
-11.4652
 20
0.7732
 10
-11.3354
 20
0.931
 10
-11.1679
 20
1.0479
 10
-10.9702
 20
1.1202
 10
-10.75
 20
1.1443
 10
-10.5298
 20
1.1202
 10
-10.3321
 20
1.0479
 10
-10.1646
 20
0.931
 10
-10.0348
 20
0.7732
 10
-9.9516
 20
0.5768
 10
-9.9238
 20
0.3443
 10
-9.9375
 20
0.193
 10
-9.9786
 20
0.0545
 10
-10.0397
 20
-0.0714
 10
-10.1137
 20
-0.1861
 10
-10.8304
 20
-1.1443
 10
-11.3125
 20
-1.1443
 10
-10.6654
 20
-0.3429
 10
-10.7003
 20
-0.3598
 10
-10.7924
 20
-0.3791
 10
-10.8982
 20
-0.3855
 10
-11.0292
 20
-0.3727
 10
-11.1533
 20
-0.3342
 10
-11.2678
 20
-0.271
 10
-11.3703
 20
-0.1846
 10
-11.4563
 20
-0.0773
 10
-11.5214
 20
0.0485
  0
LWPOLYLINE
  5
9C
330
17
100
AcDbEntity
  8
ALTIN
100
AcDbPolyline
 90
24
 70
1
 10
-11.2035
 20
0.3443
 10
-11.1887
 20
0.2138
 10
-11.1443
 20
0.0997
 10
-11.0737
 20
0.0049
 10
-10.9815
 20
-0.0676
 10
-10.8722
 20
-0.1131
 10
-10.75
 20
-0.1283
 10
-10.628
 20
-0.1131
 10
-10.519
 20
-0.0676
 10
-10.4269
 20
0.0049
 10
-10.3568
 20
0.0997
 10
-10.3119
 20
0.2138
 10
-10.297
 20
0.3443
 10
-10.3119
 20
0.474
 10
-10.3568
 20
0.5869
 10
-10.4269
 20
0.68
 10
-10.519
 20
0.7506
 10
-10.628
 20
0.7954
 10
-10.75
 20
0.8104
 10
-10.8722
 20
0.7954
 10
-10.9815
 20
0.7506
 10
-11.0737
 20
0.68
 10
-11.1443
 20
0.5869
 10
-11.1887
 20
0.474
  0
LWPOLYLINE
  5
9D
330
17
100
AcDbEntity
  8
ALTIN
100
AcDbPolyline
 90
4
 70
1
 10
-12.6383
 20
1.2529
 10
-13.235
 20
1.3156
 10
-13.2193
 20
1.4648
 10
-12.6226
 20
1.4021
  0
LWPOLYLINE
  5
9E
330
17
100
AcDbEntity
  8
ALTIN
100
AcDbPolyline
 90
4
 70
1
 10
-12.4381
 20
2.5671
 10
-13.025
 20
2.6919
 10
-12.9938
 20
2.8386
 10
-12.4069
 20
2.7138
  0
LWPOLYLINE
  5
9F
330
17
100
AcDbEntity
  8
ALTIN
100
AcDbPolyline
 90
4
 70
1
 10
-12.1016
 20
3.8532
 10
-12.6722
 20
4.0386
 10
-12.6259
 20
4.1813
 10
-12.0552
 20
3.9958
  0
LWPOLYLINE
  5
A0
330
17
100
AcDbEntity
  8
ALTIN
100
AcDbPolyline
 90
4
 70
1
 10
-12.1807
 20
5.3411
 10
-12.1196
 20
5.4781
 10
-11.5715
 20
5.2341
 10
-11.6325
 20
5.097
  0
LWPOLYLINE
  5
A1
330
17
100
AcDbEntity
  8
ALTIN
100
AcDbPolyline
 90
4
 70
1
 10
-8.7468
 20
5.3502
 10
-9.0068
 20
4.8998
 10
-10.6522
 20
5.8498
 10
-10.3922
 20
6.3002
  0
LWPOLYLINE
  5
A2
330
17
100
AcDbEntity
  8
ALTIN
100
AcDbPolyline
 90
4
 70
1
 10
-10.9546
 20
6.1861
 10
-11.5781
 20
6.5461
 10
-11.4581
 20
6.7539
 10
-10.8346
 20
6.3939
  0
LWPOLYLINE
  5
A3
330
17
100
AcDbEntity
  8
ALTIN
100
AcDbPolyline
 90
4
 70
1
 10
-10.3186
 20
7.4042
 10
-10.804
 20
7.7569
 10
-10.7158
 20
7.8782
 10
-10.2304
 20
7.5255
  0
LWPOLYLINE
  5
A4
330
17
100
AcDbEntity
  8
ALTIN
100
AcDbPolyline
 90
4
 70
1
 10
-9.4881
 20
8.4422
 10
-9.934
 20
8.8437
 10
-9.8336
 20
8.9552
 10
-9.3878
 20
8.5537
  0
LWPOLYLINE
  5
A5
330
17
100
AcDbEntity
  8
ALTIN
100
AcDbPolyline
 90
4
 70
1
 10
-8.5537
 20
9.3878
 10
-8.9552
 20
9.8336
 10
-8.8437
 20
9.934
 10
-8.4422
 20
9.4881
  0
LWPOLYLINE
  5
A6
330
17
100
AcDbEntity
  8
ALTIN
100
AcDbPolyline
 90
4
 70
1
 10
-7.5255
 20
10.2304
 10
-7.8782
 20
10.7158
 10
-7.7569
 20
10.804
 10
-7.4042
 20
10.3186
  0
LWPOLYLINE
  5
A7
330
17
100
AcDbEntity
  8
ALTIN
100
AcDbPolyline
 90
4
 70
1
 10
-6.3939
 20
10.8346
 10
-6.7539
 20
11.4581
 10
-6.5461
 20
11.5781
 10
-6.1861
 20
10.9546
  0
LWPOLYLINE
  5
A8
330
17
100
AcDbEntity
  8
ALTIN
100
AcDbPolyline
 90
4
 70
1
 10
0.12
 20
-12.58
 10
0.12
 20
-13.3
 10
-0.12
 20
-13.3
 10
-0.12
 20
-12.58
  0
LWPOLYLINE
  5
A9
330
17
100
AcDbEntity
  8
ALTIN
100
AcDbPolyline
 90
4
 70
1
 10
1.4648
 20
-13.2193
 10
1.3156
 20
-13.235
 10
1.2529
 20
-12.6383
 10
1.4021
 20
-12.6226
  0
LWPOLYLINE
  5
AA
330
17
100
AcDbEntity
  8
ALTIN
100
AcDbPolyline
 90
4
 70
1
 10
-1.3156
 20
-13.235
 10
-1.4648
 20
-13.2193
 10
-1.4021
 20
-12.6226
 10
-1.2529
 20
-12.6383
  0
LWPOLYLINE
  5
AB
330
17
100
AcDbEntity
  8
ALTIN
100
AcDbPolyline
 90
4
 70
1
 10
2.7138
 20
-12.4069
 10
2.8386
 20
-12.9938
 10
2.6919
 20
-13.025
 10
2.5671
 20
-12.4381
  0
LWPOLYLINE
  5
AC
330
17
100
AcDbEntity
  8
ALTIN
100
AcDbPolyline
 90
4
 70
1
 10
-2.5671
 20
-12.4381
 10
-2.6919
 20
-13.025
 10
-2.8386
 20
-12.9938
 10
-2.7138
 20
-12.4069
  0
LWPOLYLINE
  5
AD
330
17
100
AcDbEntity
  8
ALTIN
100
AcDbPolyline
 90
4
 70
1
 10
-3.8532
 20
-12.1016
 10
-4.0386
 20
-12.6722
 10
-4.1813
 20
-12.6259
 10
-3.9958
 20
-12.0552
  0
LWPOLYLINE
  5
AE
330
17
100
AcDbEntity
  8
ALTIN
100
AcDbPolyline
 90
4
 70
1
 10
3.9958
 20
-12.0552
 10
4.1813
 20
-12.6259
 10
4.0386
 20
-12.6722
 10
3.8532
 20
-12.1016
  0
LWPOLYLINE
  5
AF
330
17
100
AcDbEntity
  8
ALTIN
100
AcDbPolyline
 90
4
 70
1
 10
5.2341
 20
-11.5715
 10
5.4781
 20
-12.1196
 10
5.3411
 20
-12.1807
 10
5.097
 20
-11.6325
  0
LWPOLYLINE
  5
B0
330
17
100
AcDbEntity
  8
ALTIN
100
AcDbPolyline
 90
4
 70
1
 10
-5.097
 20
-11.6325
 10
-5.3411
 20
-12.1807
 10
-5.4781
 20
-12.1196
 10
-5.2341
 20
-11.5715
  0
LWPOLYLINE
  5
B1
330
17
100
AcDbEntity
  8
ALTIN
100
AcDbPolyline
 90
30
 70
1
 10
0.7984
 20
-11.1262
 10
0.7152
 20
-11.3232
 10
0.5854
 20
-11.4818
 10
0.4179
 20
-11.5979
 10
0.2202
 20
-11.6691
 10
0.0
 20
-11.6928
 10
-0.2202
 20
-11.6691
 10
-0.4179
 20
-11.5979
 10
-0.5854
 20
-11.4818
 10
-0.7152
 20
-11.3232
 10
-0.7984
 20
-11.1262
 10
-0.8262
 20
-10.8958
 10
-0.813
 20
-10.7442
 10
-0.7734
 20
-10.605
 10
-0.7125
 20
-10.4783
 10
-0.6363
 20
-10.3654
 10
0.0768
 20
-9.4072
 10
0.559
 20
-9.4072
 10
-0.0874
 20
-10.2084
 10
-0.0517
 20
-10.1902
 10
0.0401
 20
-10.1694
 10
0.1477
 20
-10.1625
 10
0.2772
 20
-10.1758
 10
0.4018
 20
-10.2158
 10
0.517
 20
-10.2802
 10
0.6188
 20
-10.3669
 10
0.704
 20
-10.4742
 10
0.7699
 20
-10.6
 10
0.8121
 20
-10.7415
 10
0.8262
 20
-10.8958
  0
LWPOLYLINE
  5
B2
330
17
100
AcDbEntity
  8
ALTIN
100
AcDbPolyline
 90
24
 70
1
 10
0.453
 20
-10.8958
 10
0.4381
 20
-10.765
 10
0.3932
 20
-10.6497
 10
0.3231
 20
-10.5543
 10
0.231
 20
-10.483
 10
0.122
 20
-10.4381
 10
0.0
 20
-10.4232
 10
-0.1222
 20
-10.4381
 10
-0.2315
 20
-10.483
 10
-0.3237
 20
-10.5543
 10
-0.3943
 20
-10.6497
 10
-0.4387
 20
-10.765
 10
-0.4535
 20
-10.8958
 10
-0.4387
 20
-11.0251
 10
-0.3943
 20
-11.1369
 10
-0.3237
 20
-11.2286
 10
-0.2315
 20
-11.2991
 10
-0.1222
 20
-11.3435
 10
0.0
 20
-11.3583
 10
0.122
 20
-11.3435
 10
0.231
 20
-11.2991
 10
0.3231
 20
-11.2286
 10
0.3932
 20
-11.1369
 10
0.4381
 20
-11.0251
  0
LWPOLYLINE
  5
B3
330
17
100
AcDbEntity
  8
ALTIN
100
AcDbPolyline
 90
4
 70
1
 10
-5.3502
 20
-8.7468
 10
-4.8998
 20
-9.0068
 10
-5.8498
 20
-10.6522
 10
-6.3002
 20
-10.3922
  0
LWPOLYLINE
  5
B4
330
17
100
AcDbEntity
  8
ALTIN
100
AcDbPolyline
 90
4
 70
1
 10
-4.8998
 20
9.0068
 10
-5.3502
 20
8.7468
 10
-6.3002
 20
10.3922
 10
-5.8498
 20
10.6522
  0
LWPOLYLINE
  5
B5
330
17
100
AcDbEntity
  8
ALTIN
100
AcDbPolyline
 90
4
 70
1
 10
6.3002
 20
10.3922
 10
5.3502
 20
8.7468
 10
4.8998
 20
9.0068
 10
5.8498
 20
10.6522
  0
LWPOLYLINE
  5
B6
330
17
100
AcDbEntity
  8
ALTIN
100
AcDbPolyline
 90
6
 70
1
 10
-1.3518
 20
11.1283
 10
-1.3518
 20
11.4884
 10
-0.4548
 20
11.6908
 10
-0.4548
 20
9.4057
 10
-0.828
 20
9.4057
 10
-0.828
 20
11.273
  0
LWPOLYLINE
  5
B7
330
17
100
AcDbEntity
  8
ALTIN
100
AcDbPolyline
 90
44
 70
1
 10
0.7775
 20
11.2872
 10
0.712
 20
11.3227
 10
0.6356
 20
11.3457
 10
0.5482
 20
11.3533
 10
0.4285
 20
11.3385
 10
0.3263
 20
11.2941
 10
0.2438
 20
11.2215
 10
0.1831
 20
11.1223
 10
0.1458
 20
11.0009
 10
0.1334
 20
10.8616
 10
-0.2428
 20
10.8616
 10
-0.2199
 20
11.0894
 10
-0.1514
 20
11.2905
 10
-0.0375
 20
11.4587
 10
0.1203
 20
11.5864
 10
0.319
 20
11.6673
 10
0.5543
 20
11.6943
 10
0.7377
 20
11.6786
 10
0.8953
 20
11.6316
 10
1.0274
 20
11.5595
 10
1.1343
 20
11.4688
 10
1.2176
 20
11.3645
 10
1.2775
 20
11.2504
 10
1.3136
 20
11.1333
 10
1.3257
 20
11.0193
 10
1.304
 20
10.8457
 10
1.2388
 20
10.6783
 10
1.1395
 20
10.5234
 10
1.0143
 20
10.386
 10
0.3775
 20
9.7592
 10
1.3518
 20
9.7592
 10
1.3518
 20
9.4057
 10
-0.3648
 20
9.4057
 10
0.6768
 20
10.5015
 10
0.7515
 20
10.5868
 10
0.8149
 20
10.6688
 10
0.8654
 20
10.7491
 10
0.9013
 20
10.8295
 10
0.9232
 20
10.9122
 10
0.9304
 20
10.9997
 10
0.9244
 20
11.0637
 10
0.9063
 20
11.1268
 10
0.8758
 20
11.1867
 10
0.8325
 20
11.2408
  0
LWPOLYLINE
  5
B8
330
17
100
AcDbEntity
  8
ALTIN
100
AcDbPolyline
 90
4
 70
1
 10
5.097
 20
11.6325
 10
5.3411
 20
12.1807
 10
5.4781
 20
12.1196
 10
5.2341
 20
11.5715
  0
LWPOLYLINE
  5
B9
330
17
100
AcDbEntity
  8
ALTIN
100
AcDbPolyline
 90
4
 70
1
 10
-5.2341
 20
11.5715
 10
-5.4781
 20
12.1196
 10
-5.3411
 20
12.1807
 10
-5.097
 20
11.6325
  0
LWPOLYLINE
  5
BA
330
17
100
AcDbEntity
  8
ALTIN
100
AcDbPolyline
 90
4
 70
1
 10
-3.9958
 20
12.0552
 10
-4.1813
 20
12.6259
 10
-4.0386
 20
12.6722
 10
-3.8532
 20
12.1016
  0
LWPOLYLINE
  5
BB
330
17
100
AcDbEntity
  8
ALTIN
100
AcDbPolyline
 90
4
 70
1
 10
3.8532
 20
12.1016
 10
4.0386
 20
12.6722
 10
4.1813
 20
12.6259
 10
3.9958
 20
12.0552
  0
LWPOLYLINE
  5
BC
330
17
100
AcDbEntity
  8
ALTIN
100
AcDbPolyline
 90
4
 70
1
 10
-2.8386
 20
12.9938
 10
-2.6919
 20
13.025
 10
-2.5671
 20
12.4381
 10
-2.7138
 20
12.4069
  0
LWPOLYLINE
  5
BD
330
17
100
AcDbEntity
  8
ALTIN
100
AcDbPolyline
 90
4
 70
1
 10
2.6919
 20
13.025
 10
2.8386
 20
12.9938
 10
2.7138
 20
12.4069
 10
2.5671
 20
12.4381
  0
LWPOLYLINE
  5
BE
330
17
100
AcDbEntity
  8
ALTIN
100
AcDbPolyline
 90
4
 70
1
 10
1.2529
 20
12.6383
 10
1.3156
 20
13.235
 10
1.4648
 20
13.2193
 10
1.4021
 20
12.6226
  0
LWPOLYLINE
  5
BF
330
17
100
AcDbEntity
  8
ALTIN
100
AcDbPolyline
 90
4
 70
1
 10
-1.4021
 20
12.6226
 10
-1.4648
 20
13.2193
 10
-1.3156
 20
13.235
 10
-1.2529
 20
12.6383
  0
LWPOLYLINE
  5
C0
330
17
100
AcDbEntity
  8
ALTIN
100
AcDbPolyline
 90
4
 70
1
 10
-0.12
 20
12.58
 10
-0.12
 20
13.3
 10
0.12
 20
13.3
 10
0.12
 20
12.58
  0
LWPOLYLINE
  5
C1
330
17
100
AcDbEntity
  8
ALTIN
100
AcDbPolyline
 90
4
 70
1
 10
6.3939
 20
-10.8346
 10
6.7539
 20
-11.4581
 10
6.5461
 20
-11.5781
 10
6.1861
 20
-10.9546
  0
LWPOLYLINE
  5
C2
330
17
100
AcDbEntity
  8
ALTIN
100
AcDbPolyline
 90
4
 70
1
 10
7.5255
 20
-10.2304
 10
7.8782
 20
-10.7158
 10
7.7569
 20
-10.804
 10
7.4042
 20
-10.3186
  0
LWPOLYLINE
  5
C3
330
17
100
AcDbEntity
  8
ALTIN
100
AcDbPolyline
 90
4
 70
1
 10
5.8498
 20
-10.6522
 10
4.8998
 20
-9.0068
 10
5.3502
 20
-8.7468
 10
6.3002
 20
-10.3922
  0
LWPOLYLINE
  5
C4
330
17
100
AcDbEntity
  8
ALTIN
100
AcDbPolyline
 90
4
 70
1
 10
8.5537
 20
-9.3878
 10
8.9552
 20
-9.8336
 10
8.8437
 20
-9.934
 10
8.4422
 20
-9.4881
  0
LWPOLYLINE
  5
C5
330
17
100
AcDbEntity
  8
ALTIN
100
AcDbPolyline
 90
4
 70
1
 10
9.934
 20
-8.8437
 10
9.8336
 20
-8.9552
 10
9.3878
 20
-8.5537
 10
9.4881
 20
-8.4422
  0
LWPOLYLINE
  5
C6
330
17
100
AcDbEntity
  8
ALTIN
100
AcDbPolyline
 90
4
 70
1
 10
10.804
 20
-7.7569
 10
10.7158
 20
-7.8782
 10
10.2304
 20
-7.5255
 10
10.3186
 20
-7.4042
  0
LWPOLYLINE
  5
C7
330
17
100
AcDbEntity
  8
ALTIN
100
AcDbPolyline
 90
4
 70
1
 10
10.9546
 20
-6.1861
 10
11.5781
 20
-6.5461
 10
11.4581
 20
-6.7539
 10
10.8346
 20
-6.3939
  0
LWPOLYLINE
  5
C8
330
17
100
AcDbEntity
  8
ALTIN
100
AcDbPolyline
 90
4
 70
1
 10
10.3922
 20
-6.3002
 10
8.7468
 20
-5.3502
 10
9.0068
 20
-4.8998
 10
10.6522
 20
-5.8498
  0
LWPOLYLINE
  5
C9
330
17
100
AcDbEntity
  8
ALTIN
100
AcDbPolyline
 90
4
 70
1
 10
11.6325
 20
-5.097
 10
12.1807
 20
-5.3411
 10
12.1196
 20
-5.4781
 10
11.5715
 20
-5.2341
  0
LWPOLYLINE
  5
CA
330
17
100
AcDbEntity
  8
ALTIN
100
AcDbPolyline
 90
4
 70
1
 10
12.1016
 20
-3.8532
 10
12.6722
 20
-4.0386
 10
12.6259
 20
-4.1813
 10
12.0552
 20
-3.9958
  0
LWPOLYLINE
  5
CB
330
17
100
AcDbEntity
  8
ALTIN
100
AcDbPolyline
 90
4
 70
1
 10
12.4381
 20
-2.5671
 10
13.025
 20
-2.6919
 10
12.9938
 20
-2.8386
 10
12.4069
 20
-2.7138
  0
LWPOLYLINE
  5
CC
330
17
100
AcDbEntity
  8
ALTIN
100
AcDbPolyline
 90
4
 70
1
 10
12.6383
 20
-1.2529
 10
13.235
 20
-1.3156
 10
13.2193
 20
-1.4648
 10
12.6226
 20
-1.4021
  0
LWPOLYLINE
  5
CD
330
17
100
AcDbEntity
  8
ALTIN
100
AcDbPolyline
 90
4
 70
1
 10
12.58
 20
0.12
 10
13.3
 20
0.12
 10
13.3
 20
-0.12
 10
12.58
 20
-0.12
  0
LWPOLYLINE
  5
CE
330
17
100
AcDbEntity
  8
ALTIN
100
AcDbPolyline
 90
4
 70
1
 10
13.2193
 20
1.4648
 10
13.235
 20
1.3156
 10
12.6383
 20
1.2529
 10
12.6226
 20
1.4021
  0
LWPOLYLINE
  5
CF
330
17
100
AcDbEntity
  8
ALTIN
100
AcDbPolyline
 90
4
 70
1
 10
12.9938
 20
2.8386
 10
13.025
 20
2.6919
 10
12.4381
 20
2.5671
 10
12.4069
 20
2.7138
  0
LWPOLYLINE
  5
D0
330
17
100
AcDbEntity
  8
ALTIN
100
AcDbPolyline
 90
4
 70
1
 10
12.0552
 20
3.9958
 10
12.6259
 20
4.1813
 10
12.6722
 20
4.0386
 10
12.1016
 20
3.8532
  0
LWPOLYLINE
  5
D1
330
17
100
AcDbEntity
  8
ALTIN
100
AcDbPolyline
 90
4
 70
1
 10
11.5715
 20
5.2341
 10
12.1196
 20
5.4781
 10
12.1807
 20
5.3411
 10
11.6325
 20
5.097
  0
LWPOLYLINE
  5
D2
330
17
100
AcDbEntity
  8
ALTIN
100
AcDbPolyline
 90
4
 70
1
 10
10.6522
 20
5.8498
 10
9.0068
 20
4.8998
 10
8.7468
 20
5.3502
 10
10.3922
 20
6.3002
  0
LWPOLYLINE
  5
D3
330
17
100
AcDbEntity
  8
ALTIN
100
AcDbPolyline
 90
4
 70
1
 10
10.8346
 20
6.3939
 10
11.4581
 20
6.7539
 10
11.5781
 20
6.5461
 10
10.9546
 20
6.1861
  0
LWPOLYLINE
  5
D4
330
17
100
AcDbEntity
  8
ALTIN
100
AcDbPolyline
 90
4
 70
1
 10
10.2304
 20
7.5255
 10
10.7158
 20
7.8782
 10
10.804
 20
7.7569
 10
10.3186
 20
7.4042
  0
LWPOLYLINE
  5
D5
330
17
100
AcDbEntity
  8
ALTIN
100
AcDbPolyline
 90
4
 70
1
 10
9.3878
 20
8.5537
 10
9.8336
 20
8.9552
 10
9.934
 20
8.8437
 10
9.4881
 20
8.4422
  0
LWPOLYLINE
  5
D6
330
17
100
AcDbEntity
  8
ALTIN
100
AcDbPolyline
 90
4
 70
1
 10
8.4422
 20
9.4881
 10
8.8437
 20
9.934
 10
8.9552
 20
9.8336
 10
8.5537
 20
9.3878
  0
LWPOLYLINE
  5
D7
330
17
100
AcDbEntity
  8
ALTIN
100
AcDbPolyline
 90
4
 70
1
 10
7.7569
 20
10.804
 10
7.8782
 20
10.7158
 10
7.5255
 20
10.2304
 10
7.4042
 20
10.3186
  0
LWPOLYLINE
  5
D8
330
17
100
AcDbEntity
  8
ALTIN
100
AcDbPolyline
 90
4
 70
1
 10
6.5461
 20
11.5781
 10
6.7539
 20
11.4581
 10
6.3939
 20
10.8346
 10
6.1861
 20
10.9546
  0
LWPOLYLINE
  5
D9
330
17
100
AcDbEntity
  8
ALTIN
100
AcDbPolyline
 90
49
 70
1
 10
0.4337
 20
5.0587
 10
0.5193
 20
5.0915
 10
0.5956
 20
5.1463
 10
0.6564
 20
5.2244
 10
0.6962
 20
5.3269
 10
0.7095
 20
5.4553
 10
0.7095
 20
5.6573
 10
0.6645
 20
5.5864
 10
0.5583
 20
5.4918
 10
0.4304
 20
5.4339
 10
0.2828
 20
5.4146
 10
0.1277
 20
5.4336
 10
-0.0174
 20
5.4906
 10
-0.1435
 20
5.5836
 10
-0.2416
 20
5.7105
 10
-0.3046
 20
5.8704
 10
-0.3257
 20
6.0612
 10
-0.3046
 20
6.252
 10
-0.2416
 20
6.4107
 10
-0.1435
 20
6.5367
 10
-0.0174
 20
6.6293
 10
0.1277
 20
6.6863
 10
0.2828
 20
6.7053
 10
0.4304
 20
6.6859
 10
0.5583
 20
6.6276
 10
0.6645
 20
6.534
 10
0.7095
 20
6.4643
 10
0.7095
 20
6.6782
 10
0.9974
 20
6.6782
 10
0.9974
 20
5.4553
 10
0.9747
 20
5.2496
 10
0.9065
 20
5.0834
 10
0.8016
 20
4.9552
 10
0.6687
 20
4.8643
 10
0.5158
 20
4.8102
 10
0.3507
 20
4.7921
 10
0.164
 20
4.8095
 10
0.0055
 20
4.8618
 10
-0.1222
 20
4.945
 10
-0.2174
 20
5.0562
 10
-0.2777
 20
5.1906
 10
-0.3015
 20
5.3441
 10
-0.0081
 20
5.3441
 10
0.005
 20
5.2642
 10
0.0382
 20
5.1934
 10
0.0907
 20
5.1335
 10
0.1605
 20
5.0872
 10
0.2462
 20
5.0576
 10
0.3452
 20
5.0477
  0
LWPOLYLINE
  5
DA
330
17
100
AcDbEntity
  8
ALTIN
100
AcDbPolyline
 90
26
 70
1
 10
0.439
 20
5.6813
 10
0.5218
 20
5.7148
 10
0.5962
 20
5.7702
 10
0.6564
 20
5.8464
 10
0.6962
 20
5.9436
 10
0.7095
 20
6.0612
 10
0.7016
 20
6.1505
 10
0.6781
 20
6.2281
 10
0.6419
 20
6.2948
 10
0.5953
 20
6.3504
 10
0.541
 20
6.3943
 10
0.4811
 20
6.4251
 10
0.418
 20
6.4436
 10
0.3537
 20
6.4497
 10
0.2568
 20
6.4385
 10
0.1673
 20
6.4047
 10
0.0903
 20
6.3495
 10
0.0301
 20
6.2731
 10
-0.0087
 20
6.1768
 10
-0.0217
 20
6.0612
 10
-0.0087
 20
5.9455
 10
0.0301
 20
5.8481
 10
0.0903
 20
5.7706
 10
0.1673
 20
5.7148
 10
0.2568
 20
5.6813
 10
0.3537
 20
5.6702
  0
LWPOLYLINE
  5
DB
330
17
100
AcDbEntity
  8
ALTIN
100
AcDbPolyline
 90
26
 70
1
 10
1.7513
 20
5.6727
 10
1.8072
 20
5.7148
 10
1.8494
 20
5.7704
 10
1.8758
 20
5.8385
 10
1.8846
 20
5.9173
 10
1.8846
 20
6.6782
 10
2.178
 20
6.6782
 10
2.178
 20
5.4282
 10
1.8846
 20
5.4282
 10
1.8846
 20
5.6209
 10
1.8163
 20
5.5255
 10
1.7309
 20
5.4566
 10
1.6283
 20
5.4149
 10
1.5072
 20
5.401
 10
1.3219
 20
5.4336
 10
1.1849
 20
5.5313
 10
1.1005
 20
5.6848
 10
1.0724
 20
5.8846
 10
1.0724
 20
6.6782
 10
1.3738
 20
6.6782
 10
1.3738
 20
5.9173
 10
1.3881
 20
5.7989
 10
1.4307
 20
5.7105
 10
1.5035
 20
5.6557
 10
1.6074
 20
5.6375
 10
1.6841
 20
5.6463
  0
LWPOLYLINE
  5
DC
330
17
100
AcDbEntity
  8
ALTIN
100
AcDbPolyline
 90
24
 70
1
 10
-2.2033
 20
6.6846
 10
-2.0411
 20
6.6225
 10
-1.9047
 20
6.5237
 10
-1.8004
 20
6.3928
 10
-1.7342
 20
6.2345
 10
-1.7121
 20
6.0532
 10
-1.7342
 20
5.8735
 10
-1.8004
 20
5.7148
 10
-1.9047
 20
5.5829
 10
-2.0411
 20
5.4838
 10
-2.2033
 20
5.4217
 10
-2.3859
 20
5.401
 10
-2.567
 20
5.4217
 10
-2.7298
 20
5.4838
 10
-2.8669
 20
5.5829
 10
-2.9714
 20
5.7148
 10
-3.0377
 20
5.8735
 10
-3.0597
 20
6.0532
 10
-3.0377
 20
6.2345
 10
-2.9714
 20
6.3928
 10
-2.8669
 20
6.5237
 10
-2.7298
 20
6.6225
 10
-2.567
 20
6.6846
 10
-2.3859
 20
6.7053
  0
LWPOLYLINE
  5
DD
330
17
100
AcDbEntity
  8
ALTIN
100
AcDbPolyline
 90
24
 70
1
 10
-2.2856
 20
5.6717
 10
-2.1961
 20
5.7092
 10
-2.1205
 20
5.7692
 10
-2.0628
 20
5.8481
 10
-2.0258
 20
5.9435
 10
-2.0135
 20
6.0532
 10
-2.0258
 20
6.1631
 10
-2.0628
 20
6.2595
 10
-2.1205
 20
6.3392
 10
-2.1961
 20
6.3984
 10
-2.2856
 20
6.435
 10
-2.3859
 20
6.4472
 10
-2.4866
 20
6.435
 10
-2.5765
 20
6.3984
 10
-2.6518
 20
6.3392
 10
-2.7094
 20
6.2595
 10
-2.7461
 20
6.1631
 10
-2.7583
 20
6.0532
 10
-2.7461
 20
5.9435
 10
-2.7094
 20
5.8481
 10
-2.6518
 20
5.7692
 10
-2.5765
 20
5.7092
 10
-2.4866
 20
5.6717
 10
-2.3859
 20
5.6591
  0
LWPOLYLINE
  5
DE
330
17
100
AcDbEntity
  8
ALTIN
100
AcDbPolyline
 90
8
 70
1
 10
-1.6371
 20
5.4282
 10
-0.9089
 20
6.4064
 10
-1.542
 20
6.4064
 10
-1.542
 20
6.6782
 10
-0.4007
 20
6.6782
 10
-1.1153
 20
5.6999
 10
-0.4686
 20
5.6999
 10
-0.4686
 20
5.4282
  0
LWPOLYLINE
  5
DF
330
17
100
AcDbEntity
  8
ALTIN
100
AcDbPolyline
 90
24
 70
1
 10
3.0123
 20
6.657
 10
3.0597
 20
6.6128
 10
2.9158
 20
6.3657
 10
2.8782
 20
6.3942
 10
2.8411
 20
6.4145
 10
2.8001
 20
6.4269
 10
2.7502
 20
6.431
 10
2.6835
 20
6.4215
 10
2.6305
 20
6.3928
 10
2.5907
 20
6.3475
 10
2.5638
 20
6.288
 10
2.5485
 20
6.2159
 10
2.5434
 20
6.1321
 10
2.5434
 20
5.4282
 10
2.253
 20
5.4282
 10
2.253
 20
6.6782
 10
2.5434
 20
6.6782
 10
2.5434
 20
6.5224
 10
2.5652
 20
6.5579
 10
2.6453
 20
6.6387
 10
2.7353
 20
6.6906
 10
2.8288
 20
6.7079
 10
2.8947
 20
6.7025
 10
2.9566
 20
6.6862
  0
LWPOLYLINE
  5
E0
330
17
100
AcDbEntity
  8
ALTIN
100
AcDbPolyline
 90
136
 70
1
 10
12.413
 20
-0.6106
 10
12.4058
 20
-0.6592
 10
12.3978
 20
-0.6996
 10
12.3859
 20
-0.7472
 10
12.3739
 20
-0.7866
 10
12.3574
 20
-0.8328
 10
12.3416
 20
-0.8709
 10
12.3206
 20
-0.9153
 10
12.3012
 20
-0.9516
 10
12.276
 20
-0.9937
 10
12.2531
 20
-1.028
 10
12.2239
 20
-1.0674
 10
12.1977
 20
-1.0993
 10
12.1648
 20
-1.1356
 10
12.1356
 20
-1.1648
 10
12.0993
 20
-1.1977
 10
12.0674
 20
-1.2239
 10
12.028
 20
-1.2531
 10
11.9937
 20
-1.276
 10
11.9516
 20
-1.3012
 10
11.9153
 20
-1.3206
 10
11.8709
 20
-1.3416
 10
11.8328
 20
-1.3574
 10
11.7866
 20
-1.3739
 10
11.7472
 20
-1.3859
 10
11.6996
 20
-1.3978
 10
11.6592
 20
-1.4058
 10
11.6106
 20
-1.413
 10
11.5696
 20
-1.4171
 10
11.5206
 20
-1.4195
 10
11.5
 20
-1.42
 10
9.6
 20
-1.42
 10
9.5794
 20
-1.4195
 10
9.5304
 20
-1.4171
 10
9.4894
 20
-1.413
 10
9.4408
 20
-1.4058
 10
9.4004
 20
-1.3978
 10
9.3528
 20
-1.3859
 10
9.3134
 20
-1.3739
 10
9.2672
 20
-1.3574
 10
9.2291
 20
-1.3416
 10
9.1847
 20
-1.3206
 10
9.1484
 20
-1.3012
 10
9.1063
 20
-1.276
 10
9.072
 20
-1.2531
 10
9.0326
 20
-1.2239
 10
9.0007
 20
-1.1977
 10
8.9644
 20
-1.1648
 10
8.9352
 20
-1.1356
 10
8.9023
 20
-1.0993
 10
8.8761
 20
-1.0674
 10
8.8469
 20
-1.028
 10
8.824
 20
-0.9937
 10
8.7988
 20
-0.9516
 10
8.7794
 20
-0.9153
 10
8.7584
 20
-0.8709
 10
8.7426
 20
-0.8328
 10
8.7261
 20
-0.7866
 10
8.7141
 20
-0.7472
 10
8.7022
 20
-0.6996
 10
8.6942
 20
-0.6592
 10
8.687
 20
-0.6106
 10
8.6829
 20
-0.5696
 10
8.6805
 20
-0.5206
 10
8.68
 20
-0.5
 10
8.68
 20
0.5
 10
8.6805
 20
0.5206
 10
8.6829
 20
0.5696
 10
8.687
 20
0.6106
 10
8.6942
 20
0.6592
 10
8.7022
 20
0.6996
 10
8.7141
 20
0.7472
 10
8.7261
 20
0.7866
 10
8.7426
 20
0.8328
 10
8.7584
 20
0.8709
 10
8.7794
 20
0.9153
 10
8.7988
 20
0.9516
 10
8.824
 20
0.9937
 10
8.8469
 20
1.028
 10
8.8761
 20
1.0674
 10
8.9023
 20
1.0993
 10
8.9352
 20
1.1356
 10
8.9644
 20
1.1648
 10
9.0007
 20
1.1977
 10
9.0326
 20
1.2239
 10
9.072
 20
1.2531
 10
9.1063
 20
1.276
 10
9.1484
 20
1.3012
 10
9.1847
 20
1.3206
 10
9.2291
 20
1.3416
 10
9.2672
 20
1.3574
 10
9.3134
 20
1.3739
 10
9.3528
 20
1.3859
 10
9.4004
 20
1.3978
 10
9.4408
 20
1.4058
 10
9.4894
 20
1.413
 10
9.5304
 20
1.4171
 10
9.5794
 20
1.4195
 10
9.6
 20
1.42
 10
11.5
 20
1.42
 10
11.5206
 20
1.4195
 10
11.5696
 20
1.4171
 10
11.6106
 20
1.413
 10
11.6592
 20
1.4058
 10
11.6996
 20
1.3978
 10
11.7472
 20
1.3859
 10
11.7866
 20
1.3739
 10
11.8328
 20
1.3574
 10
11.8709
 20
1.3416
 10
11.9153
 20
1.3206
 10
11.9516
 20
1.3012
 10
11.9937
 20
1.276
 10
12.028
 20
1.2531
 10
12.0674
 20
1.2239
 10
12.0993
 20
1.1977
 10
12.1356
 20
1.1648
 10
12.1648
 20
1.1356
 10
12.1977
 20
1.0993
 10
12.2239
 20
1.0674
 10
12.2531
 20
1.028
 10
12.276
 20
0.9937
 10
12.3012
 20
0.9516
 10
12.3206
 20
0.9153
 10
12.3416
 20
0.8709
 10
12.3574
 20
0.8328
 10
12.3739
 20
0.7866
 10
12.3859
 20
0.7472
 10
12.3978
 20
0.6996
 10
12.4058
 20
0.6592
 10
12.413
 20
0.6106
 10
12.4171
 20
0.5696
 10
12.4195
 20
0.5206
 10
12.42
 20
0.5
 10
12.42
 20
-0.5
 10
12.4195
 20
-0.5206
 10
12.4171
 20
-0.5696
  0
LWPOLYLINE
  5
E1
330
17
100
AcDbEntity
  8
ALTIN
100
AcDbPolyline
 90
136
 70
1
 10
12.2473
 20
0.5613
 10
12.2449
 20
0.5857
 10
12.2377
 20
0.6342
 10
12.2329
 20
0.6583
 10
12.221
 20
0.7059
 10
12.2139
 20
0.7294
 10
12.1973
 20
0.7756
 10
12.1879
 20
0.7982
 10
12.167
 20
0.8426
 10
12.1554
 20
0.8642
 10
12.1302
 20
0.9063
 10
12.1165
 20
0.9267
 10
12.0873
 20
0.9661
 10
12.0717
 20
0.9851
 10
12.0388
 20
1.0214
 10
12.0214
 20
1.0388
 10
11.9851
 20
1.0717
 10
11.9661
 20
1.0873
 10
11.9267
 20
1.1165
 10
11.9063
 20
1.1302
 10
11.8642
 20
1.1554
 10
11.8426
 20
1.167
 10
11.7982
 20
1.1879
 10
11.7756
 20
1.1973
 10
11.7294
 20
1.2139
 10
11.7059
 20
1.221
 10
11.6583
 20
1.2329
 10
11.6342
 20
1.2377
 10
11.5857
 20
1.2449
 10
11.5613
 20
1.2473
 10
11.5123
 20
1.2497
 10
11.5
 20
1.25
 10
9.6
 20
1.25
 10
9.5877
 20
1.2497
 10
9.5387
 20
1.2473
 10
9.5143
 20
1.2449
 10
9.4658
 20
1.2377
 10
9.4417
 20
1.2329
 10
9.3941
 20
1.221
 10
9.3706
 20
1.2139
 10
9.3244
 20
1.1973
 10
9.3018
 20
1.1879
 10
9.2574
 20
1.167
 10
9.2358
 20
1.1554
 10
9.1937
 20
1.1302
 10
9.1733
 20
1.1165
 10
9.1339
 20
1.0873
 10
9.1149
 20
1.0717
 10
9.0786
 20
1.0388
 10
9.0612
 20
1.0214
 10
9.0283
 20
0.9851
 10
9.0127
 20
0.9661
 10
8.9835
 20
0.9267
 10
8.9698
 20
0.9063
 10
8.9446
 20
0.8642
 10
8.933
 20
0.8426
 10
8.9121
 20
0.7982
 10
8.9027
 20
0.7756
 10
8.8861
 20
0.7294
 10
8.879
 20
0.7059
 10
8.8671
 20
0.6583
 10
8.8623
 20
0.6342
 10
8.8551
 20
0.5857
 10
8.8527
 20
0.5613
 10
8.8503
 20
0.5123
 10
8.85
 20
0.5
 10
8.85
 20
-0.5
 10
8.8503
 20
-0.5123
 10
8.8527
 20
-0.5613
 10
8.8551
 20
-0.5857
 10
8.8623
 20
-0.6342
 10
8.8671
 20
-0.6583
 10
8.879
 20
-0.7059
 10
8.8861
 20
-0.7294
 10
8.9027
 20
-0.7756
 10
8.9121
 20
-0.7982
 10
8.933
 20
-0.8426
 10
8.9446
 20
-0.8642
 10
8.9698
 20
-0.9063
 10
8.9835
 20
-0.9267
 10
9.0127
 20
-0.9661
 10
9.0283
 20
-0.9851
 10
9.0612
 20
-1.0214
 10
9.0786
 20
-1.0388
 10
9.1149
 20
-1.0717
 10
9.1339
 20
-1.0873
 10
9.1733
 20
-1.1165
 10
9.1937
 20
-1.1302
 10
9.2358
 20
-1.1554
 10
9.2574
 20
-1.167
 10
9.3018
 20
-1.1879
 10
9.3244
 20
-1.1973
 10
9.3706
 20
-1.2139
 10
9.3941
 20
-1.221
 10
9.4417
 20
-1.2329
 10
9.4658
 20
-1.2377
 10
9.5143
 20
-1.2449
 10
9.5387
 20
-1.2473
 10
9.5877
 20
-1.2497
 10
9.6
 20
-1.25
 10
11.5
 20
-1.25
 10
11.5123
 20
-1.2497
 10
11.5613
 20
-1.2473
 10
11.5857
 20
-1.2449
 10
11.6342
 20
-1.2377
 10
11.6583
 20
-1.2329
 10
11.7059
 20
-1.221
 10
11.7294
 20
-1.2139
 10
11.7756
 20
-1.1973
 10
11.7982
 20
-1.1879
 10
11.8426
 20
-1.167
 10
11.8642
 20
-1.1554
 10
11.9063
 20
-1.1302
 10
11.9267
 20
-1.1165
 10
11.9661
 20
-1.0873
 10
11.9851
 20
-1.0717
 10
12.0214
 20
-1.0388
 10
12.0388
 20
-1.0214
 10
12.0717
 20
-0.9851
 10
12.0873
 20
-0.9661
 10
12.1165
 20
-0.9267
 10
12.1302
 20
-0.9063
 10
12.1554
 20
-0.8642
 10
12.167
 20
-0.8426
 10
12.1879
 20
-0.7982
 10
12.1973
 20
-0.7756
 10
12.2139
 20
-0.7294
 10
12.221
 20
-0.7059
 10
12.2329
 20
-0.6583
 10
12.2377
 20
-0.6342
 10
12.2449
 20
-0.5857
 10
12.2473
 20
-0.5613
 10
12.2497
 20
-0.5123
 10
12.25
 20
-0.5
 10
12.25
 20
0.5
 10
12.2497
 20
0.5123
  0
ENDSEC
  0
SECTION
  2
OBJECTS
  0
DICTIONARY
  5
A
330
0
100
AcDbDictionary
281
1
  3
ACAD_COLOR
350
B
  3
ACAD_GROUP
350
C
  3
ACAD_LAYOUT
350
D
  3
ACAD_MATERIAL
350
E
  3
ACAD_MLEADERSTYLE
350
F
  3
ACAD_MLINESTYLE
350
10
  3
ACAD_PLOTSETTINGS
350
11
  3
ACAD_PLOTSTYLENAME
350
12
  3
ACAD_SCALELIST
350
14
  3
ACAD_TABLESTYLE
350
15
  3
ACAD_VISUALSTYLE
350
16
  3
EZDXF_META
350
2D
  0
DICTIONARY
  5
B
330
A
100
AcDbDictionary
281
1
  0
DICTIONARY
  5
C
330
A
100
AcDbDictionary
281
1
  0
DICTIONARY
  5
D
330
A
100
AcDbDictionary
281
1
  3
Model
350
1A
  3
Layout1
350
1E
  0
DICTIONARY
  5
E
330
A
100
AcDbDictionary
281
1
  3
ByBlock
350
1F
  3
ByLayer
350
20
  3
Global
350
21
  0
DICTIONARY
  5
F
330
A
100
AcDbDictionary
281
1
  3
Standard
350
2C
  0
DICTIONARY
  5
10
330
A
100
AcDbDictionary
281
1
  3
Standard
350
22
  0
DICTIONARY
  5
11
330
A
100
AcDbDictionary
281
1
  0
ACDBDICTIONARYWDFLT
  5
12
330
A
100
AcDbDictionary
281
1
  3
Normal
350
13
100
AcDbDictionaryWithDefault
340
13
  0
ACDBPLACEHOLDER
  5
13
330
12
  0
DICTIONARY
  5
14
330
A
100
AcDbDictionary
281
1
  0
DICTIONARY
  5
15
330
A
100
AcDbDictionary
281
1
  0
DICTIONARY
  5
16
330
A
100
AcDbDictionary
281
1
  3
2dWireframe
350
5A
  3
Basic
350
5B
  3
Brighten
350
5C
  3
ColorChange
350
5D
  3
Conceptual
350
5E
  3
Dim
350
5F
  3
EdgeColorOff
350
60
  3
Facepattern
350
61
  3
Flat
350
62
  3
FlatWithEdges
350
63
  3
Gouraud
350
64
  3
GouraudWithEdges
350
65
  3
Hidden
350
66
  3
JitterOff
350
67
  3
Linepattern
350
68
  3
Modeling
350
69
  3
OverhangOff
350
6A
  3
Realistic
350
6B
  3
Shaded
350
6C
  3
Shaded with edges
350
6D
  3
Shades of Gray
350
6E
  3
Sketchy
350
6F
  3
Thicken
350
70
  3
Wireframe
350
71
  3
X-Ray
350
72
  0
LAYOUT
  5
1A
330
D
100
AcDbPlotSettings
  1

  4
A3
  6

 40
7.5
 41
20.0
 42
7.5
 43
20.0
 44
420.0
 45
297.0
 46
0.0
 47
0.0
 48
0.0
 49
0.0
140
0.0
141
0.0
142
1.0
143
1.0
 70
1024
 72
1
 73
0
 74
5
  7

 75
16
 76
0
 77
2
 78
300
147
1.0
148
0.0
149
0.0
100
AcDbLayout
  1
Model
 70
1
 71
0
 10
0.0
 20
0.0
 11
420.0
 21
297.0
 12
0.0
 22
0.0
 32
0.0
 14
1e+20
 24
1e+20
 34
1e+20
 15
-1e+20
 25
-1e+20
 35
-1e+20
146
0.0
 13
0.0
 23
0.0
 33
0.0
 16
1.0
 26
0.0
 36
0.0
 17
0.0
 27
1.0
 37
0.0
 76
1
330
17
  0
LAYOUT
  5
1E
330
D
100
AcDbPlotSettings
  1

  4
A3
  6

 40
7.5
 41
20.0
 42
7.5
 43
20.0
 44
420.0
 45
297.0
 46
0.0
 47
0.0
 48
0.0
 49
0.0
140
0.0
141
0.0
142
1.0
143
1.0
 70
0
 72
1
 73
0
 74
5
  7

 75
16
 76
0
 77
2
 78
300
147
1.0
148
0.0
149
0.0
100
AcDbLayout
  1
Layout1
 70
1
 71
1
 10
0.0
 20
0.0
 11
420.0
 21
297.0
 12
0.0
 22
0.0
 32
0.0
 14
1e+20
 24
1e+20
 34
1e+20
 15
-1e+20
 25
-1e+20
 35
-1e+20
146
0.0
 13
0.0
 23
0.0
 33
0.0
 16
1.0
 26
0.0
 36
0.0
 17
0.0
 27
1.0
 37
0.0
 76
1
330
1B
  0
MATERIAL
  5
1F
102
{ACAD_REACTORS
330
E
102
}
330
E
100
AcDbMaterial
  1
ByBlock
  2

 70
0
 40
1.0
 71
1
 41
1.0
 91
-1023410177
 42
1.0
 72
1
  3

 73
1
 74
1
 75
1
 44
0.5
 73
0
 45
1.0
 46
1.0
 77
1
  4

 78
1
 79
1
170
1
 48
1.0
171
1
  6

172
1
173
1
174
1
140
1.0
141
1.0
175
1
  7

176
1
177
1
178
1
143
1.0
179
1
  8

270
1
271
1
272
1
145
1.0
146
1.0
273
1
  9

274
1
275
1
276
1
 42
1.0
 72
1
  3

 73
1
 74
1
 75
1
 94
63
  0
MATERIAL
  5
20
102
{ACAD_REACTORS
330
E
102
}
330
E
100
AcDbMaterial
  1
ByLayer
  2

 70
0
 40
1.0
 71
1
 41
1.0
 91
-1023410177
 42
1.0
 72
1
  3

 73
1
 74
1
 75
1
 44
0.5
 73
0
 45
1.0
 46
1.0
 77
1
  4

 78
1
 79
1
170
1
 48
1.0
171
1
  6

172
1
173
1
174
1
140
1.0
141
1.0
175
1
  7

176
1
177
1
178
1
143
1.0
179
1
  8

270
1
271
1
272
1
145
1.0
146
1.0
273
1
  9

274
1
275
1
276
1
 42
1.0
 72
1
  3

 73
1
 74
1
 75
1
 94
63
  0
MATERIAL
  5
21
102
{ACAD_REACTORS
330
E
102
}
330
E
100
AcDbMaterial
  1
Global
  2

 70
0
 40
1.0
 71
1
 41
1.0
 91
-1023410177
 42
1.0
 72
1
  3

 73
1
 74
1
 75
1
 44
0.5
 73
0
 45
1.0
 46
1.0
 77
1
  4

 78
1
 79
1
170
1
 48
1.0
171
1
  6

172
1
173
1
174
1
140
1.0
141
1.0
175
1
  7

176
1
177
1
178
1
143
1.0
179
1
  8

270
1
271
1
272
1
145
1.0
146
1.0
273
1
  9

274
1
275
1
276
1
 42
1.0
 72
1
  3

 73
1
 74
1
 75
1
 94
63
  0
MLINESTYLE
  5
22
102
{ACAD_REACTORS
330
10
102
}
330
10
100
AcDbMlineStyle
  2
Standard
 70
0
  3

 62
256
 51
90.0
 52
90.0
 71
2
 49
0.5
 62
256
  6
BYLAYER
 49
-0.5
 62
256
  6
BYLAYER
  0
MLEADERSTYLE
  5
2C
102
{ACAD_REACTORS
330
F
102
}
330
F
100
AcDbMLeaderStyle
179
2
170
2
171
1
172
0
 90
2
 40
0.0
 41
0.0
173
1
 91
-1056964608
 92
-2
290
1
 42
2.0
291
1
 43
8.0
  3
Standard
 44
4.0
300

342
29
174
1
175
1
176
0
178
1
 93
-1056964608
 45
4.0
292
0
297
0
 46
4.0
 94
-1056964608
 47
1.0
 49
1.0
140
1.0
294
1
141
0.0
177
0
142
1.0
295
0
296
0
143
3.75
271
0
272
9
273
9
  0
DICTIONARY
  5
2D
330
A
100
AcDbDictionary
280
1
281
1
  3
CREATED_BY_EZDXF
350
2E
  3
WRITTEN_BY_EZDXF
350
E4
  0
DICTIONARYVAR
  5
2E
330
2D
100
DictionaryVariables
280
0
  1
1.4.4 @ 2026-10-08T09:09:13.742103+00:00
  0
VISUALSTYLE
  5
5A
102
{ACAD_REACTORS
330
16
102
}
330
16
100
AcDbVisualStyle
  2
2dWireframe
 70
4
 90
0
 40
0.6
 62
7
290
0
291
0
  0
VISUALSTYLE
  5
5B
102
{ACAD_REACTORS
330
16
102
}
330
16
100
AcDbVisualStyle
  2
Basic
 70
7
 90
1
 40
0.6
 62
7
290
0
291
1
  0
VISUALSTYLE
  5
5C
102
{ACAD_REACTORS
330
16
102
}
330
16
100
AcDbVisualStyle
  2
Brighten
 70
12
 90
2
 40
0.6
 62
7
290
0
291
1
  0
VISUALSTYLE
  5
5D
102
{ACAD_REACTORS
330
16
102
}
330
16
100
AcDbVisualStyle
  2
ColorChange
 70
16
 90
2
 40
0.6
 62
8
290
0
291
1
  0
VISUALSTYLE
  5
5E
102
{ACAD_REACTORS
330
16
102
}
330
16
100
AcDbVisualStyle
  2
Conceptual
 70
9
 90
3
 40
0.6
 62
7
290
0
291
0
  0
VISUALSTYLE
  5
5F
102
{ACAD_REACTORS
330
16
102
}
330
16
100
AcDbVisualStyle
  2
Dim
 70
11
 90
2
 40
0.6
 62
7
290
0
291
1
  0
VISUALSTYLE
  5
60
102
{ACAD_REACTORS
330
16
102
}
330
16
100
AcDbVisualStyle
  2
EdgeColorOff
 70
22
 90
2
 40
0.6
 62
7
290
0
291
1
  0
VISUALSTYLE
  5
61
102
{ACAD_REACTORS
330
16
102
}
330
16
100
AcDbVisualStyle
  2
Facepattern
 70
15
 90
2
 40
0.6
 62
7
290
0
291
1
  0
VISUALSTYLE
  5
62
102
{ACAD_REACTORS
330
16
102
}
330
16
100
AcDbVisualStyle
  2
Flat
 70
0
 90
2
 40
0.6
 62
7
290
0
291
1
  0
VISUALSTYLE
  5
63
102
{ACAD_REACTORS
330
16
102
}
330
16
100
AcDbVisualStyle
  2
FlatWithEdges
 70
1
 90
2
 40
0.6
 62
7
290
0
291
1
  0
VISUALSTYLE
  5
64
102
{ACAD_REACTORS
330
16
102
}
330
16
100
AcDbVisualStyle
  2
Gouraud
 70
2
 90
2
 40
0.6
 62
7
290
0
291
1
  0
VISUALSTYLE
  5
65
102
{ACAD_REACTORS
330
16
102
}
330
16
100
AcDbVisualStyle
  2
GouraudWithEdges
 70
3
 90
2
 40
0.6
 62
7
290
0
291
1
  0
VISUALSTYLE
  5
66
102
{ACAD_REACTORS
330
16
102
}
330
16
100
AcDbVisualStyle
  2
Hidden
 70
6
 90
1
 40
0.6
 62
7
290
0
291
0
  0
VISUALSTYLE
  5
67
102
{ACAD_REACTORS
330
16
102
}
330
16
100
AcDbVisualStyle
  2
JitterOff
 70
20
 90
2
 40
0.6
 62
7
290
0
291
1
  0
VISUALSTYLE
  5
68
102
{ACAD_REACTORS
330
16
102
}
330
16
100
AcDbVisualStyle
  2
Linepattern
 70
14
 90
2
 40
0.6
 62
7
290
0
291
1
  0
VISUALSTYLE
  5
69
102
{ACAD_REACTORS
330
16
102
}
330
16
100
AcDbVisualStyle
  2
Modeling
 70
10
 90
2
 40
0.6
 62
7
290
0
291
0
  0
VISUALSTYLE
  5
6A
102
{ACAD_REACTORS
330
16
102
}
330
16
100
AcDbVisualStyle
  2
OverhangOff
 70
21
 90
2
 40
0.6
 62
7
290
0
291
1
  0
VISUALSTYLE
  5
6B
102
{ACAD_REACTORS
330
16
102
}
330
16
100
AcDbVisualStyle
  2
Realistic
 70
8
 90
2
 40
0.6
 62
7
290
0
291
0
  0
VISUALSTYLE
  5
6C
102
{ACAD_REACTORS
330
16
102
}
330
16
100
AcDbVisualStyle
  2
Shaded
 70
27
 90
2
 40
0.6
 62
7
290
0
291
0
  0
VISUALSTYLE
  5
6D
102
{ACAD_REACTORS
330
16
102
}
330
16
100
AcDbVisualStyle
  2
Shaded with edges
 70
26
 90
2
 40
0.6
 62
7
290
0
291
0
  0
VISUALSTYLE
  5
6E
102
{ACAD_REACTORS
330
16
102
}
330
16
100
AcDbVisualStyle
  2
Shades of Gray
 70
23
 90
2
 40
0.6
 62
7
290
0
291
0
  0
VISUALSTYLE
  5
6F
102
{ACAD_REACTORS
330
16
102
}
330
16
100
AcDbVisualStyle
  2
Sketchy
 70
24
 90
1
 40
0.6
 62
7
290
0
291
0
  0
VISUALSTYLE
  5
70
102
{ACAD_REACTORS
330
16
102
}
330
16
100
AcDbVisualStyle
  2
Thicken
 70
13
 90
2
 40
0.6
 62
7
290
0
291
1
  0
VISUALSTYLE
  5
71
102
{ACAD_REACTORS
330
16
102
}
330
16
100
AcDbVisualStyle
  2
Wireframe
 70
5
 90
0
 40
0.6
 62
7
290
0
291
0
  0
VISUALSTYLE
  5
72
102
{ACAD_REACTORS
330
16
102
}
330
16
100
AcDbVisualStyle
  2
X-Ray
 70
25
 90
2
 40
0.5
 62
7
290
0
291
0
  0
DICTIONARYVAR
  5
E4
330
2D
100
DictionaryVariables
280
0
  1
1.4.4 @ 2026-10-08T09:09:13.803040+00:00
  0
ENDSEC
  0
EOF
