  0
SECTION
  2
HEADER
  9
$ACADVER
  1
AC1024
  9
$ACADMAINTVER
 70
6
  9
$DWGCODEPAGE
  3
ANSI_1252
  9
$LASTSAVEDBY
  1
ezdxf
  9
$INSBASE
 10
0.0
 20
0.0
 30
0.0
  9
$EXTMIN
 10
1e+20
 20
1e+20
 30
1e+20
  9
$EXTMAX
 10
-1e+20
 20
-1e+20
 30
-1e+20
  9
$LIMMIN
 10
0.0
 20
0.0
  9
$LIMMAX
 10
420.0
 20
297.0
  9
$ORTHOMODE
 70
0
  9
$REGENMODE
 70
1
  9
$FILLMODE
 70
1
  9
$QTEXTMODE
 70
0
  9
$MIRRTEXT
 70
1
  9
$LTSCALE
 40
1.0
  9
$ATTMODE
 70
1
  9
$TEXTSIZE
 40
2.5
  9
$TRACEWID
 40
1.0
  9
$TEXTSTYLE
  7
OpenSans
  9
$CLAYER
  8
0
  9
$CELTYPE
  6
ByLayer
  9
$CECOLOR
 62
256
  9
$CELTSCALE
 40
1.0
  9
$DISPSILH
 70
0
  9
$DIMSCALE
 40
1.0
  9
$DIMASZ
 40
0.175
  9
$DIMEXO
 40
0.125
  9
$DIMDLI
 40
3.75
  9
$DIMRND
 40
0.0
  9
$DIMDLE
 40
0.0
  9
$DIMEXE
 40
0.375
  9
$DIMTP
 40
0.0
  9
$DIMTM
 40
0.0
  9
$DIMTXT
 40
0.25
  9
$DIMCEN
 40
2.5
  9
$DIMTSZ
 40
0.0
  9
$DIMTOL
 70
0
  9
$DIMLIM
 70
0
  9
$DIMTIH
 70
0
  9
$DIMTOH
 70
0
  9
$DIMSE1
 70
0
  9
$DIMSE2
 70
0
  9
$DIMTAD
 70
1
  9
$DIMZIN
 70
12
  9
$DIMBLK
  1
ARCHTICK
  9
$DIMASO
 70
1
  9
$DIMSHO
 70
1
  9
$DIMPOST
  1

  9
$DIMAPOST
  1

  9
$DIMALT
 70
0
  9
$DIMALTD
 70
3
  9
$DIMALTF
 40
0.03937007874
  9
$DIMLFAC
 40
100.0
  9
$DIMTOFL
 70
1
  9
$DIMTVP
 40
0.0
  9
$DIMTIX
 70
0
  9
$DIMSOXD
 70
0
  9
$DIMSAH
 70
0
  9
$DIMBLK1
  1

  9
$DIMBLK2
  1

  9
$DIMSTYLE
  2
EZDXF
  9
$DIMCLRD
 70
0
  9
$DIMCLRE
 70
0
  9
$DIMCLRT
 70
0
  9
$DIMTFAC
 40
0.5
  9
$DIMGAP
 40
0.1
  9
$DIMJUST
 70
0
  9
$DIMSD1
 70
0
  9
$DIMSD2
 70
0
  9
$DIMTOLJ
 70
0
  9
$DIMTZIN
 70
8
  9
$DIMALTZ
 70
0
  9
$DIMALTTZ
 70
0
  9
$DIMUPT
 70
1
  9
$DIMDEC
 70
2
  9
$DIMTDEC
 70
2
  9
$DIMALTU
 70
2
  9
$DIMALTTD
 70
3
  9
$DIMTXSTY
  7
OpenSansCondensed-Light
  9
$DIMAUNIT
 70
0
  9
$DIMADEC
 70
2
  9
$DIMALTRND
 40
0.0
  9
$DIMAZIN
 70
3
  9
$DIMDSEP
 70
46
  9
$DIMATFIT
 70
3
  9
$DIMFRAC
 70
0
  9
$DIMLDRBLK
  1

  9
$DIMLUNIT
 70
2
  9
$DIMLWD
 70
-2
  9
$DIMLWE
 70
-2
  9
$DIMTMOVE
 70
2
  9
$DIMFXL
 40
1.0
  9
$DIMFXLON
 70
0
  9
$DIMJOGANG
 40
0.785398163397
  9
$DIMTFILL
 70
0
  9
$DIMTFILLCLR
 70
0
  9
$DIMARCSYM
 70
0
  9
$DIMLTYPE
  6

  9
$DIMLTEX1
  6

  9
$DIMLTEX2
  6

  9
$DIMTXTDIRECTION
 70
0
  9
$LUNITS
 70
2
  9
$LUPREC
 70
4
  9
$SKETCHINC
 40
1.0
  9
$FILLETRAD
 40
10.0
  9
$AUNITS
 70
0
  9
$AUPREC
 70
2
  9
$MENU
  1
.
  9
$ELEVATION
 40
0.0
  9
$PELEVATION
 40
0.0
  9
$THICKNESS
 40
0.0
  9
$LIMCHECK
 70
0
  9
$CHAMFERA
 40
0.0
  9
$CHAMFERB
 40
0.0
  9
$CHAMFERC
 40
0.0
  9
$CHAMFERD
 40
0.0
  9
$SKPOLY
 70
0
  9
$TDCREATE
 40
2461321.9369907407
  9
$TDUCREATE
 40
2458532.153996898
  9
$TDUPDATE
 40
2461321.9369907407
  9
$TDUUPDATE
 40
2458532.1544311
  9
$TDINDWG
 40
0.0
  9
$TDUSRTIMER
 40
0.0
  9
$USRTIMER
 70
1
  9
$ANGBASE
 50
0.0
  9
$ANGDIR
 70
0
  9
$PDMODE
 70
0
  9
$PDSIZE
 40
0.0
  9
$PLINEWID
 40
0.0
  9
$SPLFRAME
 70
0
  9
$SPLINETYPE
 70
6
  9
$SPLINESEGS
 70
8
  9
$HANDSEED
  5
E3
  9
$SURFTAB1
 70
6
  9
$SURFTAB2
 70
6
  9
$SURFTYPE
 70
6
  9
$SURFU
 70
6
  9
$SURFV
 70
6
  9
$UCSBASE
  2

  9
$UCSNAME
  2

  9
$UCSORG
 10
0.0
 20
0.0
 30
0.0
  9
$UCSXDIR
 10
1.0
 20
0.0
 30
0.0
  9
$UCSYDIR
 10
0.0
 20
1.0
 30
0.0
  9
$UCSORTHOREF
  2

  9
$UCSORTHOVIEW
 70
0
  9
$UCSORGTOP
 10
0.0
 20
0.0
 30
0.0
  9
$UCSORGBOTTOM
 10
0.0
 20
0.0
 30
0.0
  9
$UCSORGLEFT
 10
0.0
 20
0.0
 30
0.0
  9
$UCSORGRIGHT
 10
0.0
 20
0.0
 30
0.0
  9
$UCSORGFRONT
 10
0.0
 20
0.0
 30
0.0
  9
$UCSORGBACK
 10
0.0
 20
0.0
 30
0.0
  9
$PUCSBASE
  2

  9
$PUCSNAME
  2

  9
$PUCSORG
 10
0.0
 20
0.0
 30
0.0
  9
$PUCSXDIR
 10
1.0
 20
0.0
 30
0.0
  9
$PUCSYDIR
 10
0.0
 20
1.0
 30
0.0
  9
$PUCSORTHOREF
  2

  9
$PUCSORTHOVIEW
 70
0
  9
$PUCSORGTOP
 10
0.0
 20
0.0
 30
0.0
  9
$PUCSORGBOTTOM
 10
0.0
 20
0.0
 30
0.0
  9
$PUCSORGLEFT
 10
0.0
 20
0.0
 30
0.0
  9
$PUCSORGRIGHT
 10
0.0
 20
0.0
 30
0.0
  9
$PUCSORGFRONT
 10
0.0
 20
0.0
 30
0.0
  9
$PUCSORGBACK
 10
0.0
 20
0.0
 30
0.0
  9
$USERI1
 70
0
  9
$USERI2
 70
0
  9
$USERI3
 70
0
  9
$USERI4
 70
0
  9
$USERI5
 70
0
  9
$USERR1
 40
0.0
  9
$USERR2
 40
0.0
  9
$USERR3
 40
0.0
  9
$USERR4
 40
0.0
  9
$USERR5
 40
0.0
  9
$WORLDVIEW
 70
1
  9
$SHADEDGE
 70
3
  9
$SHADEDIF
 70
70
  9
$TILEMODE
 70
1
  9
$MAXACTVP
 70
64
  9
$PINSBASE
 10
0.0
 20
0.0
 30
0.0
  9
$PLIMCHECK
 70
0
  9
$PEXTMIN
 10
1e+20
 20
1e+20
 30
1e+20
  9
$PEXTMAX
 10
-1e+20
 20
-1e+20
 30
-1e+20
  9
$PLIMMIN
 10
0.0
 20
0.0
  9
$PLIMMAX
 10
420.0
 20
297.0
  9
$UNITMODE
 70
0
  9
$VISRETAIN
 70
1
  9
$PLINEGEN
 70
0
  9
$PSLTSCALE
 70
1
  9
$TREEDEPTH
 70
3020
  9
$CMLSTYLE
  2
Standard
  9
$CMLJUST
 70
0
  9
$CMLSCALE
 40
20.0
  9
$PROXYGRAPHICS
 70
1
  9
$MEASUREMENT
 70
1
  9
$CELWEIGHT
370
-1
  9
$ENDCAPS
280
0
  9
$JOINSTYLE
280
0
  9
$LWDISPLAY
290
0
  9
$INSUNITS
 70
4
  9
$HYPERLINKBASE
  1

  9
$STYLESHEET
  1

  9
$XEDIT
290
1
  9
$CEPSNTYPE
380
0
  9
$PSTYLEMODE
290
1
  9
$FINGERPRINTGUID
  2
{A6EABB9D-8F7B-4B89-8D5E-8999B97D0192}
  9
$VERSIONGUID
  2
{C5D48FC5-359B-46EF-9AAA-C8FD90BFD794}
  9
$EXTNAMES
290
1
  9
$PSVPSCALE
 40
0.0
  9
$OLESTARTUP
290
0
  9
$SORTENTS
280
127
  9
$INDEXCTL
280
0
  9
$HIDETEXT
280
1
  9
$XCLIPFRAME
280
1
  9
$HALOGAP
280
0
  9
$OBSCOLOR
 70
257
  9
$OBSLTYPE
280
0
  9
$INTERSECTIONDISPLAY
280
0
  9
$INTERSECTIONCOLOR
 70
257
  9
$DIMASSOC
280
2
  9
$PROJECTNAME
  1

  9
$CAMERADISPLAY
290
0
  9
$LENSLENGTH
 40
50.0
  9
$CAMERAHEIGHT
 40
0.0
  9
$STEPSPERSEC
 40
24.0
  9
$STEPSIZE
 40
100.0
  9
$3DDWFPREC
 40
2.0
  9
$PSOLWIDTH
 40
0.005
  9
$PSOLHEIGHT
 40
0.08
  9
$LOFTANG1
 40
1.570796326795
  9
$LOFTANG2
 40
1.570796326795
  9
$LOFTMAG1
 40
0.0
  9
$LOFTMAG2
 40
0.0
  9
$LOFTPARAM
 70
7
  9
$LOFTNORMALS
280
1
  9
$LATITUDE
 40
37.795
  9
$LONGITUDE
 40
-122.394
  9
$NORTHDIRECTION
 40
0.0
  9
$TIMEZONE
 70
-8000
  9
$LIGHTGLYPHDISPLAY
280
1
  9
$TILEMODELIGHTSYNCH
280
1
  9
$CMATERIAL
347
20
  9
$SOLIDHIST
280
0
  9
$SHOWHIST
280
1
  9
$DWFFRAME
280
2
  9
$DGNFRAME
280
2
  9
$REALWORLDSCALE
290
1
  9
$INTERFERECOLOR
 62
256
  9
$CSHADOW
280
0
  9
$SHADOWPLANELOCATION
 40
0.0
  0
ENDSEC
  0
SECTION
  2
CLASSES
  0
CLASS
  1
ACDBDICTIONARYWDFLT
  2
AcDbDictionaryWithDefault
  3
ObjectDBX Classes
 90
0
 91
0
280
0
281
0
  0
CLASS
  1
SUN
  2
AcDbSun
  3
SCENEOE
 90
1153
 91
0
280
0
281
0
  0
CLASS
  1
VISUALSTYLE
  2
AcDbVisualStyle
  3
ObjectDBX Classes
 90
4095
 91
0
280
0
281
0
  0
CLASS
  1
MATERIAL
  2
AcDbMaterial
  3
ObjectDBX Classes
 90
1153
 91
0
280
0
281
0
  0
CLASS
  1
SCALE
  2
AcDbScale
  3
ObjectDBX Classes
 90
1153
 91
0
280
0
281
0
  0
CLASS
  1
TABLESTYLE
  2
AcDbTableStyle
  3
ObjectDBX Classes
 90
4095
 91
0
280
0
281
0
  0
CLASS
  1
MLEADERSTYLE
  2
AcDbMLeaderStyle
  3
ACDB_MLEADERSTYLE_CLASS
 90
4095
 91
0
280
0
281
0
  0
CLASS
  1
DICTIONARYVAR
  2
AcDbDictionaryVar
  3
ObjectDBX Classes
 90
0
 91
0
280
0
281
0
  0
CLASS
  1
CELLSTYLEMAP
  2
AcDbCellStyleMap
  3
ObjectDBX Classes
 90
1152
 91
0
280
0
281
0
  0
CLASS
  1
MENTALRAYRENDERSETTINGS
  2
AcDbMentalRayRenderSettings
  3
SCENEOE
 90
1024
 91
0
280
0
281
0
  0
CLASS
  1
ACDBDETAILVIEWSTYLE
  2
AcDbDetailViewStyle
  3
ObjectDBX Classes
 90
1025
 91
0
280
0
281
0
  0
CLASS
  1
ACDBSECTIONVIEWSTYLE
  2
AcDbSectionViewStyle
  3
ObjectDBX Classes
 90
1025
 91
0
280
0
281
0
  0
CLASS
  1
RASTERVARIABLES
  2
AcDbRasterVariables
  3
ISM
 90
0
 91
0
280
0
281
0
  0
CLASS
  1
LAYOUT
  2
AcDbLayout
  3
ObjectDBX Classes
 90
0
 91
0
280
0
281
0
  0
CLASS
  1
ACDBPLACEHOLDER
  2
AcDbPlaceHolder
  3
ObjectDBX Classes
 90
0
 91
0
280
0
281
0
  0
ENDSEC
  0
SECTION
  2
TABLES
  0
TABLE
  2
VPORT
  5
8
330
0
100
AcDbSymbolTable
 70
1
  0
VPORT
  5
23
330
8
100
AcDbSymbolTableRecord
100
AcDbViewportTableRecord
  2
*Active
 70
0
 10
0.0
 20
0.0
 11
1.0
 21
1.0
 12
0.0
 22
0.0
 13
0.0
 23
0.0
 14
0.5
 24
0.5
 15
0.5
 25
0.5
 16
0.0
 26
0.0
 36
1.0
 17
0.0
 27
0.0
 37
0.0
 40
1000.0
 41
1.34
 42
50.0
 43
0.0
 44
0.0
 50
0.0
 51
0.0
 71
0
 72
1000
 73
1
 74
3
 75
0
 76
0
 77
0
 78
0
281
0
 65
0
146
0.0
  0
ENDTAB
  0
TABLE
  2
LTYPE
  5
2
330
0
100
AcDbSymbolTable
 70
21
  0
LTYPE
  5
24
330
2
100
AcDbSymbolTableRecord
100
AcDbLinetypeTableRecord
  2
ByBlock
 70
0
  3

 72
65
 73
0
 40
0.0
  0
LTYPE
  5
25
330
2
100
AcDbSymbolTableRecord
100
AcDbLinetypeTableRecord
  2
ByLayer
 70
0
  3

 72
65
 73
0
 40
0.0
  0
LTYPE
  5
26
330
2
100
AcDbSymbolTableRecord
100
AcDbLinetypeTableRecord
  2
Continuous
 70
0
  3

 72
65
 73
0
 40
0.0
  0
LTYPE
  5
2F
330
2
100
AcDbSymbolTableRecord
100
AcDbLinetypeTableRecord
  2
CENTER
 70
0
  3
Center ____ _ ____ _ ____ _ ____ _ ____ _ ____
 72
65
 73
4
 40
5.08
 49
3.175
 74
0
 49
-0.635
 74
0
 49
0.635
 74
0
 49
-0.635
 74
0
  0
LTYPE
  5
30
330
2
100
AcDbSymbolTableRecord
100
AcDbLinetypeTableRecord
  2
CENTERX2
 70
0
  3
Center (2x) ________  __  ________  __  ________
 72
65
 73
4
 40
8.89
 49
6.35
 74
0
 49
-0.635
 74
0
 49
1.27
 74
0
 49
-0.635
 74
0
  0
LTYPE
  5
31
330
2
100
AcDbSymbolTableRecord
100
AcDbLinetypeTableRecord
  2
CENTER2
 70
0
  3
Center (.5x) ____ _ ____ _ ____ _ ____ _ ____
 72
65
 73
4
 40
2.54
 49
1.587
 74
0
 49
-0.318
 74
0
 49
0.318
 74
0
 49
-0.318
 74
0
  0
LTYPE
  5
32
330
2
100
AcDbSymbolTableRecord
100
AcDbLinetypeTableRecord
  2
DASHED
 70
0
  3
Dashed __ __ __ __ __ __ __ __ __ __ __ __ __ _
 72
65
 73
2
 40
1.524
 49
1.27
 74
0
 49
-0.254
 74
0
  0
LTYPE
  5
33
330
2
100
AcDbSymbolTableRecord
100
AcDbLinetypeTableRecord
  2
DASHEDX2
 70
0
  3
Dashed (2x) ____  ____  ____  ____  ____  ____
 72
65
 73
2
 40
3.048
 49
2.54
 74
0
 49
-0.508
 74
0
  0
LTYPE
  5
34
330
2
100
AcDbSymbolTableRecord
100
AcDbLinetypeTableRecord
  2
DASHED2
 70
0
  3
Dashed (.5x) _ _ _ _ _ _ _ _ _ _ _ _ _ _
 72
65
 73
2
 40
0.762
 49
0.635
 74
0
 49
-0.127
 74
0
  0
LTYPE
  5
35
330
2
100
AcDbSymbolTableRecord
100
AcDbLinetypeTableRecord
  2
PHANTOM
 70
0
  3
Phantom ______  __  __  ______  __  __  ______
 72
65
 73
6
 40
6.35
 49
3.175
 74
0
 49
-0.635
 74
0
 49
0.635
 74
0
 49
-0.635
 74
0
 49
0.635
 74
0
 49
-0.635
 74
0
  0
LTYPE
  5
36
330
2
100
AcDbSymbolTableRecord
100
AcDbLinetypeTableRecord
  2
PHANTOMX2
 70
0
  3
Phantom (2x)____________    ____    ____    ____________
 72
65
 73
6
 40
10.795
 49
6.35
 74
0
 49
-0.635
 74
0
 49
1.27
 74
0
 49
-0.635
 74
0
 49
1.27
 74
0
 49
-0.635
 74
0
  0
LTYPE
  5
37
330
2
100
AcDbSymbolTableRecord
100
AcDbLinetypeTableRecord
  2
PHANTOM2
 70
0
  3
Phantom (.5x) ___ _ _ ___ _ _ ___ _ _ ___ _ _ ___
 72
65
 73
6
 40
3.175
 49
1.587
 74
0
 49
-0.318
 74
0
 49
0.318
 74
0
 49
-0.318
 74
0
 49
0.318
 74
0
 49
-0.318
 74
0
  0
LTYPE
  5
38
330
2
100
AcDbSymbolTableRecord
100
AcDbLinetypeTableRecord
  2
DASHDOT
 70
0
  3
Dash dot __ . __ . __ . __ . __ . __ . __ . __
 72
65
 73
4
 40
3.556
 49
2.54
 74
0
 49
-0.508
 74
0
 49
0.0
 74
0
 49
-0.508
 74
0
  0
LTYPE
  5
39
330
2
100
AcDbSymbolTableRecord
100
AcDbLinetypeTableRecord
  2
DASHDOTX2
 70
0
  3
Dash dot (2x) ____  .  ____  .  ____  .  ____
 72
65
 73
4
 40
6.096
 49
5.08
 74
0
 49
-0.508
 74
0
 49
0.0
 74
0
 49
-0.508
 74
0
  0
LTYPE
  5
3A
330
2
100
AcDbSymbolTableRecord
100
AcDbLinetypeTableRecord
  2
DASHDOT2
 70
0
  3
Dash dot (.5x) _ . _ . _ . _ . _ . _ . _ . _
 72
65
 73
4
 40
1.778
 49
1.27
 74
0
 49
-0.254
 74
0
 49
0.0
 74
0
 49
-0.254
 74
0
  0
LTYPE
  5
3B
330
2
100
AcDbSymbolTableRecord
100
AcDbLinetypeTableRecord
  2
DOT
 70
0
  3
Dot .  .  .  .  .  .  .  .  .  .  .  .  .  .  .  .
 72
65
 73
2
 40
0.508
 49
0.0
 74
0
 49
-0.508
 74
0
  0
LTYPE
  5
3C
330
2
100
AcDbSymbolTableRecord
100
AcDbLinetypeTableRecord
  2
DOTX2
 70
0
  3
Dot (2x) .    .    .    .    .    .    .    . 
 72
65
 73
2
 40
1.016
 49
0.0
 74
0
 49
-1.016
 74
0
  0
LTYPE
  5
3D
330
2
100
AcDbSymbolTableRecord
100
AcDbLinetypeTableRecord
  2
DOT2
 70
0
  3
Dot (.5) . . . . . . . . . . . . . . . . . . . 
 72
65
 73
2
 40
0.254
 49
0.0
 74
0
 49
-0.254
 74
0
  0
LTYPE
  5
3E
330
2
100
AcDbSymbolTableRecord
100
AcDbLinetypeTableRecord
  2
DIVIDE
 70
0
  3
Divide __ . . __ . . __ . . __ . . __ . . __
 72
65
 73
6
 40
4.064
 49
2.54
 74
0
 49
-0.508
 74
0
 49
0.0
 74
0
 49
-0.508
 74
0
 49
0.0
 74
0
 49
-0.508
 74
0
  0
LTYPE
  5
3F
330
2
100
AcDbSymbolTableRecord
100
AcDbLinetypeTableRecord
  2
DIVIDEX2
 70
0
  3
Divide (2x) ____  . .  ____  . .  ____  . .  ____
 72
65
 73
6
 40
6.604
 49
5.08
 74
0
 49
-0.508
 74
0
 49
0.0
 74
0
 49
-0.508
 74
0
 49
0.0
 74
0
 49
-0.508
 74
0
  0
LTYPE
  5
40
330
2
100
AcDbSymbolTableRecord
100
AcDbLinetypeTableRecord
  2
DIVIDE2
 70
0
  3
Divide(.5x) _ . _ . _ . _ . _ . _ . _ . _
 72
65
 73
6
 40
2.032
 49
1.27
 74
0
 49
-0.254
 74
0
 49
0.0
 74
0
 49
-0.254
 74
0
 49
0.0
 74
0
 49
-0.254
 74
0
  0
ENDTAB
  0
TABLE
  2
LAYER
  5
1
330
0
100
AcDbSymbolTable
 70
4
  0
LAYER
  5
27
330
1
100
AcDbSymbolTableRecord
100
AcDbLayerTableRecord
  2
0
 70
0
 62
7
  6
Continuous
370
-3
390
13
347
21
  0
LAYER
  5
28
330
1
100
AcDbSymbolTableRecord
100
AcDbLayerTableRecord
  2
Defpoints
 70
0
 62
7
  6
Continuous
290
0
370
-3
390
13
347
21
  0
LAYER
  5
8A
330
1
100
AcDbSymbolTableRecord
100
AcDbLayerTableRecord
  2
KESIM
 70
0
 62
1
  6
Continuous
370
-3
390
13
347
21
  0
LAYER
  5
8B
330
1
100
AcDbSymbolTableRecord
100
AcDbLayerTableRecord
  2
ALTIN
 70
0
 62
2
  6
Continuous
370
-3
390
13
347
21
  0
ENDTAB
  0
TABLE
  2
STYLE
  5
5
330
0
100
AcDbSymbolTable
 70
26
  0
STYLE
  5
29
330
5
100
AcDbSymbolTableRecord
100
AcDbTextStyleTableRecord
  2
Standard
 70
0
 40
0.0
 41
1.0
 50
0.0
 71
0
 42
2.5
  3
txt
  4

  0
STYLE
  5
41
330
5
100
AcDbSymbolTableRecord
100
AcDbTextStyleTableRecord
  2
OpenSans-Light
 70
0
 40
0.0
 41
1.0
 50
0.0
 71
0
 42
2.5
  3
OpenSans-Light.ttf
  4

  0
STYLE
  5
42
330
5
100
AcDbSymbolTableRecord
100
AcDbTextStyleTableRecord
  2
OpenSans-Light-Italic
 70
0
 40
0.0
 41
1.0
 50
0.0
 71
0
 42
2.5
  3
OpenSans-LightItalic.ttf
  4

  0
STYLE
  5
43
330
5
100
AcDbSymbolTableRecord
100
AcDbTextStyleTableRecord
  2
OpenSans
 70
0
 40
0.0
 41
1.0
 50
0.0
 71
0
 42
2.5
  3
OpenSans-Regular.ttf
  4

  0
STYLE
  5
44
330
5
100
AcDbSymbolTableRecord
100
AcDbTextStyleTableRecord
  2
OpenSans-Italic
 70
0
 40
0.0
 41
1.0
 50
0.0
 71
0
 42
2.5
  3
OpenSans-Italic.ttf
  4

  0
STYLE
  5
45
330
5
100
AcDbSymbolTableRecord
100
AcDbTextStyleTableRecord
  2
OpenSans-SemiBold
 70
0
 40
0.0
 41
1.0
 50
0.0
 71
0
 42
2.5
  3
OpenSans-SemiBold.ttf
  4

  0
STYLE
  5
46
330
5
100
AcDbSymbolTableRecord
100
AcDbTextStyleTableRecord
  2
OpenSans-SemiBoldItalic
 70
0
 40
0.0
 41
1.0
 50
0.0
 71
0
 42
2.5
  3
OpenSans-SemiBoldItalic.ttf
  4

  0
STYLE
  5
47
330
5
100
AcDbSymbolTableRecord
100
AcDbTextStyleTableRecord
  2
OpenSans-Bold
 70
0
 40
0.0
 41
1.0
 50
0.0
 71
0
 42
2.5
  3
OpenSans-Bold.ttf
  4

  0
STYLE
  5
48
330
5
100
AcDbSymbolTableRecord
100
AcDbTextStyleTableRecord
  2
OpenSans-BoldItalic
 70
0
 40
0.0
 41
1.0
 50
0.0
 71
0
 42
2.5
  3
OpenSans-BoldItalic.ttf
  4

  0
STYLE
  5
49
330
5
100
AcDbSymbolTableRecord
100
AcDbTextStyleTableRecord
  2
OpenSans-ExtraBold
 70
0
 40
0.0
 41
1.0
 50
0.0
 71
0
 42
2.5
  3
OpenSans-ExtraBold.ttf
  4

  0
STYLE
  5
4A
330
5
100
AcDbSymbolTableRecord
100
AcDbTextStyleTableRecord
  2
OpenSans-ExtraBoldItalic
 70
0
 40
0.0
 41
1.0
 50
0.0
 71
0
 42
2.5
  3
OpenSans-ExtraBoldItalic.ttf
  4

  0
STYLE
  5
4B
330
5
100
AcDbSymbolTableRecord
100
AcDbTextStyleTableRecord
  2
OpenSansCondensed-Bold
 70
0
 40
0.0
 41
1.0
 50
0.0
 71
0
 42
2.5
  3
OpenSansCondensed-Bold.ttf
  4

  0
STYLE
  5
4C
330
5
100
AcDbSymbolTableRecord
100
AcDbTextStyleTableRecord
  2
OpenSansCondensed-Light
 70
0
 40
0.0
 41
1.0
 50
0.0
 71
0
 42
2.5
  3
OpenSansCondensed-Light.ttf
  4

  0
STYLE
  5
4D
330
5
100
AcDbSymbolTableRecord
100
AcDbTextStyleTableRecord
  2
OpenSansCondensed-Italic
 70
0
 40
0.0
 41
1.0
 50
0.0
 71
0
 42
2.5
  3
OpenSansCondensed-LightItalic.ttf
  4

  0
STYLE
  5
4E
330
5
100
AcDbSymbolTableRecord
100
AcDbTextStyleTableRecord
  2
LiberationSans
 70
0
 40
0.0
 41
1.0
 50
0.0
 71
0
 42
2.5
  3
LiberationSans-Regular.ttf
  4

  0
STYLE
  5
4F
330
5
100
AcDbSymbolTableRecord
100
AcDbTextStyleTableRecord
  2
LiberationSans-Bold
 70
0
 40
0.0
 41
1.0
 50
0.0
 71
0
 42
2.5
  3
LiberationSans-Bold.ttf
  4

  0
STYLE
  5
50
330
5
100
AcDbSymbolTableRecord
100
AcDbTextStyleTableRecord
  2
LiberationSans-BoldItalic
 70
0
 40
0.0
 41
1.0
 50
0.0
 71
0
 42
2.5
  3
LiberationSans-BoldItalic.ttf
  4

  0
STYLE
  5
51
330
5
100
AcDbSymbolTableRecord
100
AcDbTextStyleTableRecord
  2
LiberationSans-Italic
 70
0
 40
0.0
 41
1.0
 50
0.0
 71
0
 42
2.5
  3
LiberationSans-Italic.ttf
  4

  0
STYLE
  5
52
330
5
100
AcDbSymbolTableRecord
100
AcDbTextStyleTableRecord
  2
LiberationSerif
 70
0
 40
0.0
 41
1.0
 50
0.0
 71
0
 42
2.5
  3
LiberationSerif-Regular.ttf
  4

  0
STYLE
  5
53
330
5
100
AcDbSymbolTableRecord
100
AcDbTextStyleTableRecord
  2
LiberationSerif-Bold
 70
0
 40
0.0
 41
1.0
 50
0.0
 71
0
 42
2.5
  3
LiberationSerif-Bold.ttf
  4

  0
STYLE
  5
54
330
5
100
AcDbSymbolTableRecord
100
AcDbTextStyleTableRecord
  2
LiberationSerif-BoldItalic
 70
0
 40
0.0
 41
1.0
 50
0.0
 71
0
 42
2.5
  3
LiberationSerif-BoldItalic.ttf
  4

  0
STYLE
  5
55
330
5
100
AcDbSymbolTableRecord
100
AcDbTextStyleTableRecord
  2
LiberationSerif-Italic
 70
0
 40
0.0
 41
1.0
 50
0.0
 71
0
 42
2.5
  3
LiberationSerif-Italic.ttf
  4

  0
STYLE
  5
56
330
5
100
AcDbSymbolTableRecord
100
AcDbTextStyleTableRecord
  2
LiberationMono
 70
0
 40
0.0
 41
1.0
 50
0.0
 71
0
 42
2.5
  3
LiberationMono-Regular.ttf
  4

  0
STYLE
  5
57
330
5
100
AcDbSymbolTableRecord
100
AcDbTextStyleTableRecord
  2
LiberationMono-Bold
 70
0
 40
0.0
 41
1.0
 50
0.0
 71
0
 42
2.5
  3
LiberationMono-Bold.ttf
  4

  0
STYLE
  5
58
330
5
100
AcDbSymbolTableRecord
100
AcDbTextStyleTableRecord
  2
LiberationMono-BoldItalic
 70
0
 40
0.0
 41
1.0
 50
0.0
 71
0
 42
2.5
  3
LiberationMono-BoldItalic.ttf
  4

  0
STYLE
  5
59
330
5
100
AcDbSymbolTableRecord
100
AcDbTextStyleTableRecord
  2
LiberationMono-Italic
 70
0
 40
0.0
 41
1.0
 50
0.0
 71
0
 42
2.5
  3
LiberationMono-Italic.ttf
  4

  0
ENDTAB
  0
TABLE
  2
VIEW
  5
7
330
0
100
AcDbSymbolTable
 70
0
  0
ENDTAB
  0
TABLE
  2
UCS
  5
6
330
0
100
AcDbSymbolTable
 70
0
  0
ENDTAB
  0
TABLE
  2
APPID
  5
3
330
0
100
AcDbSymbolTable
 70
3
  0
APPID
  5
2A
330
3
100
AcDbSymbolTableRecord
100
AcDbRegAppTableRecord
  2
ACAD
 70
0
  0
APPID
  5
E0
330
3
100
AcDbSymbolTableRecord
100
AcDbRegAppTableRecord
  2
HATCHBACKGROUNDCOLOR
 70
0
  0
APPID
  5
E1
330
3
100
AcDbSymbolTableRecord
100
AcDbRegAppTableRecord
  2
EZDXF
 70
0
  0
ENDTAB
  0
TABLE
  2
DIMSTYLE
  5
4
330
0
100
AcDbSymbolTable
 70
12
100
AcDbDimStyleTable
  0
DIMSTYLE
105
2B
330
4
100
AcDbSymbolTableRecord
100
AcDbDimStyleTableRecord
  2
Standard
 70
0
 40
1.0
 41
2.5
 42
0.625
 43
3.75
 44
1.25
 45
0.0
 46
0.0
 47
0.0
 48
0.0
 49
2.5
140
2.5
141
2.5
142
0.0
143
0.03937007874
144
1.0
145
0.0
146
1.0
147
0.625
148
0.0
 69
0
 70
0
 71
0
 72
0
 73
0
 74
0
 75
0
 76
0
 77
1
 78
8
 79
3
170
0
171
3
172
1
173
0
174
0
175
0
176
0
177
0
178
0
179
2
271
2
272
2
273
2
274
3
275
0
276
0
277
2
278
44
279
0
280
0
281
0
282
0
283
0
284
8
285
0
286
0
288
0
289
3
290
0
371
-2
372
-2
  0
DIMSTYLE
105
73
330
4
100
AcDbSymbolTableRecord
100
AcDbDimStyleTableRecord
  2
EZDXF
 70
0
 40
1.0
 41
0.175
 42
0.125
 43
3.75
 44
0.375
 45
0.0
 46
0.0
 47
0.0
 48
0.0
 49
2.5
140
0.25
141
2.5
142
0.0
143
0.03937007874
144
100.0
145
0.0
146
0.5
147
0.1
148
0.0
 69
0
 70
0
 71
0
 72
0
 73
0
 74
0
 75
0
 76
0
 77
1
 78
12
 79
3
170
0
171
3
172
1
173
0
174
0
175
0
176
0
177
0
178
0
179
2
271
2
272
2
273
2
274
3
275
0
276
0
277
2
278
46
279
2
280
0
281
0
282
0
283
0
284
8
285
0
286
0
288
1
289
3
290
0
340
4C
342
74
371
-2
372
-2
  0
DIMSTYLE
105
7C
330
4
100
AcDbSymbolTableRecord
100
AcDbDimStyleTableRecord
  2
EZ_M_100_H25_CM
 70
0
 40
1.0
 41
0.25
 42
0.125
 43
3.75
 44
0.375
 45
0.0
 46
0.0
 47
0.0
 48
0.0
 49
2.5
140
0.25
141
2.5
142
0.125
143
0.03937007874
144
100.0
145
0.0
146
0.5
147
0.1
148
0.0
 69
0
 70
0
 71
0
 72
0
 73
0
 74
0
 75
0
 76
0
 77
1
 78
12
 79
3
170
0
171
3
172
1
173
0
174
0
175
0
176
0
177
0
178
0
179
2
271
2
272
2
273
2
274
3
275
0
276
0
277
2
278
46
279
2
280
0
281
0
282
0
283
0
284
8
285
0
286
0
288
1
289
3
290
0
340
4C
371
-2
372
-2
  0
DIMSTYLE
105
7D
330
4
100
AcDbSymbolTableRecord
100
AcDbDimStyleTableRecord
  2
EZ_M_50_H25_CM
 70
0
 40
1.0
 41
0.125
 42
0.0625
 43
3.75
 44
0.1875
 45
0.0
 46
0.0
 47
0.0
 48
0.0
 49
2.5
140
0.125
141
2.5
142
0.0625
143
0.03937007874
144
100.0
145
0.0
146
0.5
147
0.05
148
0.0
 69
0
 70
0
 71
0
 72
0
 73
0
 74
0
 75
0
 76
0
 77
1
 78
12
 79
3
170
0
171
3
172
1
173
0
174
0
175
0
176
0
177
0
178
0
179
2
271
2
272
2
273
2
274
3
275
0
276
0
277
2
278
46
279
2
280
0
281
0
282
0
283
0
284
8
285
0
286
0
288
1
289
3
290
0
340
4C
371
-2
372
-2
  0
DIMSTYLE
105
7E
330
4
100
AcDbSymbolTableRecord
100
AcDbDimStyleTableRecord
  2
EZ_M_25_H25_CM
 70
0
 40
1.0
 41
0.0625
 42
0.03125
 43
3.75
 44
0.09375
 45
0.0
 46
0.0
 47
0.0
 48
0.0
 49
2.5
140
0.0625
141
2.5
142
0.03125
143
0.03937007874
144
100.0
145
0.0
146
0.5
147
0.025
148
0.0
 69
0
 70
0
 71
0
 72
0
 73
0
 74
0
 75
0
 76
0
 77
1
 78
12
 79
3
170
0
171
3
172
1
173
0
174
0
175
0
176
0
177
0
178
0
179
2
271
2
272
2
273
2
274
3
275
0
276
0
277
2
278
46
279
2
280
0
281
0
282
0
283
0
284
8
285
0
286
0
288
1
289
3
290
0
340
4C
371
-2
372
-2
  0
DIMSTYLE
105
7F
330
4
100
AcDbSymbolTableRecord
100
AcDbDimStyleTableRecord
  2
EZ_M_20_H25_CM
 70
0
 40
1.0
 41
0.05
 42
0.025
 43
3.75
 44
0.07500000000000001
 45
0.0
 46
0.0
 47
0.0
 48
0.0
 49
2.5
140
0.05
141
2.5
142
0.025
143
0.03937007874
144
100.0
145
0.0
146
0.5
147
0.020000000000000004
148
0.0
 69
0
 70
0
 71
0
 72
0
 73
0
 74
0
 75
0
 76
0
 77
1
 78
12
 79
3
170
0
171
3
172
1
173
0
174
0
175
0
176
0
177
0
178
0
179
2
271
2
272
2
273
2
274
3
275
0
276
0
277
2
278
46
279
2
280
0
281
0
282
0
283
0
284
8
285
0
286
0
288
1
289
3
290
0
340
4C
371
-2
372
-2
  0
DIMSTYLE
105
80
330
4
100
AcDbSymbolTableRecord
100
AcDbDimStyleTableRecord
  2
EZ_M_10_H25_CM
 70
0
 40
1.0
 41
0.025
 42
0.0125
 43
3.75
 44
0.037500000000000006
 45
0.0
 46
0.0
 47
0.0
 48
0.0
 49
2.5
140
0.025
141
2.5
142
0.0125
143
0.03937007874
144
100.0
145
0.0
146
0.5
147
0.010000000000000002
148
0.0
 69
0
 70
0
 71
0
 72
0
 73
0
 74
0
 75
0
 76
0
 77
1
 78
12
 79
3
170
0
171
3
172
1
173
0
174
0
175
0
176
0
177
0
178
0
179
2
271
2
272
2
273
2
274
3
275
0
276
0
277
2
278
46
279
2
280
0
281
0
282
0
283
0
284
8
285
0
286
0
288
1
289
3
290
0
340
4C
371
-2
372
-2
  0
DIMSTYLE
105
81
330
4
100
AcDbSymbolTableRecord
100
AcDbDimStyleTableRecord
  2
EZ_M_5_H25_CM
 70
0
 40
1.0
 41
0.0125
 42
0.00625
 43
3.75
 44
0.018750000000000003
 45
0.0
 46
0.0
 47
0.0
 48
0.0
 49
2.5
140
0.0125
141
2.5
142
0.00625
143
0.03937007874
144
100.0
145
0.0
146
0.5
147
0.005000000000000001
148
0.0
 69
0
 70
0
 71
0
 72
0
 73
0
 74
0
 75
0
 76
0
 77
1
 78
12
 79
3
170
0
171
3
172
1
173
0
174
0
175
0
176
0
177
0
178
0
179
2
271
2
272
2
273
2
274
3
275
0
276
0
277
2
278
46
279
2
280
0
281
0
282
0
283
0
284
8
285
0
286
0
288
1
289
3
290
0
340
4C
371
-2
372
-2
  0
DIMSTYLE
105
82
330
4
100
AcDbSymbolTableRecord
100
AcDbDimStyleTableRecord
  2
EZ_M_1_H25_CM
 70
0
 40
1.0
 41
0.0025
 42
0.00125
 43
3.75
 44
0.00375
 45
0.0
 46
0.0
 47
0.0
 48
0.0
 49
2.5
140
0.0025
141
2.5
142
0.00125
143
0.03937007874
144
100.0
145
0.0
146
0.5
147
0.001
148
0.0
 69
0
 70
0
 71
0
 72
0
 73
0
 74
0
 75
0
 76
0
 77
1
 78
12
 79
3
170
0
171
3
172
1
173
0
174
0
175
0
176
0
177
0
178
0
179
2
271
2
272
2
273
2
274
3
275
0
276
0
277
2
278
46
279
2
280
0
281
0
282
0
283
0
284
8
285
0
286
0
288
1
289
3
290
0
340
4C
371
-2
372
-2
  0
DIMSTYLE
105
83
330
4
100
AcDbSymbolTableRecord
100
AcDbDimStyleTableRecord
  2
EZ_RADIUS
 70
0
 40
1.0
 41
0.25
 42
0.125
 43
3.75
 44
0.375
 45
0.0
 46
0.0
 47
0.0
 48
0.0
 49
2.5
140
0.25
141
0.0
142
0.0
143
0.03937007874
144
100.0
145
0.0
146
0.5
147
0.1
148
0.0
 69
0
 70
0
 71
0
 72
0
 73
0
 74
0
 75
0
 76
0
 77
1
 78
12
 79
3
170
0
171
3
172
0
173
0
174
0
175
0
176
0
177
0
178
0
179
2
271
2
272
2
273
2
274
3
275
0
276
0
277
2
278
46
279
1
280
0
281
0
282
0
283
0
284
8
285
0
286
0
288
1
289
3
290
0
340
4C
342
84
371
-2
372
-2
  0
DIMSTYLE
105
88
330
4
100
AcDbSymbolTableRecord
100
AcDbDimStyleTableRecord
  2
EZ_RADIUS_INSIDE
 70
0
 40
1.0
 41
0.25
 42
0.125
 43
3.75
 44
0.375
 45
0.0
 46
0.0
 47
0.0
 48
0.0
 49
2.5
140
0.25
141
0.0
142
0.0
143
0.03937007874
144
100.0
145
0.0
146
0.5
147
0.1
148
0.0
 69
0
 70
0
 71
0
 72
0
 73
0
 74
0
 75
0
 76
0
 77
0
 78
12
 79
3
170
0
171
3
172
0
173
0
174
1
175
0
176
0
177
0
178
0
179
2
271
2
272
2
273
2
274
3
275
0
276
0
277
2
278
46
279
0
280
0
281
0
282
0
283
0
284
8
285
0
286
0
288
1
289
0
290
0
340
4C
342
84
371
-2
372
-2
  0
DIMSTYLE
105
89
330
4
100
AcDbSymbolTableRecord
100
AcDbDimStyleTableRecord
  2
EZ_CURVED
 70
0
 40
1.0
 41
0.25
 42
0.125
 43
3.75
 44
0.375
 45
0.0
 46
0.0
 47
0.0
 48
0.0
 49
2.5
140
0.25
141
2.5
142
0.0
143
0.03937007874
144
100.0
145
0.0
146
0.5
147
0.1
148
0.0
 69
0
 70
0
 71
0
 72
0
 73
0
 74
0
 75
0
 76
0
 77
1
 78
12
 79
2
 90
2
170
0
171
3
172
1
173
0
174
0
175
0
176
0
177
0
178
0
179
2
271
2
272
2
273
2
274
3
275
0
276
0
277
2
278
46
279
2
280
0
281
0
282
0
283
0
284
8
285
0
286
0
288
1
289
3
290
0
340
4C
371
-2
372
-2
  0
ENDTAB
  0
TABLE
  2
BLOCK_RECORD
  5
9
330
0
100
AcDbSymbolTable
 70
5
  0
BLOCK_RECORD
  5
17
330
9
100
AcDbSymbolTableRecord
100
AcDbBlockTableRecord
  2
*Model_Space
340
1A
 70
0
280
1
281
0
  0
BLOCK_RECORD
  5
1B
330
9
100
AcDbSymbolTableRecord
100
AcDbBlockTableRecord
  2
*Paper_Space
340
1E
 70
0
280
1
281
0
  0
BLOCK_RECORD
  5
74
330
9
100
AcDbSymbolTableRecord
100
AcDbBlockTableRecord
  2
_ARCHTICK
340
0
 70
0
280
1
281
0
  0
BLOCK_RECORD
  5
78
330
9
100
AcDbSymbolTableRecord
100
AcDbBlockTableRecord
  2
_CLOSEDFILLED
340
0
 70
0
280
1
281
0
  0
BLOCK_RECORD
  5
84
330
9
100
AcDbSymbolTableRecord
100
AcDbBlockTableRecord
  2
_CLOSEDBLANK
340
0
 70
0
280
1
281
0
  0
ENDTAB
  0
ENDSEC
  0
SECTION
  2
BLOCKS
  0
BLOCK
  5
18
330
17
100
AcDbEntity
  8
0
100
AcDbBlockBegin
  2
*Model_Space
 70
0
 10
0.0
 20
0.0
 30
0.0
  3
*Model_Space
  1

  0
ENDBLK
  5
19
330
17
100
AcDbEntity
  8
0
100
AcDbBlockEnd
  0
BLOCK
  5
1C
330
1B
100
AcDbEntity
  8
0
100
AcDbBlockBegin
  2
*Paper_Space
 70
0
 10
0.0
 20
0.0
 30
0.0
  3
*Paper_Space
  1

  0
ENDBLK
  5
1D
330
1B
100
AcDbEntity
  8
0
100
AcDbBlockEnd
  0
BLOCK
  5
75
330
74
100
AcDbEntity
  8
0
100
AcDbBlockBegin
  2
_ARCHTICK
 70
0
 10
0.0
 20
0.0
 30
0.0
  3
_ARCHTICK
  1

  0
LWPOLYLINE
  5
77
330
74
100
AcDbEntity
  8
0
  6
BYBLOCK
 62
0
100
AcDbPolyline
 90
2
 70
0
 43
0.15
 10
-0.5
 20
-0.5
 10
0.5
 20
0.5
  0
ENDBLK
  5
76
330
74
100
AcDbEntity
  8
0
100
AcDbBlockEnd
  0
BLOCK
  5
79
330
78
100
AcDbEntity
  8
0
100
AcDbBlockBegin
  2
_CLOSEDFILLED
 70
0
 10
0.0
 20
0.0
 30
0.0
  3
_CLOSEDFILLED
  1

  0
SOLID
  5
7B
330
78
100
AcDbEntity
  8
0
  6
BYBLOCK
 62
0
100
AcDbTrace
 10
-1.0
 20
0.16439898372402537
 30
0.0
 11
0.0
 21
0.0
 31
0.0
 12
-1.0
 22
-0.16439898372402537
 32
0.0
 13
-1.0
 23
-0.16439898372402537
 33
0.0
  0
ENDBLK
  5
7A
330
78
100
AcDbEntity
  8
0
100
AcDbBlockEnd
  0
BLOCK
  5
85
330
84
100
AcDbEntity
  8
0
100
AcDbBlockBegin
  2
_CLOSEDBLANK
 70
0
 10
0.0
 20
0.0
 30
0.0
  3
_CLOSEDBLANK
  1

  0
LWPOLYLINE
  5
87
330
84
100
AcDbEntity
  8
0
  6
BYBLOCK
 62
0
100
AcDbPolyline
 90
3
 70
1
 10
-1.0
 20
0.16439898372402537
 10
0.0
 20
0.0
 10
-1.0
 20
-0.16439898372402537
  0
ENDBLK
  5
86
330
84
100
AcDbEntity
  8
0
100
AcDbBlockEnd
  0
ENDSEC
  0
SECTION
  2
ENTITIES
  0
CIRCLE
  5
8C
330
17
100
AcDbEntity
  8
KESIM
100
AcDbCircle
 10
0.0
 20
0.0
 30
0.0
 40
14.25
  0
CIRCLE
  5
8D
330
17
100
AcDbEntity
  8
KESIM
100
AcDbCircle
 10
-9.541305298704166e-18
 20
2.8009414288037575e-17
 30
0.0
 40
1.0499950585000548
  0
LWPOLYLINE
  5
8E
330
17
100
AcDbEntity
  8
KESIM
100
AcDbPolyline
 90
68
 70
1
 10
12.0
 20
-0.65
 10
11.9983
 20
-0.6843
 10
11.9933
 20
-0.7183
 10
11.9849
 20
-0.7516
 10
11.9734
 20
-0.7839
 10
11.9587
 20
-0.815
 10
11.941
 20
-0.8444
 10
11.9206
 20
-0.872
 10
11.8975
 20
-0.8975
 10
11.872
 20
-0.9206
 10
11.8444
 20
-0.941
 10
11.815
 20
-0.9587
 10
11.7839
 20
-0.9734
 10
11.7516
 20
-0.9849
 10
11.7183
 20
-0.9933
 10
11.6843
 20
-0.9983
 10
11.65
 20
-1.0
 10
9.45
 20
-1.0
 10
9.4157
 20
-0.9983
 10
9.3817
 20
-0.9933
 10
9.3484
 20
-0.9849
 10
9.3161
 20
-0.9734
 10
9.285
 20
-0.9587
 10
9.2556
 20
-0.941
 10
9.228
 20
-0.9206
 10
9.2025
 20
-0.8975
 10
9.1794
 20
-0.872
 10
9.159
 20
-0.8444
 10
9.1413
 20
-0.815
 10
9.1266
 20
-0.7839
 10
9.1151
 20
-0.7516
 10
9.1067
 20
-0.7183
 10
9.1017
 20
-0.6843
 10
9.1
 20
-0.65
 10
9.1
 20
0.65
 10
9.1017
 20
0.6843
 10
9.1067
 20
0.7183
 10
9.1151
 20
0.7516
 10
9.1266
 20
0.7839
 10
9.1413
 20
0.815
 10
9.159
 20
0.8444
 10
9.1794
 20
0.872
 10
9.2025
 20
0.8975
 10
9.228
 20
0.9206
 10
9.2556
 20
0.941
 10
9.285
 20
0.9587
 10
9.3161
 20
0.9734
 10
9.3484
 20
0.9849
 10
9.3817
 20
0.9933
 10
9.4157
 20
0.9983
 10
9.45
 20
1.0
 10
11.65
 20
1.0
 10
11.6843
 20
0.9983
 10
11.7183
 20
0.9933
 10
11.7516
 20
0.9849
 10
11.7839
 20
0.9734
 10
11.815
 20
0.9587
 10
11.8444
 20
0.941
 10
11.872
 20
0.9206
 10
11.8975
 20
0.8975
 10
11.9206
 20
0.872
 10
11.941
 20
0.8444
 10
11.9587
 20
0.815
 10
11.9734
 20
0.7839
 10
11.9849
 20
0.7516
 10
11.9933
 20
0.7183
 10
11.9983
 20
0.6843
 10
12.0
 20
0.65
  0
LWPOLYLINE
  5
8F
330
17
100
AcDbEntity
  8
ALTIN
100
AcDbPolyline
 90
4
 70
1
 10
-6.1861
 20
-10.9546
 10
-6.5461
 20
-11.5781
 10
-6.7539
 20
-11.4581
 10
-6.3939
 20
-10.8346
  0
LWPOLYLINE
  5
90
330
17
100
AcDbEntity
  8
ALTIN
100
AcDbPolyline
 90
4
 70
1
 10
-7.4042
 20
-10.3186
 10
-7.7569
 20
-10.804
 10
-7.8782
 20
-10.7158
 10
-7.5255
 20
-10.2304
  0
LWPOLYLINE
  5
91
330
17
100
AcDbEntity
  8
ALTIN
100
AcDbPolyline
 90
4
 70
1
 10
-8.4422
 20
-9.4881
 10
-8.8437
 20
-9.934
 10
-8.9552
 20
-9.8336
 10
-8.5537
 20
-9.3878
  0
LWPOLYLINE
  5
92
330
17
100
AcDbEntity
  8
ALTIN
100
AcDbPolyline
 90
4
 70
1
 10
-9.3878
 20
-8.5537
 10
-9.8336
 20
-8.9552
 10
-9.934
 20
-8.8437
 10
-9.4881
 20
-8.4422
  0
LWPOLYLINE
  5
93
330
17
100
AcDbEntity
  8
ALTIN
100
AcDbPolyline
 90
4
 70
1
 10
-10.2304
 20
-7.5255
 10
-10.7158
 20
-7.8782
 10
-10.804
 20
-7.7569
 10
-10.3186
 20
-7.4042
  0
LWPOLYLINE
  5
94
330
17
100
AcDbEntity
  8
ALTIN
100
AcDbPolyline
 90
4
 70
1
 10
-10.8346
 20
-6.3939
 10
-11.4581
 20
-6.7539
 10
-11.5781
 20
-6.5461
 10
-10.9546
 20
-6.1861
  0
LWPOLYLINE
  5
95
330
17
100
AcDbEntity
  8
ALTIN
100
AcDbPolyline
 90
4
 70
1
 10
-10.6772
 20
-5.8065
 10
-8.772
 20
-4.7065
 10
-8.462
 20
-5.2435
 10
-10.3672
 20
-6.3435
  0
LWPOLYLINE
  5
96
330
17
100
AcDbEntity
  8
ALTIN
100
AcDbPolyline
 90
4
 70
1
 10
-12.1196
 20
-5.4781
 10
-12.1807
 20
-5.3411
 10
-11.6325
 20
-5.097
 10
-11.5715
 20
-5.2341
  0
LWPOLYLINE
  5
97
330
17
100
AcDbEntity
  8
ALTIN
100
AcDbPolyline
 90
4
 70
1
 10
-12.6259
 20
-4.1813
 10
-12.6722
 20
-4.0386
 10
-12.1016
 20
-3.8532
 10
-12.0552
 20
-3.9958
  0
LWPOLYLINE
  5
98
330
17
100
AcDbEntity
  8
ALTIN
100
AcDbPolyline
 90
4
 70
1
 10
-12.4069
 20
-2.7138
 10
-12.9938
 20
-2.8386
 10
-13.025
 20
-2.6919
 10
-12.4381
 20
-2.5671
  0
LWPOLYLINE
  5
99
330
17
100
AcDbEntity
  8
ALTIN
100
AcDbPolyline
 90
4
 70
1
 10
-12.6226
 20
-1.4021
 10
-13.2193
 20
-1.4648
 10
-13.235
 20
-1.3156
 10
-12.6383
 20
-1.2529
  0
LWPOLYLINE
  5
9A
330
17
100
AcDbEntity
  8
ALTIN
100
AcDbPolyline
 90
4
 70
1
 10
-12.58
 20
-0.12
 10
-13.3
 20
-0.12
 10
-13.3
 20
0.12
 10
-12.58
 20
0.12
  0
LWPOLYLINE
  5
9B
330
17
100
AcDbEntity
  8
ALTIN
100
AcDbPolyline
 90
4
 70
1
 10
-12.15
 20
0.31
 10
-9.95
 20
0.31
 10
-9.95
 20
-0.31
 10
-12.15
 20
-0.31
  0
LWPOLYLINE
  5
9C
330
17
100
AcDbEntity
  8
ALTIN
100
AcDbPolyline
 90
4
 70
1
 10
-12.6383
 20
1.2529
 10
-13.235
 20
1.3156
 10
-13.2193
 20
1.4648
 10
-12.6226
 20
1.4021
  0
LWPOLYLINE
  5
9D
330
17
100
AcDbEntity
  8
ALTIN
100
AcDbPolyline
 90
4
 70
1
 10
-12.4381
 20
2.5671
 10
-13.025
 20
2.6919
 10
-12.9938
 20
2.8386
 10
-12.4069
 20
2.7138
  0
LWPOLYLINE
  5
9E
330
17
100
AcDbEntity
  8
ALTIN
100
AcDbPolyline
 90
4
 70
1
 10
-12.1016
 20
3.8532
 10
-12.6722
 20
4.0386
 10
-12.6259
 20
4.1813
 10
-12.0552
 20
3.9958
  0
LWPOLYLINE
  5
9F
330
17
100
AcDbEntity
  8
ALTIN
100
AcDbPolyline
 90
4
 70
1
 10
-12.1807
 20
5.3411
 10
-12.1196
 20
5.4781
 10
-11.5715
 20
5.2341
 10
-11.6325
 20
5.097
  0
LWPOLYLINE
  5
A0
330
17
100
AcDbEntity
  8
ALTIN
100
AcDbPolyline
 90
4
 70
1
 10
-8.462
 20
5.2435
 10
-8.772
 20
4.7065
 10
-10.6772
 20
5.8065
 10
-10.3672
 20
6.3435
  0
LWPOLYLINE
  5
A1
330
17
100
AcDbEntity
  8
ALTIN
100
AcDbPolyline
 90
4
 70
1
 10
-10.9546
 20
6.1861
 10
-11.5781
 20
6.5461
 10
-11.4581
 20
6.7539
 10
-10.8346
 20
6.3939
  0
LWPOLYLINE
  5
A2
330
17
100
AcDbEntity
  8
ALTIN
100
AcDbPolyline
 90
4
 70
1
 10
-10.3186
 20
7.4042
 10
-10.804
 20
7.7569
 10
-10.7158
 20
7.8782
 10
-10.2304
 20
7.5255
  0
LWPOLYLINE
  5
A3
330
17
100
AcDbEntity
  8
ALTIN
100
AcDbPolyline
 90
4
 70
1
 10
-9.4881
 20
8.4422
 10
-9.934
 20
8.8437
 10
-9.8336
 20
8.9552
 10
-9.3878
 20
8.5537
  0
LWPOLYLINE
  5
A4
330
17
100
AcDbEntity
  8
ALTIN
100
AcDbPolyline
 90
4
 70
1
 10
-8.5537
 20
9.3878
 10
-8.9552
 20
9.8336
 10
-8.8437
 20
9.934
 10
-8.4422
 20
9.4881
  0
LWPOLYLINE
  5
A5
330
17
100
AcDbEntity
  8
ALTIN
100
AcDbPolyline
 90
4
 70
1
 10
-7.5255
 20
10.2304
 10
-7.8782
 20
10.7158
 10
-7.7569
 20
10.804
 10
-7.4042
 20
10.3186
  0
LWPOLYLINE
  5
A6
330
17
100
AcDbEntity
  8
ALTIN
100
AcDbPolyline
 90
4
 70
1
 10
-6.3939
 20
10.8346
 10
-6.7539
 20
11.4581
 10
-6.5461
 20
11.5781
 10
-6.1861
 20
10.9546
  0
LWPOLYLINE
  5
A7
330
17
100
AcDbEntity
  8
ALTIN
100
AcDbPolyline
 90
4
 70
1
 10
0.12
 20
-12.58
 10
0.12
 20
-13.3
 10
-0.12
 20
-13.3
 10
-0.12
 20
-12.58
  0
LWPOLYLINE
  5
A8
330
17
100
AcDbEntity
  8
ALTIN
100
AcDbPolyline
 90
4
 70
1
 10
1.4648
 20
-13.2193
 10
1.3156
 20
-13.235
 10
1.2529
 20
-12.6383
 10
1.4021
 20
-12.6226
  0
LWPOLYLINE
  5
A9
330
17
100
AcDbEntity
  8
ALTIN
100
AcDbPolyline
 90
4
 70
1
 10
-1.3156
 20
-13.235
 10
-1.4648
 20
-13.2193
 10
-1.4021
 20
-12.6226
 10
-1.2529
 20
-12.6383
  0
LWPOLYLINE
  5
AA
330
17
100
AcDbEntity
  8
ALTIN
100
AcDbPolyline
 90
4
 70
1
 10
2.7138
 20
-12.4069
 10
2.8386
 20
-12.9938
 10
2.6919
 20
-13.025
 10
2.5671
 20
-12.4381
  0
LWPOLYLINE
  5
AB
330
17
100
AcDbEntity
  8
ALTIN
100
AcDbPolyline
 90
4
 70
1
 10
-2.5671
 20
-12.4381
 10
-2.6919
 20
-13.025
 10
-2.8386
 20
-12.9938
 10
-2.7138
 20
-12.4069
  0
LWPOLYLINE
  5
AC
330
17
100
AcDbEntity
  8
ALTIN
100
AcDbPolyline
 90
4
 70
1
 10
-3.8532
 20
-12.1016
 10
-4.0386
 20
-12.6722
 10
-4.1813
 20
-12.6259
 10
-3.9958
 20
-12.0552
  0
LWPOLYLINE
  5
AD
330
17
100
AcDbEntity
  8
ALTIN
100
AcDbPolyline
 90
4
 70
1
 10
3.9958
 20
-12.0552
 10
4.1813
 20
-12.6259
 10
4.0386
 20
-12.6722
 10
3.8532
 20
-12.1016
  0
LWPOLYLINE
  5
AE
330
17
100
AcDbEntity
  8
ALTIN
100
AcDbPolyline
 90
4
 70
1
 10
5.2341
 20
-11.5715
 10
5.4781
 20
-12.1196
 10
5.3411
 20
-12.1807
 10
5.097
 20
-11.6325
  0
LWPOLYLINE
  5
AF
330
17
100
AcDbEntity
  8
ALTIN
100
AcDbPolyline
 90
4
 70
1
 10
-5.097
 20
-11.6325
 10
-5.3411
 20
-12.1807
 10
-5.4781
 20
-12.1196
 10
-5.2341
 20
-11.5715
  0
LWPOLYLINE
  5
B0
330
17
100
AcDbEntity
  8
ALTIN
100
AcDbPolyline
 90
4
 70
1
 10
-0.31
 20
-12.15
 10
-0.31
 20
-9.95
 10
0.31
 20
-9.95
 10
0.31
 20
-12.15
  0
LWPOLYLINE
  5
B1
330
17
100
AcDbEntity
  8
ALTIN
100
AcDbPolyline
 90
4
 70
1
 10
-5.2435
 20
-8.462
 10
-4.7065
 20
-8.772
 10
-5.8065
 20
-10.6772
 10
-6.3435
 20
-10.3672
  0
LWPOLYLINE
  5
B2
330
17
100
AcDbEntity
  8
ALTIN
100
AcDbPolyline
 90
4
 70
1
 10
-4.7065
 20
8.772
 10
-5.2435
 20
8.462
 10
-6.3435
 20
10.3672
 10
-5.8065
 20
10.6772
  0
LWPOLYLINE
  5
B3
330
17
100
AcDbEntity
  8
ALTIN
100
AcDbPolyline
 90
4
 70
1
 10
6.3435
 20
10.3672
 10
5.2435
 20
8.462
 10
4.7065
 20
8.772
 10
5.8065
 20
10.6772
  0
LWPOLYLINE
  5
B4
330
17
100
AcDbEntity
  8
ALTIN
100
AcDbPolyline
 90
4
 70
1
 10
-0.17
 20
12.15
 10
-0.17
 20
9.65
 10
-0.67
 20
9.65
 10
-0.67
 20
12.15
  0
LWPOLYLINE
  5
B5
330
17
100
AcDbEntity
  8
ALTIN
100
AcDbPolyline
 90
4
 70
1
 10
0.67
 20
12.15
 10
0.67
 20
9.65
 10
0.17
 20
9.65
 10
0.17
 20
12.15
  0
LWPOLYLINE
  5
B6
330
17
100
AcDbEntity
  8
ALTIN
100
AcDbPolyline
 90
4
 70
1
 10
5.097
 20
11.6325
 10
5.3411
 20
12.1807
 10
5.4781
 20
12.1196
 10
5.2341
 20
11.5715
  0
LWPOLYLINE
  5
B7
330
17
100
AcDbEntity
  8
ALTIN
100
AcDbPolyline
 90
4
 70
1
 10
-5.2341
 20
11.5715
 10
-5.4781
 20
12.1196
 10
-5.3411
 20
12.1807
 10
-5.097
 20
11.6325
  0
LWPOLYLINE
  5
B8
330
17
100
AcDbEntity
  8
ALTIN
100
AcDbPolyline
 90
4
 70
1
 10
-3.9958
 20
12.0552
 10
-4.1813
 20
12.6259
 10
-4.0386
 20
12.6722
 10
-3.8532
 20
12.1016
  0
LWPOLYLINE
  5
B9
330
17
100
AcDbEntity
  8
ALTIN
100
AcDbPolyline
 90
4
 70
1
 10
3.8532
 20
12.1016
 10
4.0386
 20
12.6722
 10
4.1813
 20
12.6259
 10
3.9958
 20
12.0552
  0
LWPOLYLINE
  5
BA
330
17
100
AcDbEntity
  8
ALTIN
100
AcDbPolyline
 90
4
 70
1
 10
-2.8386
 20
12.9938
 10
-2.6919
 20
13.025
 10
-2.5671
 20
12.4381
 10
-2.7138
 20
12.4069
  0
LWPOLYLINE
  5
BB
330
17
100
AcDbEntity
  8
ALTIN
100
AcDbPolyline
 90
4
 70
1
 10
2.6919
 20
13.025
 10
2.8386
 20
12.9938
 10
2.7138
 20
12.4069
 10
2.5671
 20
12.4381
  0
LWPOLYLINE
  5
BC
330
17
100
AcDbEntity
  8
ALTIN
100
AcDbPolyline
 90
4
 70
1
 10
1.2529
 20
12.6383
 10
1.3156
 20
13.235
 10
1.4648
 20
13.2193
 10
1.4021
 20
12.6226
  0
LWPOLYLINE
  5
BD
330
17
100
AcDbEntity
  8
ALTIN
100
AcDbPolyline
 90
4
 70
1
 10
-1.4021
 20
12.6226
 10
-1.4648
 20
13.2193
 10
-1.3156
 20
13.235
 10
-1.2529
 20
12.6383
  0
LWPOLYLINE
  5
BE
330
17
100
AcDbEntity
  8
ALTIN
100
AcDbPolyline
 90
4
 70
1
 10
-0.12
 20
12.58
 10
-0.12
 20
13.3
 10
0.12
 20
13.3
 10
0.12
 20
12.58
  0
LWPOLYLINE
  5
BF
330
17
100
AcDbEntity
  8
ALTIN
100
AcDbPolyline
 90
4
 70
1
 10
6.3939
 20
-10.8346
 10
6.7539
 20
-11.4581
 10
6.5461
 20
-11.5781
 10
6.1861
 20
-10.9546
  0
LWPOLYLINE
  5
C0
330
17
100
AcDbEntity
  8
ALTIN
100
AcDbPolyline
 90
4
 70
1
 10
7.5255
 20
-10.2304
 10
7.8782
 20
-10.7158
 10
7.7569
 20
-10.804
 10
7.4042
 20
-10.3186
  0
LWPOLYLINE
  5
C1
330
17
100
AcDbEntity
  8
ALTIN
100
AcDbPolyline
 90
4
 70
1
 10
8.5537
 20
-9.3878
 10
8.9552
 20
-9.8336
 10
8.8437
 20
-9.934
 10
8.4422
 20
-9.4881
  0
LWPOLYLINE
  5
C2
330
17
100
AcDbEntity
  8
ALTIN
100
AcDbPolyline
 90
4
 70
1
 10
5.8065
 20
-10.6772
 10
4.7065
 20
-8.772
 10
5.2435
 20
-8.462
 10
6.3435
 20
-10.3672
  0
LWPOLYLINE
  5
C3
330
17
100
AcDbEntity
  8
ALTIN
100
AcDbPolyline
 90
4
 70
1
 10
9.934
 20
-8.8437
 10
9.8336
 20
-8.9552
 10
9.3878
 20
-8.5537
 10
9.4881
 20
-8.4422
  0
LWPOLYLINE
  5
C4
330
17
100
AcDbEntity
  8
ALTIN
100
AcDbPolyline
 90
4
 70
1
 10
10.804
 20
-7.7569
 10
10.7158
 20
-7.8782
 10
10.2304
 20
-7.5255
 10
10.3186
 20
-7.4042
  0
LWPOLYLINE
  5
C5
330
17
100
AcDbEntity
  8
ALTIN
100
AcDbPolyline
 90
4
 70
1
 10
10.9546
 20
-6.1861
 10
11.5781
 20
-6.5461
 10
11.4581
 20
-6.7539
 10
10.8346
 20
-6.3939
  0
LWPOLYLINE
  5
C6
330
17
100
AcDbEntity
  8
ALTIN
100
AcDbPolyline
 90
4
 70
1
 10
10.3672
 20
-6.3435
 10
8.462
 20
-5.2435
 10
8.772
 20
-4.7065
 10
10.6772
 20
-5.8065
  0
LWPOLYLINE
  5
C7
330
17
100
AcDbEntity
  8
ALTIN
100
AcDbPolyline
 90
4
 70
1
 10
11.6325
 20
-5.097
 10
12.1807
 20
-5.3411
 10
12.1196
 20
-5.4781
 10
11.5715
 20
-5.2341
  0
LWPOLYLINE
  5
C8
330
17
100
AcDbEntity
  8
ALTIN
100
AcDbPolyline
 90
4
 70
1
 10
12.1016
 20
-3.8532
 10
12.6722
 20
-4.0386
 10
12.6259
 20
-4.1813
 10
12.0552
 20
-3.9958
  0
LWPOLYLINE
  5
C9
330
17
100
AcDbEntity
  8
ALTIN
100
AcDbPolyline
 90
4
 70
1
 10
12.4381
 20
-2.5671
 10
13.025
 20
-2.6919
 10
12.9938
 20
-2.8386
 10
12.4069
 20
-2.7138
  0
LWPOLYLINE
  5
CA
330
17
100
AcDbEntity
  8
ALTIN
100
AcDbPolyline
 90
4
 70
1
 10
12.6383
 20
-1.2529
 10
13.235
 20
-1.3156
 10
13.2193
 20
-1.4648
 10
12.6226
 20
-1.4021
  0
LWPOLYLINE
  5
CB
330
17
100
AcDbEntity
  8
ALTIN
100
AcDbPolyline
 90
4
 70
1
 10
12.58
 20
0.12
 10
13.3
 20
0.12
 10
13.3
 20
-0.12
 10
12.58
 20
-0.12
  0
LWPOLYLINE
  5
CC
330
17
100
AcDbEntity
  8
ALTIN
100
AcDbPolyline
 90
4
 70
1
 10
13.2193
 20
1.4648
 10
13.235
 20
1.3156
 10
12.6383
 20
1.2529
 10
12.6226
 20
1.4021
  0
LWPOLYLINE
  5
CD
330
17
100
AcDbEntity
  8
ALTIN
100
AcDbPolyline
 90
4
 70
1
 10
12.9938
 20
2.8386
 10
13.025
 20
2.6919
 10
12.4381
 20
2.5671
 10
12.4069
 20
2.7138
  0
LWPOLYLINE
  5
CE
330
17
100
AcDbEntity
  8
ALTIN
100
AcDbPolyline
 90
4
 70
1
 10
12.0552
 20
3.9958
 10
12.6259
 20
4.1813
 10
12.6722
 20
4.0386
 10
12.1016
 20
3.8532
  0
LWPOLYLINE
  5
CF
330
17
100
AcDbEntity
  8
ALTIN
100
AcDbPolyline
 90
4
 70
1
 10
11.5715
 20
5.2341
 10
12.1196
 20
5.4781
 10
12.1807
 20
5.3411
 10
11.6325
 20
5.097
  0
LWPOLYLINE
  5
D0
330
17
100
AcDbEntity
  8
ALTIN
100
AcDbPolyline
 90
4
 70
1
 10
10.6772
 20
5.8065
 10
8.772
 20
4.7065
 10
8.462
 20
5.2435
 10
10.3672
 20
6.3435
  0
LWPOLYLINE
  5
D1
330
17
100
AcDbEntity
  8
ALTIN
100
AcDbPolyline
 90
4
 70
1
 10
10.8346
 20
6.3939
 10
11.4581
 20
6.7539
 10
11.5781
 20
6.5461
 10
10.9546
 20
6.1861
  0
LWPOLYLINE
  5
D2
330
17
100
AcDbEntity
  8
ALTIN
100
AcDbPolyline
 90
4
 70
1
 10
10.2304
 20
7.5255
 10
10.7158
 20
7.8782
 10
10.804
 20
7.7569
 10
10.3186
 20
7.4042
  0
LWPOLYLINE
  5
D3
330
17
100
AcDbEntity
  8
ALTIN
100
AcDbPolyline
 90
4
 70
1
 10
9.3878
 20
8.5537
 10
9.8336
 20
8.9552
 10
9.934
 20
8.8437
 10
9.4881
 20
8.4422
  0
LWPOLYLINE
  5
D4
330
17
100
AcDbEntity
  8
ALTIN
100
AcDbPolyline
 90
4
 70
1
 10
8.4422
 20
9.4881
 10
8.8437
 20
9.934
 10
8.9552
 20
9.8336
 10
8.5537
 20
9.3878
  0
LWPOLYLINE
  5
D5
330
17
100
AcDbEntity
  8
ALTIN
100
AcDbPolyline
 90
4
 70
1
 10
7.7569
 20
10.804
 10
7.8782
 20
10.7158
 10
7.5255
 20
10.2304
 10
7.4042
 20
10.3186
  0
LWPOLYLINE
  5
D6
330
17
100
AcDbEntity
  8
ALTIN
100
AcDbPolyline
 90
4
 70
1
 10
6.5461
 20
11.5781
 10
6.7539
 20
11.4581
 10
6.3939
 20
10.8346
 10
6.1861
 20
10.9546
  0
LWPOLYLINE
  5
D7
330
17
100
AcDbEntity
  8
ALTIN
100
AcDbPolyline
 90
74
 70
1
 10
2.0144
 20
6.6829
 10
2.0101
 20
6.7058
 10
2.0056
 20
6.7247
 10
2.0056
 20
6.7278
 10
2.1483
 20
6.7278
 10
2.1483
 20
6.7247
 10
2.1436
 20
6.7058
 10
2.1391
 20
6.6829
 10
2.1351
 20
6.6549
 10
2.1319
 20
6.6208
 10
2.1293
 20
6.5801
 10
2.127
 20
6.5325
 10
2.1255
 20
6.4773
 10
2.125
 20
6.4134
 10
2.125
 20
5.9805
 10
2.1168
 20
5.8742
 10
2.0921
 20
5.7847
 10
2.0529
 20
5.7111
 10
2.0008
 20
5.652
 10
1.9364
 20
5.6074
 10
1.8604
 20
5.5768
 10
1.7747
 20
5.5589
 10
1.6815
 20
5.5529
 10
1.5878
 20
5.5586
 10
1.5006
 20
5.5755
 10
1.4223
 20
5.6048
 10
1.3548
 20
5.6479
 10
1.2994
 20
5.7056
 10
1.2573
 20
5.778
 10
1.2309
 20
5.8665
 10
1.2221
 20
5.9725
 10
1.2221
 20
6.4134
 10
1.2217
 20
6.4773
 10
1.2203
 20
6.5325
 10
1.2183
 20
6.5801
 10
1.2154
 20
6.6208
 10
1.212
 20
6.6549
 10
1.208
 20
6.6829
 10
1.2035
 20
6.7058
 10
1.1988
 20
6.7247
 10
1.1988
 20
6.7278
 10
1.3912
 20
6.7278
 10
1.3912
 20
6.7247
 10
1.3865
 20
6.7058
 10
1.382
 20
6.6829
 10
1.3779
 20
6.6549
 10
1.3743
 20
6.6208
 10
1.3715
 20
6.5801
 10
1.3694
 20
6.5325
 10
1.3683
 20
6.4773
 10
1.3679
 20
6.4134
 10
1.3679
 20
5.9636
 10
1.375
 20
5.8764
 10
1.3964
 20
5.806
 10
1.4294
 20
5.7503
 10
1.4713
 20
5.7074
 10
1.5212
 20
5.6764
 10
1.5773
 20
5.6564
 10
1.6372
 20
5.6456
 10
1.6984
 20
5.642
 10
1.7595
 20
5.6456
 10
1.8193
 20
5.6564
 10
1.8755
 20
5.6764
 10
1.9248
 20
5.7074
 10
1.9666
 20
5.7503
 10
1.9995
 20
5.806
 10
2.0208
 20
5.8764
 10
2.028
 20
5.9636
 10
2.028
 20
6.4134
 10
2.0276
 20
6.4773
 10
2.0264
 20
6.5325
 10
2.0244
 20
6.5801
 10
2.0216
 20
6.6208
 10
2.0182
 20
6.6549
  0
LWPOLYLINE
  5
D8
330
17
100
AcDbEntity
  8
ALTIN
100
AcDbPolyline
 90
40
 70
1
 10
-2.3478
 20
6.2747
 10
-2.3362
 20
6.1465
 10
-2.3406
 20
6.0709
 10
-2.3539
 20
5.9964
 10
-2.3755
 20
5.9247
 10
-2.4055
 20
5.8568
 10
-2.4435
 20
5.7936
 10
-2.4894
 20
5.7354
 10
-2.5425
 20
5.6835
 10
-2.6028
 20
5.6392
 10
-2.6698
 20
5.603
 10
-2.7435
 20
5.5758
 10
-2.8235
 20
5.5586
 10
-2.9095
 20
5.5529
 10
-3.0384
 20
5.5636
 10
-3.1569
 20
5.5958
 10
-3.2627
 20
5.6478
 10
-3.353
 20
5.7174
 10
-3.4267
 20
5.8039
 10
-3.4823
 20
5.9061
 10
-3.5172
 20
6.0225
 10
-3.5288
 20
6.1512
 10
-3.5244
 20
6.2267
 10
-3.5111
 20
6.301
 10
-3.4893
 20
6.3731
 10
-3.4595
 20
6.4414
 10
-3.4216
 20
6.5054
 10
-3.3761
 20
6.5638
 10
-3.323
 20
6.6158
 10
-3.2629
 20
6.6603
 10
-3.1957
 20
6.6968
 10
-3.1218
 20
6.7242
 10
-3.0414
 20
6.7414
 10
-2.9552
 20
6.7471
 10
-2.8264
 20
6.7362
 10
-2.7078
 20
6.7034
 10
-2.6021
 20
6.651
 10
-2.5117
 20
6.5808
 10
-2.4381
 20
6.4938
 10
-2.3826
 20
6.3911
  0
LWPOLYLINE
  5
D9
330
17
100
AcDbEntity
  8
ALTIN
100
AcDbPolyline
 90
32
 70
1
 10
-2.5143
 20
5.9927
 10
-2.5069
 20
6.0983
 10
-2.514
 20
6.2172
 10
-2.5353
 20
6.3272
 10
-2.5708
 20
6.4256
 10
-2.62
 20
6.5099
 10
-2.6832
 20
6.579
 10
-2.7602
 20
6.6311
 10
-2.8508
 20
6.664
 10
-2.9552
 20
6.675
 10
-3.0405
 20
6.667
 10
-3.1182
 20
6.6431
 10
-3.1868
 20
6.6044
 10
-3.2452
 20
6.5513
 10
-3.2927
 20
6.4843
 10
-3.3284
 20
6.4037
 10
-3.3505
 20
6.3104
 10
-3.3579
 20
6.205
 10
-3.3509
 20
6.0865
 10
-3.3299
 20
5.9761
 10
-3.2947
 20
5.8769
 10
-3.2457
 20
5.7919
 10
-3.1825
 20
5.7224
 10
-3.1053
 20
5.6694
 10
-3.0143
 20
5.6361
 10
-2.9095
 20
5.625
 10
-2.8243
 20
5.6331
 10
-2.7468
 20
5.6571
 10
-2.6781
 20
5.6964
 10
-2.6198
 20
5.75
 10
-2.5723
 20
5.8178
 10
-2.5366
 20
5.8989
  0
LWPOLYLINE
  5
DA
330
17
100
AcDbEntity
  8
ALTIN
100
AcDbPolyline
 90
95
 70
1
 10
0.6031
 20
5.6279
 10
0.5593
 20
5.6065
 10
0.512
 20
5.5881
 10
0.4612
 20
5.5733
 10
0.4065
 20
5.5622
 10
0.3479
 20
5.5552
 10
0.2851
 20
5.5529
 10
0.1455
 20
5.5636
 10
0.0187
 20
5.5958
 10
-0.0929
 20
5.6478
 10
-0.1876
 20
5.7174
 10
-0.2641
 20
5.8039
 10
-0.3213
 20
5.9061
 10
-0.3567
 20
6.0225
 10
-0.3685
 20
6.1512
 10
-0.3637
 20
6.2267
 10
-0.349
 20
6.301
 10
-0.3248
 20
6.3731
 10
-0.2915
 20
6.4414
 10
-0.2495
 20
6.5054
 10
-0.1986
 20
6.5638
 10
-0.1393
 20
6.6158
 10
-0.0721
 20
6.6603
 10
0.0025
 20
6.6968
 10
0.0842
 20
6.7242
 10
0.1732
 20
6.7414
 10
0.2692
 20
6.7471
 10
0.3081
 20
6.7462
 10
0.3477
 20
6.7435
 10
0.3876
 20
6.7391
 10
0.427
 20
6.733
 10
0.4656
 20
6.7255
 10
0.5028
 20
6.7165
 10
0.5385
 20
6.7064
 10
0.5723
 20
6.695
 10
0.6267
 20
6.5466
 10
0.6203
 20
6.5436
 10
0.5867
 20
6.5705
 10
0.5482
 20
6.5954
 10
0.5059
 20
6.6179
 10
0.4607
 20
6.6372
 10
0.4131
 20
6.653
 10
0.3631
 20
6.6649
 10
0.312
 20
6.6725
 10
0.2602
 20
6.675
 10
0.1635
 20
6.667
 10
0.0749
 20
6.6431
 10
-0.0033
 20
6.6044
 10
-0.0698
 20
6.5513
 10
-0.1236
 20
6.4843
 10
-0.164
 20
6.4037
 10
-0.1892
 20
6.3104
 10
-0.1976
 20
6.205
 10
-0.1896
 20
6.0867
 10
-0.1655
 20
5.9772
 10
-0.1256
 20
5.8792
 10
-0.0701
 20
5.7952
 10
0.0012
 20
5.7265
 10
0.0883
 20
5.6743
 10
0.1912
 20
5.6416
 10
0.31
 20
5.6307
 10
0.3632
 20
5.6329
 10
0.4104
 20
5.6394
 10
0.451
 20
5.6494
 10
0.4848
 20
5.6615
 10
0.5116
 20
5.6754
 10
0.531
 20
5.6905
 10
0.5427
 20
5.7054
 10
0.5466
 20
5.719
 10
0.5466
 20
5.7503
 10
0.5462
 20
5.8026
 10
0.5448
 20
5.8473
 10
0.5429
 20
5.8854
 10
0.54
 20
5.9181
 10
0.5366
 20
5.9462
 10
0.5328
 20
5.97
 10
0.5285
 20
5.9909
 10
0.5233
 20
6.01
 10
0.5233
 20
6.0133
 10
0.7158
 20
6.0133
 10
0.7158
 20
6.01
 10
0.7111
 20
5.9918
 10
0.7065
 20
5.9705
 10
0.7024
 20
5.9455
 10
0.6988
 20
5.9163
 10
0.6961
 20
5.8823
 10
0.6942
 20
5.8429
 10
0.6931
 20
5.7975
 10
0.6927
 20
5.7454
 10
0.6927
 20
5.7126
 10
0.6922
 20
5.7036
 10
0.6906
 20
5.6941
 10
0.6873
 20
5.6854
 10
0.6814
 20
5.6782
 10
0.6437
 20
5.6519
  0
LWPOLYLINE
  5
DB
330
17
100
AcDbEntity
  8
ALTIN
100
AcDbPolyline
 90
46
 70
1
 10
-0.8515
 20
5.7013
 10
-0.8908
 20
5.5714
 10
-0.9029
 20
5.5722
 10
-0.9198
 20
5.5729
 10
-0.9401
 20
5.5738
 10
-0.9627
 20
5.5747
 10
-0.9869
 20
5.5754
 10
-1.0124
 20
5.576
 10
-1.0377
 20
5.5763
 10
-1.0617
 20
5.5768
 10
-1.0836
 20
5.5771
 10
-1.103
 20
5.5776
 10
-1.1185
 20
5.5778
 10
-1.129
 20
5.5778
 10
-1.8532
 20
5.5778
 10
-1.8532
 20
5.5978
 10
-1.072
 20
6.6572
 10
-1.3735
 20
6.6572
 10
-1.4645
 20
6.6551
 10
-1.5481
 20
6.6488
 10
-1.6227
 20
6.6402
 10
-1.6872
 20
6.6308
 10
-1.753
 20
6.6182
 10
-1.8124
 20
6.6044
 10
-1.757
 20
6.7342
 10
-1.7449
 20
6.7335
 10
-1.7277
 20
6.7327
 10
-1.707
 20
6.7319
 10
-1.6843
 20
6.7312
 10
-1.6602
 20
6.7305
 10
-1.6351
 20
6.7299
 10
-1.61
 20
6.7296
 10
-1.5863
 20
6.7291
 10
-1.5643
 20
6.7286
 10
-1.545
 20
6.7281
 10
-1.5293
 20
6.7279
 10
-1.5188
 20
6.7278
 10
-0.8515
 20
6.7278
 10
-0.8515
 20
6.7063
 10
-1.6335
 20
5.6484
 10
-1.2901
 20
5.6484
 10
-1.1999
 20
5.6504
 10
-1.1166
 20
5.6564
 10
-1.042
 20
5.6651
 10
-0.9775
 20
5.6748
 10
-0.9115
 20
5.6871
  0
LWPOLYLINE
  5
DC
330
17
100
AcDbEntity
  8
ALTIN
100
AcDbPolyline
 90
79
 70
1
 10
2.8238
 20
5.5812
 10
2.8238
 20
5.5778
 10
2.6313
 20
5.5778
 10
2.6313
 20
5.5812
 10
2.6361
 20
5.5999
 10
2.6406
 20
5.6227
 10
2.6445
 20
5.6506
 10
2.6478
 20
5.6843
 10
2.6504
 20
5.7247
 10
2.6526
 20
5.7718
 10
2.6542
 20
5.827
 10
2.6547
 20
5.8914
 10
2.6547
 20
6.4134
 10
2.6542
 20
6.4773
 10
2.6526
 20
6.5325
 10
2.6504
 20
6.58
 10
2.6478
 20
6.6203
 10
2.6445
 20
6.6543
 10
2.6406
 20
6.6824
 10
2.6361
 20
6.7057
 10
2.6313
 20
6.7247
 10
2.6313
 20
6.7278
 10
2.665
 20
6.7247
 10
2.6812
 20
6.7235
 10
2.6991
 20
6.7227
 10
2.7182
 20
6.7223
 10
2.7381
 20
6.7222
 10
2.7747
 20
6.7241
 10
2.8225
 20
6.7299
 10
2.8832
 20
6.7357
 10
2.9585
 20
6.7376
 10
3.0326
 20
6.7323
 10
3.1007
 20
6.7165
 10
3.1618
 20
6.6909
 10
3.2142
 20
6.6557
 10
3.2571
 20
6.6111
 10
3.2894
 20
6.5574
 10
3.3096
 20
6.4954
 10
3.3163
 20
6.4255
 10
3.3126
 20
6.3699
 10
3.3014
 20
6.3185
 10
3.2835
 20
6.2715
 10
3.2596
 20
6.2289
 10
3.2301
 20
6.1912
 10
3.1952
 20
6.1581
 10
3.1553
 20
6.1297
 10
3.111
 20
6.1062
 10
3.3925
 20
5.711
 10
3.4126
 20
5.6832
 10
3.4313
 20
5.6594
 10
3.4489
 20
5.6394
 10
3.4657
 20
5.6222
 10
3.482
 20
5.6081
 10
3.4975
 20
5.5966
 10
3.5129
 20
5.5877
 10
3.5288
 20
5.5812
 10
3.5288
 20
5.5778
 10
3.2971
 20
5.5778
 10
3.2918
 20
5.5955
 10
3.2811
 20
5.6181
 10
3.2669
 20
5.6434
 10
3.2503
 20
5.6684
 10
2.9665
 20
6.0688
 10
2.948
 20
6.0671
 10
2.9295
 20
6.0657
 10
2.9111
 20
6.0649
 10
2.8921
 20
6.0647
 10
2.8694
 20
6.0651
 10
2.8467
 20
6.0662
 10
2.8237
 20
6.0684
 10
2.8005
 20
6.0719
 10
2.8005
 20
5.8914
 10
2.801
 20
5.8275
 10
2.8025
 20
5.7721
 10
2.8048
 20
5.7247
 10
2.8074
 20
5.6843
 10
2.8106
 20
5.6506
 10
2.8146
 20
5.6227
 10
2.8191
 20
5.5999
  0
LWPOLYLINE
  5
DD
330
17
100
AcDbEntity
  8
ALTIN
100
AcDbPolyline
 90
25
 70
1
 10
3.0825
 20
6.1986
 10
3.1135
 20
6.2401
 10
3.1367
 20
6.2905
 10
3.1511
 20
6.3501
 10
3.1559
 20
6.4191
 10
3.1524
 20
6.4765
 10
3.142
 20
6.5282
 10
3.1251
 20
6.5734
 10
3.1015
 20
6.6111
 10
3.0712
 20
6.6413
 10
3.0337
 20
6.6639
 10
2.9895
 20
6.6782
 10
2.9385
 20
6.6829
 10
2.8887
 20
6.6815
 10
2.8502
 20
6.6773
 10
2.8214
 20
6.6716
 10
2.8005
 20
6.6655
 10
2.8005
 20
6.1345
 10
2.8224
 20
6.1303
 10
2.8446
 20
6.1275
 10
2.8667
 20
6.126
 10
2.888
 20
6.1255
 10
2.9455
 20
6.13
 10
2.9978
 20
6.1435
 10
3.0439
 20
6.1664
  0
LWPOLYLINE
  5
DE
330
17
100
AcDbEntity
  8
ALTIN
100
AcDbPolyline
 90
136
 70
1
 10
12.3544
 20
-0.7371
 10
12.3494
 20
-0.7711
 10
12.3425
 20
-0.8058
 10
12.3341
 20
-0.8391
 10
12.3239
 20
-0.8729
 10
12.3123
 20
-0.9052
 10
12.2988
 20
-0.9379
 10
12.2841
 20
-0.9689
 10
12.2675
 20
-1.0001
 10
12.2498
 20
-1.0295
 10
12.2302
 20
-1.0589
 10
12.2097
 20
-1.0865
 10
12.1873
 20
-1.1138
 10
12.1642
 20
-1.1392
 10
12.1392
 20
-1.1642
 10
12.1138
 20
-1.1873
 10
12.0865
 20
-1.2097
 10
12.0589
 20
-1.2302
 10
12.0295
 20
-1.2498
 10
12.0001
 20
-1.2675
 10
11.9689
 20
-1.2841
 10
11.9379
 20
-1.2988
 10
11.9052
 20
-1.3123
 10
11.8729
 20
-1.3239
 10
11.8391
 20
-1.3341
 10
11.8058
 20
-1.3425
 10
11.7711
 20
-1.3494
 10
11.7371
 20
-1.3544
 10
11.702
 20
-1.3579
 10
11.6677
 20
-1.3596
 10
11.65
 20
-1.36
 10
9.45
 20
-1.36
 10
9.4323
 20
-1.3596
 10
9.398
 20
-1.3579
 10
9.3629
 20
-1.3544
 10
9.3289
 20
-1.3494
 10
9.2942
 20
-1.3425
 10
9.2609
 20
-1.3341
 10
9.2271
 20
-1.3239
 10
9.1948
 20
-1.3123
 10
9.1621
 20
-1.2988
 10
9.1311
 20
-1.2841
 10
9.0999
 20
-1.2675
 10
9.0705
 20
-1.2498
 10
9.0411
 20
-1.2302
 10
9.0135
 20
-1.2097
 10
8.9862
 20
-1.1873
 10
8.9608
 20
-1.1642
 10
8.9358
 20
-1.1392
 10
8.9127
 20
-1.1138
 10
8.8903
 20
-1.0865
 10
8.8698
 20
-1.0589
 10
8.8502
 20
-1.0295
 10
8.8325
 20
-1.0001
 10
8.8159
 20
-0.9689
 10
8.8012
 20
-0.9379
 10
8.7877
 20
-0.9052
 10
8.7761
 20
-0.8729
 10
8.7659
 20
-0.8391
 10
8.7575
 20
-0.8058
 10
8.7506
 20
-0.7711
 10
8.7456
 20
-0.7371
 10
8.7421
 20
-0.702
 10
8.7404
 20
-0.6677
 10
8.74
 20
-0.65
 10
8.74
 20
0.65
 10
8.7404
 20
0.6677
 10
8.7421
 20
0.702
 10
8.7456
 20
0.7371
 10
8.7506
 20
0.7711
 10
8.7575
 20
0.8058
 10
8.7659
 20
0.8391
 10
8.7761
 20
0.8729
 10
8.7877
 20
0.9052
 10
8.8012
 20
0.9379
 10
8.8159
 20
0.9689
 10
8.8325
 20
1.0001
 10
8.8502
 20
1.0295
 10
8.8698
 20
1.0589
 10
8.8903
 20
1.0865
 10
8.9127
 20
1.1138
 10
8.9358
 20
1.1392
 10
8.9608
 20
1.1642
 10
8.9862
 20
1.1873
 10
9.0135
 20
1.2097
 10
9.0411
 20
1.2302
 10
9.0705
 20
1.2498
 10
9.0999
 20
1.2675
 10
9.1311
 20
1.2841
 10
9.1621
 20
1.2988
 10
9.1948
 20
1.3123
 10
9.2271
 20
1.3239
 10
9.2609
 20
1.3341
 10
9.2942
 20
1.3425
 10
9.3289
 20
1.3494
 10
9.3629
 20
1.3544
 10
9.398
 20
1.3579
 10
9.4323
 20
1.3596
 10
9.45
 20
1.36
 10
11.65
 20
1.36
 10
11.6677
 20
1.3596
 10
11.702
 20
1.3579
 10
11.7371
 20
1.3544
 10
11.7711
 20
1.3494
 10
11.8058
 20
1.3425
 10
11.8391
 20
1.3341
 10
11.8729
 20
1.3239
 10
11.9052
 20
1.3123
 10
11.9379
 20
1.2988
 10
11.9689
 20
1.2841
 10
12.0001
 20
1.2675
 10
12.0295
 20
1.2498
 10
12.0589
 20
1.2302
 10
12.0865
 20
1.2097
 10
12.1138
 20
1.1873
 10
12.1392
 20
1.1642
 10
12.1642
 20
1.1392
 10
12.1873
 20
1.1138
 10
12.2097
 20
1.0865
 10
12.2302
 20
1.0589
 10
12.2498
 20
1.0295
 10
12.2675
 20
1.0001
 10
12.2841
 20
0.9689
 10
12.2988
 20
0.9379
 10
12.3123
 20
0.9052
 10
12.3239
 20
0.8729
 10
12.3341
 20
0.8391
 10
12.3425
 20
0.8058
 10
12.3494
 20
0.7711
 10
12.3544
 20
0.7371
 10
12.3579
 20
0.702
 10
12.3596
 20
0.6677
 10
12.36
 20
0.65
 10
12.36
 20
-0.65
 10
12.3596
 20
-0.6677
 10
12.3579
 20
-0.702
  0
LWPOLYLINE
  5
DF
330
17
100
AcDbEntity
  8
ALTIN
100
AcDbPolyline
 90
136
 70
1
 10
12.2497
 20
0.6623
 10
12.248
 20
0.6966
 10
12.2456
 20
0.721
 10
12.2406
 20
0.755
 10
12.2358
 20
0.779
 10
12.2274
 20
0.8123
 10
12.2203
 20
0.8358
 10
12.2087
 20
0.8682
 10
12.1994
 20
0.8908
 10
12.1847
 20
0.9219
 10
12.1731
 20
0.9435
 10
12.1554
 20
0.973
 10
12.1418
 20
0.9934
 10
12.1214
 20
1.021
 10
12.1058
 20
1.0399
 10
12.0827
 20
1.0654
 10
12.0654
 20
1.0827
 10
12.0399
 20
1.1058
 10
12.021
 20
1.1214
 10
11.9934
 20
1.1418
 10
11.973
 20
1.1554
 10
11.9435
 20
1.1731
 10
11.9219
 20
1.1847
 10
11.8908
 20
1.1994
 10
11.8682
 20
1.2087
 10
11.8358
 20
1.2203
 10
11.8123
 20
1.2274
 10
11.779
 20
1.2358
 10
11.755
 20
1.2406
 10
11.721
 20
1.2456
 10
11.6966
 20
1.248
 10
11.6623
 20
1.2497
 10
11.65
 20
1.25
 10
9.45
 20
1.25
 10
9.4377
 20
1.2497
 10
9.4034
 20
1.248
 10
9.379
 20
1.2456
 10
9.345
 20
1.2406
 10
9.321
 20
1.2358
 10
9.2877
 20
1.2274
 10
9.2642
 20
1.2203
 10
9.2318
 20
1.2087
 10
9.2092
 20
1.1994
 10
9.1781
 20
1.1847
 10
9.1565
 20
1.1731
 10
9.127
 20
1.1554
 10
9.1066
 20
1.1418
 10
9.079
 20
1.1214
 10
9.0601
 20
1.1058
 10
9.0346
 20
1.0827
 10
9.0173
 20
1.0654
 10
8.9942
 20
1.0399
 10
8.9786
 20
1.021
 10
8.9582
 20
0.9934
 10
8.9446
 20
0.973
 10
8.9269
 20
0.9435
 10
8.9153
 20
0.9219
 10
8.9006
 20
0.8908
 10
8.8913
 20
0.8682
 10
8.8797
 20
0.8358
 10
8.8726
 20
0.8123
 10
8.8642
 20
0.779
 10
8.8594
 20
0.755
 10
8.8544
 20
0.721
 10
8.852
 20
0.6966
 10
8.8503
 20
0.6623
 10
8.85
 20
0.65
 10
8.85
 20
-0.65
 10
8.8503
 20
-0.6623
 10
8.852
 20
-0.6966
 10
8.8544
 20
-0.721
 10
8.8594
 20
-0.755
 10
8.8642
 20
-0.779
 10
8.8726
 20
-0.8123
 10
8.8797
 20
-0.8358
 10
8.8913
 20
-0.8682
 10
8.9006
 20
-0.8908
 10
8.9153
 20
-0.9219
 10
8.9269
 20
-0.9435
 10
8.9446
 20
-0.973
 10
8.9582
 20
-0.9934
 10
8.9786
 20
-1.021
 10
8.9942
 20
-1.0399
 10
9.0173
 20
-1.0654
 10
9.0346
 20
-1.0827
 10
9.0601
 20
-1.1058
 10
9.079
 20
-1.1214
 10
9.1066
 20
-1.1418
 10
9.127
 20
-1.1554
 10
9.1565
 20
-1.1731
 10
9.1781
 20
-1.1847
 10
9.2092
 20
-1.1994
 10
9.2318
 20
-1.2087
 10
9.2642
 20
-1.2203
 10
9.2877
 20
-1.2274
 10
9.321
 20
-1.2358
 10
9.345
 20
-1.2406
 10
9.379
 20
-1.2456
 10
9.4034
 20
-1.248
 10
9.4377
 20
-1.2497
 10
9.45
 20
-1.25
 10
11.65
 20
-1.25
 10
11.6623
 20
-1.2497
 10
11.6966
 20
-1.248
 10
11.721
 20
-1.2456
 10
11.755
 20
-1.2406
 10
11.779
 20
-1.2358
 10
11.8123
 20
-1.2274
 10
11.8358
 20
-1.2203
 10
11.8682
 20
-1.2087
 10
11.8908
 20
-1.1994
 10
11.9219
 20
-1.1847
 10
11.9435
 20
-1.1731
 10
11.973
 20
-1.1554
 10
11.9934
 20
-1.1418
 10
12.021
 20
-1.1214
 10
12.0399
 20
-1.1058
 10
12.0654
 20
-1.0827
 10
12.0827
 20
-1.0654
 10
12.1058
 20
-1.0399
 10
12.1214
 20
-1.021
 10
12.1418
 20
-0.9934
 10
12.1554
 20
-0.973
 10
12.1731
 20
-0.9435
 10
12.1847
 20
-0.9219
 10
12.1994
 20
-0.8908
 10
12.2087
 20
-0.8682
 10
12.2203
 20
-0.8358
 10
12.2274
 20
-0.8123
 10
12.2358
 20
-0.779
 10
12.2406
 20
-0.755
 10
12.2456
 20
-0.721
 10
12.248
 20
-0.6966
 10
12.2497
 20
-0.6623
 10
12.25
 20
-0.65
 10
12.25
 20
0.65
  0
ENDSEC
  0
SECTION
  2
OBJECTS
  0
DICTIONARY
  5
A
330
0
100
AcDbDictionary
281
1
  3
ACAD_COLOR
350
B
  3
ACAD_GROUP
350
C
  3
ACAD_LAYOUT
350
D
  3
ACAD_MATERIAL
350
E
  3
ACAD_MLEADERSTYLE
350
F
  3
ACAD_MLINESTYLE
350
10
  3
ACAD_PLOTSETTINGS
350
11
  3
ACAD_PLOTSTYLENAME
350
12
  3
ACAD_SCALELIST
350
14
  3
ACAD_TABLESTYLE
350
15
  3
ACAD_VISUALSTYLE
350
16
  3
EZDXF_META
350
2D
  0
DICTIONARY
  5
B
330
A
100
AcDbDictionary
281
1
  0
DICTIONARY
  5
C
330
A
100
AcDbDictionary
281
1
  0
DICTIONARY
  5
D
330
A
100
AcDbDictionary
281
1
  3
Model
350
1A
  3
Layout1
350
1E
  0
DICTIONARY
  5
E
330
A
100
AcDbDictionary
281
1
  3
ByBlock
350
1F
  3
ByLayer
350
20
  3
Global
350
21
  0
DICTIONARY
  5
F
330
A
100
AcDbDictionary
281
1
  3
Standard
350
2C
  0
DICTIONARY
  5
10
330
A
100
AcDbDictionary
281
1
  3
Standard
350
22
  0
DICTIONARY
  5
11
330
A
100
AcDbDictionary
281
1
  0
ACDBDICTIONARYWDFLT
  5
12
330
A
100
AcDbDictionary
281
1
  3
Normal
350
13
100
AcDbDictionaryWithDefault
340
13
  0
ACDBPLACEHOLDER
  5
13
330
12
  0
DICTIONARY
  5
14
330
A
100
AcDbDictionary
281
1
  0
DICTIONARY
  5
15
330
A
100
AcDbDictionary
281
1
  0
DICTIONARY
  5
16
330
A
100
AcDbDictionary
281
1
  3
2dWireframe
350
5A
  3
Basic
350
5B
  3
Brighten
350
5C
  3
ColorChange
350
5D
  3
Conceptual
350
5E
  3
Dim
350
5F
  3
EdgeColorOff
350
60
  3
Facepattern
350
61
  3
Flat
350
62
  3
FlatWithEdges
350
63
  3
Gouraud
350
64
  3
GouraudWithEdges
350
65
  3
Hidden
350
66
  3
JitterOff
350
67
  3
Linepattern
350
68
  3
Modeling
350
69
  3
OverhangOff
350
6A
  3
Realistic
350
6B
  3
Shaded
350
6C
  3
Shaded with edges
350
6D
  3
Shades of Gray
350
6E
  3
Sketchy
350
6F
  3
Thicken
350
70
  3
Wireframe
350
71
  3
X-Ray
350
72
  0
LAYOUT
  5
1A
330
D
100
AcDbPlotSettings
  1

  4
A3
  6

 40
7.5
 41
20.0
 42
7.5
 43
20.0
 44
420.0
 45
297.0
 46
0.0
 47
0.0
 48
0.0
 49
0.0
140
0.0
141
0.0
142
1.0
143
1.0
 70
1024
 72
1
 73
0
 74
5
  7

 75
16
 76
0
 77
2
 78
300
147
1.0
148
0.0
149
0.0
100
AcDbLayout
  1
Model
 70
1
 71
0
 10
0.0
 20
0.0
 11
420.0
 21
297.0
 12
0.0
 22
0.0
 32
0.0
 14
1e+20
 24
1e+20
 34
1e+20
 15
-1e+20
 25
-1e+20
 35
-1e+20
146
0.0
 13
0.0
 23
0.0
 33
0.0
 16
1.0
 26
0.0
 36
0.0
 17
0.0
 27
1.0
 37
0.0
 76
1
330
17
  0
LAYOUT
  5
1E
330
D
100
AcDbPlotSettings
  1

  4
A3
  6

 40
7.5
 41
20.0
 42
7.5
 43
20.0
 44
420.0
 45
297.0
 46
0.0
 47
0.0
 48
0.0
 49
0.0
140
0.0
141
0.0
142
1.0
143
1.0
 70
0
 72
1
 73
0
 74
5
  7

 75
16
 76
0
 77
2
 78
300
147
1.0
148
0.0
149
0.0
100
AcDbLayout
  1
Layout1
 70
1
 71
1
 10
0.0
 20
0.0
 11
420.0
 21
297.0
 12
0.0
 22
0.0
 32
0.0
 14
1e+20
 24
1e+20
 34
1e+20
 15
-1e+20
 25
-1e+20
 35
-1e+20
146
0.0
 13
0.0
 23
0.0
 33
0.0
 16
1.0
 26
0.0
 36
0.0
 17
0.0
 27
1.0
 37
0.0
 76
1
330
1B
  0
MATERIAL
  5
1F
102
{ACAD_REACTORS
330
E
102
}
330
E
100
AcDbMaterial
  1
ByBlock
  2

 70
0
 40
1.0
 71
1
 41
1.0
 91
-1023410177
 42
1.0
 72
1
  3

 73
1
 74
1
 75
1
 44
0.5
 73
0
 45
1.0
 46
1.0
 77
1
  4

 78
1
 79
1
170
1
 48
1.0
171
1
  6

172
1
173
1
174
1
140
1.0
141
1.0
175
1
  7

176
1
177
1
178
1
143
1.0
179
1
  8

270
1
271
1
272
1
145
1.0
146
1.0
273
1
  9

274
1
275
1
276
1
 42
1.0
 72
1
  3

 73
1
 74
1
 75
1
 94
63
  0
MATERIAL
  5
20
102
{ACAD_REACTORS
330
E
102
}
330
E
100
AcDbMaterial
  1
ByLayer
  2

 70
0
 40
1.0
 71
1
 41
1.0
 91
-1023410177
 42
1.0
 72
1
  3

 73
1
 74
1
 75
1
 44
0.5
 73
0
 45
1.0
 46
1.0
 77
1
  4

 78
1
 79
1
170
1
 48
1.0
171
1
  6

172
1
173
1
174
1
140
1.0
141
1.0
175
1
  7

176
1
177
1
178
1
143
1.0
179
1
  8

270
1
271
1
272
1
145
1.0
146
1.0
273
1
  9

274
1
275
1
276
1
 42
1.0
 72
1
  3

 73
1
 74
1
 75
1
 94
63
  0
MATERIAL
  5
21
102
{ACAD_REACTORS
330
E
102
}
330
E
100
AcDbMaterial
  1
Global
  2

 70
0
 40
1.0
 71
1
 41
1.0
 91
-1023410177
 42
1.0
 72
1
  3

 73
1
 74
1
 75
1
 44
0.5
 73
0
 45
1.0
 46
1.0
 77
1
  4

 78
1
 79
1
170
1
 48
1.0
171
1
  6

172
1
173
1
174
1
140
1.0
141
1.0
175
1
  7

176
1
177
1
178
1
143
1.0
179
1
  8

270
1
271
1
272
1
145
1.0
146
1.0
273
1
  9

274
1
275
1
276
1
 42
1.0
 72
1
  3

 73
1
 74
1
 75
1
 94
63
  0
MLINESTYLE
  5
22
102
{ACAD_REACTORS
330
10
102
}
330
10
100
AcDbMlineStyle
  2
Standard
 70
0
  3

 62
256
 51
90.0
 52
90.0
 71
2
 49
0.5
 62
256
  6
BYLAYER
 49
-0.5
 62
256
  6
BYLAYER
  0
MLEADERSTYLE
  5
2C
102
{ACAD_REACTORS
330
F
102
}
330
F
100
AcDbMLeaderStyle
179
2
170
2
171
1
172
0
 90
2
 40
0.0
 41
0.0
173
1
 91
-1056964608
 92
-2
290
1
 42
2.0
291
1
 43
8.0
  3
Standard
 44
4.0
300

342
29
174
1
175
1
176
0
178
1
 93
-1056964608
 45
4.0
292
0
297
0
 46
4.0
 94
-1056964608
 47
1.0
 49
1.0
140
1.0
294
1
141
0.0
177
0
142
1.0
295
0
296
0
143
3.75
271
0
272
9
273
9
  0
DICTIONARY
  5
2D
330
A
100
AcDbDictionary
280
1
281
1
  3
CREATED_BY_EZDXF
350
2E
  3
WRITTEN_BY_EZDXF
350
E2
  0
DICTIONARYVAR
  5
2E
330
2D
100
DictionaryVariables
280
0
  1
1.4.4 @ 2026-10-07T22:29:16.381264+00:00
  0
VISUALSTYLE
  5
5A
102
{ACAD_REACTORS
330
16
102
}
330
16
100
AcDbVisualStyle
  2
2dWireframe
 70
4
 90
0
 40
0.6
 62
7
290
0
291
0
  0
VISUALSTYLE
  5
5B
102
{ACAD_REACTORS
330
16
102
}
330
16
100
AcDbVisualStyle
  2
Basic
 70
7
 90
1
 40
0.6
 62
7
290
0
291
1
  0
VISUALSTYLE
  5
5C
102
{ACAD_REACTORS
330
16
102
}
330
16
100
AcDbVisualStyle
  2
Brighten
 70
12
 90
2
 40
0.6
 62
7
290
0
291
1
  0
VISUALSTYLE
  5
5D
102
{ACAD_REACTORS
330
16
102
}
330
16
100
AcDbVisualStyle
  2
ColorChange
 70
16
 90
2
 40
0.6
 62
8
290
0
291
1
  0
VISUALSTYLE
  5
5E
102
{ACAD_REACTORS
330
16
102
}
330
16
100
AcDbVisualStyle
  2
Conceptual
 70
9
 90
3
 40
0.6
 62
7
290
0
291
0
  0
VISUALSTYLE
  5
5F
102
{ACAD_REACTORS
330
16
102
}
330
16
100
AcDbVisualStyle
  2
Dim
 70
11
 90
2
 40
0.6
 62
7
290
0
291
1
  0
VISUALSTYLE
  5
60
102
{ACAD_REACTORS
330
16
102
}
330
16
100
AcDbVisualStyle
  2
EdgeColorOff
 70
22
 90
2
 40
0.6
 62
7
290
0
291
1
  0
VISUALSTYLE
  5
61
102
{ACAD_REACTORS
330
16
102
}
330
16
100
AcDbVisualStyle
  2
Facepattern
 70
15
 90
2
 40
0.6
 62
7
290
0
291
1
  0
VISUALSTYLE
  5
62
102
{ACAD_REACTORS
330
16
102
}
330
16
100
AcDbVisualStyle
  2
Flat
 70
0
 90
2
 40
0.6
 62
7
290
0
291
1
  0
VISUALSTYLE
  5
63
102
{ACAD_REACTORS
330
16
102
}
330
16
100
AcDbVisualStyle
  2
FlatWithEdges
 70
1
 90
2
 40
0.6
 62
7
290
0
291
1
  0
VISUALSTYLE
  5
64
102
{ACAD_REACTORS
330
16
102
}
330
16
100
AcDbVisualStyle
  2
Gouraud
 70
2
 90
2
 40
0.6
 62
7
290
0
291
1
  0
VISUALSTYLE
  5
65
102
{ACAD_REACTORS
330
16
102
}
330
16
100
AcDbVisualStyle
  2
GouraudWithEdges
 70
3
 90
2
 40
0.6
 62
7
290
0
291
1
  0
VISUALSTYLE
  5
66
102
{ACAD_REACTORS
330
16
102
}
330
16
100
AcDbVisualStyle
  2
Hidden
 70
6
 90
1
 40
0.6
 62
7
290
0
291
0
  0
VISUALSTYLE
  5
67
102
{ACAD_REACTORS
330
16
102
}
330
16
100
AcDbVisualStyle
  2
JitterOff
 70
20
 90
2
 40
0.6
 62
7
290
0
291
1
  0
VISUALSTYLE
  5
68
102
{ACAD_REACTORS
330
16
102
}
330
16
100
AcDbVisualStyle
  2
Linepattern
 70
14
 90
2
 40
0.6
 62
7
290
0
291
1
  0
VISUALSTYLE
  5
69
102
{ACAD_REACTORS
330
16
102
}
330
16
100
AcDbVisualStyle
  2
Modeling
 70
10
 90
2
 40
0.6
 62
7
290
0
291
0
  0
VISUALSTYLE
  5
6A
102
{ACAD_REACTORS
330
16
102
}
330
16
100
AcDbVisualStyle
  2
OverhangOff
 70
21
 90
2
 40
0.6
 62
7
290
0
291
1
  0
VISUALSTYLE
  5
6B
102
{ACAD_REACTORS
330
16
102
}
330
16
100
AcDbVisualStyle
  2
Realistic
 70
8
 90
2
 40
0.6
 62
7
290
0
291
0
  0
VISUALSTYLE
  5
6C
102
{ACAD_REACTORS
330
16
102
}
330
16
100
AcDbVisualStyle
  2
Shaded
 70
27
 90
2
 40
0.6
 62
7
290
0
291
0
  0
VISUALSTYLE
  5
6D
102
{ACAD_REACTORS
330
16
102
}
330
16
100
AcDbVisualStyle
  2
Shaded with edges
 70
26
 90
2
 40
0.6
 62
7
290
0
291
0
  0
VISUALSTYLE
  5
6E
102
{ACAD_REACTORS
330
16
102
}
330
16
100
AcDbVisualStyle
  2
Shades of Gray
 70
23
 90
2
 40
0.6
 62
7
290
0
291
0
  0
VISUALSTYLE
  5
6F
102
{ACAD_REACTORS
330
16
102
}
330
16
100
AcDbVisualStyle
  2
Sketchy
 70
24
 90
1
 40
0.6
 62
7
290
0
291
0
  0
VISUALSTYLE
  5
70
102
{ACAD_REACTORS
330
16
102
}
330
16
100
AcDbVisualStyle
  2
Thicken
 70
13
 90
2
 40
0.6
 62
7
290
0
291
1
  0
VISUALSTYLE
  5
71
102
{ACAD_REACTORS
330
16
102
}
330
16
100
AcDbVisualStyle
  2
Wireframe
 70
5
 90
0
 40
0.6
 62
7
290
0
291
0
  0
VISUALSTYLE
  5
72
102
{ACAD_REACTORS
330
16
102
}
330
16
100
AcDbVisualStyle
  2
X-Ray
 70
25
 90
2
 40
0.5
 62
7
290
0
291
0
  0
DICTIONARYVAR
  5
E2
330
2D
100
DictionaryVariables
280
0
  1
1.4.4 @ 2026-10-07T22:29:16.411608+00:00
  0
ENDSEC
  0
EOF
